%TF.GenerationSoftware,KiCad,Pcbnew,5.1.9-73d0e3b20d~88~ubuntu20.04.1*%
%TF.CreationDate,2021-04-23T09:21:03+02:00*%
%TF.ProjectId,NodeStandard,4e6f6465-5374-4616-9e64-6172642e6b69,V0.9*%
%TF.SameCoordinates,Original*%
%TF.FileFunction,Copper,L1,Top*%
%TF.FilePolarity,Positive*%
%FSLAX46Y46*%
G04 Gerber Fmt 4.6, Leading zero omitted, Abs format (unit mm)*
G04 Created by KiCad (PCBNEW 5.1.9-73d0e3b20d~88~ubuntu20.04.1) date 2021-04-23 09:21:03*
%MOMM*%
%LPD*%
G01*
G04 APERTURE LIST*
%TA.AperFunction,ComponentPad*%
%ADD10C,1.600000*%
%TD*%
%TA.AperFunction,ComponentPad*%
%ADD11R,1.600000X1.600000*%
%TD*%
%TA.AperFunction,ComponentPad*%
%ADD12O,2.080000X3.600000*%
%TD*%
%TA.AperFunction,WasherPad*%
%ADD13C,1.500000*%
%TD*%
%TA.AperFunction,ComponentPad*%
%ADD14R,1.800000X2.800000*%
%TD*%
%TA.AperFunction,ComponentPad*%
%ADD15R,2.800000X1.800000*%
%TD*%
%TA.AperFunction,ComponentPad*%
%ADD16C,2.000000*%
%TD*%
%TA.AperFunction,ComponentPad*%
%ADD17R,2.000000X2.000000*%
%TD*%
%TA.AperFunction,ComponentPad*%
%ADD18O,1.600000X1.600000*%
%TD*%
%TA.AperFunction,ComponentPad*%
%ADD19R,1.050000X1.500000*%
%TD*%
%TA.AperFunction,ComponentPad*%
%ADD20O,1.050000X1.500000*%
%TD*%
%TA.AperFunction,ComponentPad*%
%ADD21C,5.600000*%
%TD*%
%TA.AperFunction,ComponentPad*%
%ADD22C,1.800000*%
%TD*%
%TA.AperFunction,ComponentPad*%
%ADD23R,1.800000X1.800000*%
%TD*%
%TA.AperFunction,ComponentPad*%
%ADD24O,3.000000X2.000000*%
%TD*%
%TA.AperFunction,ComponentPad*%
%ADD25O,2.000000X3.000000*%
%TD*%
%TA.AperFunction,ComponentPad*%
%ADD26R,2.000000X3.000000*%
%TD*%
%TA.AperFunction,ComponentPad*%
%ADD27O,1.700000X1.700000*%
%TD*%
%TA.AperFunction,ComponentPad*%
%ADD28R,1.700000X1.700000*%
%TD*%
%TA.AperFunction,ComponentPad*%
%ADD29C,2.200000*%
%TD*%
%TA.AperFunction,ComponentPad*%
%ADD30R,2.200000X2.200000*%
%TD*%
%TA.AperFunction,ComponentPad*%
%ADD31C,2.600000*%
%TD*%
%TA.AperFunction,ComponentPad*%
%ADD32R,2.600000X2.600000*%
%TD*%
%TA.AperFunction,ComponentPad*%
%ADD33O,2.400000X2.400000*%
%TD*%
%TA.AperFunction,ComponentPad*%
%ADD34C,2.400000*%
%TD*%
%TA.AperFunction,ComponentPad*%
%ADD35O,2.000000X1.905000*%
%TD*%
%TA.AperFunction,ComponentPad*%
%ADD36R,2.000000X1.905000*%
%TD*%
%TA.AperFunction,ComponentPad*%
%ADD37R,1.500000X1.050000*%
%TD*%
%TA.AperFunction,ComponentPad*%
%ADD38O,1.500000X1.050000*%
%TD*%
%TA.AperFunction,ComponentPad*%
%ADD39C,2.300000*%
%TD*%
%TA.AperFunction,ComponentPad*%
%ADD40R,2.000000X2.300000*%
%TD*%
%TA.AperFunction,ComponentPad*%
%ADD41C,3.000000*%
%TD*%
%TA.AperFunction,ComponentPad*%
%ADD42C,2.500000*%
%TD*%
%TA.AperFunction,SMDPad,CuDef*%
%ADD43C,0.100000*%
%TD*%
%TA.AperFunction,ComponentPad*%
%ADD44O,3.600000X2.080000*%
%TD*%
%TA.AperFunction,ComponentPad*%
%ADD45O,2.200000X2.200000*%
%TD*%
%TA.AperFunction,Conductor*%
%ADD46C,1.500000*%
%TD*%
%TA.AperFunction,Conductor*%
%ADD47C,1.000000*%
%TD*%
%TA.AperFunction,Conductor*%
%ADD48C,0.500000*%
%TD*%
G04 APERTURE END LIST*
D10*
%TO.P,C4,2*%
%TO.N,GND*%
X132080000Y-103545000D03*
D11*
%TO.P,C4,1*%
%TO.N,GPI36_U1RXD*%
X132080000Y-106045000D03*
%TD*%
D12*
%TO.P,J13,3*%
%TO.N,Net-(J13-Pad3)*%
X123825000Y-33655000D03*
%TO.P,J13,2*%
%TO.N,Net-(J13-Pad2)*%
X128905000Y-33655000D03*
%TO.P,J13,1*%
%TO.N,Net-(J13-Pad1)*%
%TA.AperFunction,ComponentPad*%
G36*
G01*
X135025000Y-32104997D02*
X135025000Y-35205003D01*
G75*
G02*
X134775003Y-35455000I-249997J0D01*
G01*
X133194997Y-35455000D01*
G75*
G02*
X132945000Y-35205003I0J249997D01*
G01*
X132945000Y-32104997D01*
G75*
G02*
X133194997Y-31855000I249997J0D01*
G01*
X134775003Y-31855000D01*
G75*
G02*
X135025000Y-32104997I0J-249997D01*
G01*
G37*
%TD.AperFunction*%
%TD*%
D13*
%TO.P,J2,*%
%TO.N,*%
X139115000Y-177165000D03*
X144115000Y-172165000D03*
X144115000Y-182165000D03*
X146615000Y-182165000D03*
X146615000Y-172165000D03*
D14*
%TO.P,J2,S*%
%TO.N,Net-(J2-PadS)*%
X144115000Y-177165000D03*
D15*
%TO.P,J2,T*%
%TO.N,Net-(C1-Pad1)*%
X139115000Y-172165000D03*
%TO.P,J2,R*%
%TO.N,N/C*%
X139115000Y-182165000D03*
%TO.P,J2,TN*%
%TO.N,Net-(J2-PadTN)*%
X139115000Y-174665000D03*
%TO.P,J2,RN*%
%TO.N,N/C*%
X139115000Y-179665000D03*
%TD*%
D16*
%TO.P,REF\u002A\u002A,1*%
%TO.N,N/C*%
X111380000Y-172375000D03*
%TD*%
%TO.P,REF\u002A\u002A,1*%
%TO.N,N/C*%
X111380000Y-153615000D03*
%TD*%
D17*
%TO.P,TP6,1*%
%TO.N,Net-(J2-PadS)*%
X122380000Y-155575000D03*
%TD*%
%TO.P,TP5,1*%
%TO.N,Net-(J2-PadTN)*%
X122380000Y-170375000D03*
%TD*%
%TO.P,LM2596Out-1,1*%
%TO.N,GND*%
X116586000Y-84831000D03*
%TD*%
%TO.P,LM2596Out+1,1*%
%TO.N,+5V*%
X134086000Y-84831000D03*
%TD*%
%TO.P,LM2596IN-1,1*%
%TO.N,230VAC-N*%
X116586000Y-44831000D03*
%TD*%
%TO.P,LM2596IN+1,1*%
%TO.N,230VAC-L*%
X134086000Y-44831000D03*
%TD*%
D18*
%TO.P,R30,2*%
%TO.N,Net-(Q6-Pad2)*%
X95885000Y-133985000D03*
D10*
%TO.P,R30,1*%
%TO.N,GPIO15_HS2_CMD*%
X88265000Y-133985000D03*
%TD*%
D19*
%TO.P,Q6,1*%
%TO.N,+3V3*%
X94615000Y-126365000D03*
D20*
%TO.P,Q6,3*%
%TO.N,Net-(J5-Pad3)*%
X97155000Y-126365000D03*
%TO.P,Q6,2*%
%TO.N,Net-(Q6-Pad2)*%
X95885000Y-126365000D03*
%TD*%
D21*
%TO.P,REF\u002A\u002A,1*%
%TO.N,N/C*%
X150812500Y-188341000D03*
%TD*%
%TO.P,REF\u002A\u002A,1*%
%TO.N,N/C*%
X29591000Y-188341000D03*
%TD*%
%TO.P,REF\u002A\u002A,1*%
%TO.N,N/C*%
X150812500Y-25400000D03*
%TD*%
%TO.P,REF\u002A\u002A,1*%
%TO.N,N/C*%
X29591000Y-25400000D03*
%TD*%
D18*
%TO.P,R3,2*%
%TO.N,Net-(J2-PadS)*%
X95885000Y-164465000D03*
D10*
%TO.P,R3,1*%
%TO.N,Net-(D1-Pad2)*%
X88265000Y-164465000D03*
%TD*%
D22*
%TO.P,D17,2*%
%TO.N,Net-(D17-Pad2)*%
X53975000Y-75565000D03*
D23*
%TO.P,D17,1*%
%TO.N,Net-(D17-Pad1)*%
X51435000Y-75565000D03*
%TD*%
D24*
%TO.P,K3,14*%
%TO.N,Net-(J23-Pad3)*%
X59055000Y-38795000D03*
%TO.P,K3,21*%
%TO.N,Net-(J24-Pad2)*%
X51555000Y-43835000D03*
%TO.P,K3,12*%
%TO.N,Net-(J23-Pad1)*%
X59055000Y-48875000D03*
%TO.P,K3,22*%
%TO.N,Net-(J24-Pad3)*%
X51555000Y-48875000D03*
%TO.P,K3,24*%
%TO.N,Net-(J24-Pad1)*%
X51555000Y-38795000D03*
%TO.P,K3,11*%
%TO.N,Net-(J23-Pad2)*%
X59055000Y-43835000D03*
D25*
%TO.P,K3,A2*%
%TO.N,Net-(D17-Pad1)*%
X51555000Y-64135000D03*
D26*
%TO.P,K3,A1*%
%TO.N,+5V*%
X59055000Y-64135000D03*
%TD*%
D27*
%TO.P,J29,3*%
%TO.N,Net-(D1-Pad2)*%
X69215000Y-135255000D03*
%TO.P,J29,2*%
%TO.N,GPI35*%
X69215000Y-132715000D03*
D28*
%TO.P,J29,1*%
%TO.N,Net-(J28-Pad3)*%
X69215000Y-130175000D03*
%TD*%
D29*
%TO.P,J28,3*%
%TO.N,Net-(J28-Pad3)*%
X32385000Y-102235000D03*
%TO.P,J28,2*%
%TO.N,GND*%
X32385000Y-99695000D03*
D30*
%TO.P,J28,1*%
%TO.N,+3V3*%
X32385000Y-97155000D03*
%TD*%
D29*
%TO.P,J17,2*%
%TO.N,GND*%
X32385000Y-84455000D03*
D30*
%TO.P,J17,1*%
%TO.N,Net-(J17-Pad1)*%
X32385000Y-81915000D03*
%TD*%
D29*
%TO.P,J16,2*%
%TO.N,GND*%
X32385000Y-74295000D03*
D30*
%TO.P,J16,1*%
%TO.N,Net-(J16-Pad1)*%
X32385000Y-71755000D03*
%TD*%
D29*
%TO.P,J15,2*%
%TO.N,GND*%
X32385000Y-64135000D03*
D30*
%TO.P,J15,1*%
%TO.N,Net-(J15-Pad1)*%
X32385000Y-61595000D03*
%TD*%
D29*
%TO.P,J6,4*%
%TO.N,GND*%
X121285000Y-180975000D03*
%TO.P,J6,3*%
%TO.N,Net-(J5-Pad3)*%
X118745000Y-180975000D03*
%TO.P,J6,2*%
%TO.N,GPIO13_I2C-SDA*%
X116205000Y-180975000D03*
D30*
%TO.P,J6,1*%
%TO.N,GPIO16_I2C-SCL*%
X113665000Y-180975000D03*
%TD*%
D29*
%TO.P,J5,4*%
%TO.N,GND*%
X133985000Y-180975000D03*
%TO.P,J5,3*%
%TO.N,Net-(J5-Pad3)*%
X131445000Y-180975000D03*
%TO.P,J5,2*%
%TO.N,GPIO16_I2C-SCL*%
X128905000Y-180975000D03*
D30*
%TO.P,J5,1*%
%TO.N,GPIO13_I2C-SDA*%
X126365000Y-180975000D03*
%TD*%
D18*
%TO.P,OK3,4*%
%TO.N,GPI36_U1RXD*%
X117475000Y-106045000D03*
%TO.P,OK3,2*%
%TO.N,Net-(OK3-Pad2)*%
X125095000Y-103505000D03*
%TO.P,OK3,3*%
%TO.N,GND*%
X117475000Y-103505000D03*
D11*
%TO.P,OK3,1*%
%TO.N,Net-(OK3-Pad1)*%
X125095000Y-106045000D03*
%TD*%
D18*
%TO.P,OK2,4*%
%TO.N,GPIO33*%
X117475000Y-127635000D03*
%TO.P,OK2,2*%
%TO.N,Net-(OK2-Pad2)*%
X125095000Y-125095000D03*
%TO.P,OK2,3*%
%TO.N,GND*%
X117475000Y-125095000D03*
D11*
%TO.P,OK2,1*%
%TO.N,Net-(OK2-Pad1)*%
X125095000Y-127635000D03*
%TD*%
D18*
%TO.P,OK1,4*%
%TO.N,GPIO32*%
X117475000Y-149225000D03*
%TO.P,OK1,2*%
%TO.N,Net-(OK1-Pad2)*%
X125095000Y-146685000D03*
%TO.P,OK1,3*%
%TO.N,GND*%
X117475000Y-146685000D03*
D11*
%TO.P,OK1,1*%
%TO.N,Net-(OK1-Pad1)*%
X125095000Y-149225000D03*
%TD*%
D31*
%TO.P,J3,2*%
%TO.N,Net-(J1-Pad1)*%
X131445000Y-160655000D03*
D32*
%TO.P,J3,1*%
%TO.N,Net-(J1-Pad2)*%
X131445000Y-155575000D03*
%TD*%
D18*
%TO.P,U1,28*%
%TO.N,N/C*%
X83185000Y-109855000D03*
%TO.P,U1,14*%
X50165000Y-102235000D03*
%TO.P,U1,27*%
X80645000Y-109855000D03*
%TO.P,U1,13*%
%TO.N,GPIO13_I2C-SDA*%
X52705000Y-102235000D03*
%TO.P,U1,26*%
%TO.N,N/C*%
X78105000Y-109855000D03*
%TO.P,U1,12*%
%TO.N,GPIO16_I2C-SCL*%
X55245000Y-102235000D03*
%TO.P,U1,25*%
%TO.N,N/C*%
X75565000Y-109855000D03*
%TO.P,U1,11*%
X57785000Y-102235000D03*
%TO.P,U1,24*%
X73025000Y-109855000D03*
%TO.P,U1,10*%
%TO.N,GND*%
X60325000Y-102235000D03*
%TO.P,U1,23*%
%TO.N,Switch3*%
X70485000Y-109855000D03*
%TO.P,U1,9*%
%TO.N,+3V3*%
X62865000Y-102235000D03*
%TO.P,U1,22*%
%TO.N,Switch2*%
X67945000Y-109855000D03*
%TO.P,U1,8*%
%TO.N,N/C*%
X65405000Y-102235000D03*
%TO.P,U1,21*%
%TO.N,Switch1*%
X65405000Y-109855000D03*
%TO.P,U1,7*%
%TO.N,N/C*%
X67945000Y-102235000D03*
%TO.P,U1,20*%
X62865000Y-109855000D03*
%TO.P,U1,6*%
X70485000Y-102235000D03*
%TO.P,U1,19*%
X60325000Y-109855000D03*
%TO.P,U1,5*%
%TO.N,FET2*%
X73025000Y-102235000D03*
%TO.P,U1,18*%
%TO.N,+3V3*%
X57785000Y-109855000D03*
%TO.P,U1,4*%
%TO.N,FET1*%
X75565000Y-102235000D03*
%TO.P,U1,17*%
%TO.N,GND*%
X55245000Y-109855000D03*
%TO.P,U1,3*%
%TO.N,Relay3*%
X78105000Y-102235000D03*
%TO.P,U1,16*%
%TO.N,GND*%
X52705000Y-109855000D03*
%TO.P,U1,2*%
%TO.N,Relay2*%
X80645000Y-102235000D03*
%TO.P,U1,15*%
%TO.N,GND*%
X50165000Y-109855000D03*
D11*
%TO.P,U1,1*%
%TO.N,Relay1*%
X83185000Y-102235000D03*
%TD*%
D18*
%TO.P,R29,2*%
%TO.N,Net-(D17-Pad2)*%
X57785000Y-74295000D03*
D10*
%TO.P,R29,1*%
%TO.N,+5V*%
X65405000Y-74295000D03*
%TD*%
D18*
%TO.P,R28,2*%
%TO.N,Relay3*%
X65405000Y-86995000D03*
D10*
%TO.P,R28,1*%
%TO.N,Net-(Q5-Pad2)*%
X65405000Y-79375000D03*
%TD*%
D18*
%TO.P,R8,2*%
%TO.N,GPIO33*%
X111125000Y-122555000D03*
D10*
%TO.P,R8,1*%
%TO.N,+3V3*%
X111125000Y-130175000D03*
%TD*%
D18*
%TO.P,R7,2*%
%TO.N,GPIO32*%
X111125000Y-149225000D03*
D10*
%TO.P,R7,1*%
%TO.N,+3V3*%
X111125000Y-141605000D03*
%TD*%
D18*
%TO.P,R27,2*%
%TO.N,GND*%
X66675000Y-114935000D03*
D10*
%TO.P,R27,1*%
%TO.N,Net-(Q4-Pad1)*%
X59055000Y-114935000D03*
%TD*%
D18*
%TO.P,R26,2*%
%TO.N,GND*%
X66675000Y-146685000D03*
D10*
%TO.P,R26,1*%
%TO.N,Net-(Q3-Pad1)*%
X59055000Y-146685000D03*
%TD*%
D18*
%TO.P,R25,2*%
%TO.N,FET2*%
X51435000Y-125095000D03*
D10*
%TO.P,R25,1*%
%TO.N,Net-(Q4-Pad1)*%
X43815000Y-125095000D03*
%TD*%
D18*
%TO.P,R24,2*%
%TO.N,FET1*%
X43815000Y-156845000D03*
D10*
%TO.P,R24,1*%
%TO.N,Net-(Q3-Pad1)*%
X51435000Y-156845000D03*
%TD*%
D18*
%TO.P,R19,2*%
%TO.N,Switch3*%
X38735000Y-55245000D03*
D10*
%TO.P,R19,1*%
%TO.N,Net-(J15-Pad1)*%
X31115000Y-55245000D03*
%TD*%
D18*
%TO.P,R20,2*%
%TO.N,Switch2*%
X46355000Y-71755000D03*
D10*
%TO.P,R20,1*%
%TO.N,Net-(J16-Pad1)*%
X38735000Y-71755000D03*
%TD*%
D18*
%TO.P,R23,2*%
%TO.N,Net-(D14-Pad2)*%
X51435000Y-121285000D03*
D10*
%TO.P,R23,1*%
%TO.N,FET2*%
X43815000Y-121285000D03*
%TD*%
D18*
%TO.P,R22,2*%
%TO.N,Net-(D13-Pad2)*%
X51435000Y-153035000D03*
D10*
%TO.P,R22,1*%
%TO.N,FET1*%
X43815000Y-153035000D03*
%TD*%
D33*
%TO.P,R18,2*%
%TO.N,Net-(OK3-Pad2)*%
X114935000Y-90805000D03*
D34*
%TO.P,R18,1*%
%TO.N,Net-(J12-Pad2)*%
X135255000Y-90805000D03*
%TD*%
D33*
%TO.P,R17,2*%
%TO.N,Net-(OK3-Pad1)*%
X114935000Y-97155000D03*
D34*
%TO.P,R17,1*%
%TO.N,Net-(J12-Pad1)*%
X135255000Y-97155000D03*
%TD*%
D18*
%TO.P,R12,2*%
%TO.N,Net-(D4-Pad2)*%
X76835000Y-67945000D03*
D10*
%TO.P,R12,1*%
%TO.N,+5V*%
X69215000Y-67945000D03*
%TD*%
D18*
%TO.P,R10,2*%
%TO.N,Relay2*%
X79375000Y-81915000D03*
D10*
%TO.P,R10,1*%
%TO.N,Net-(Q2-Pad2)*%
X79375000Y-74295000D03*
%TD*%
D18*
%TO.P,R6,2*%
%TO.N,GND*%
X133985000Y-173990000D03*
D10*
%TO.P,R6,1*%
%TO.N,Net-(C1-Pad1)*%
X133985000Y-166370000D03*
%TD*%
D18*
%TO.P,R9,2*%
%TO.N,Relay1*%
X94615000Y-74295000D03*
D10*
%TO.P,R9,1*%
%TO.N,Net-(Q1-Pad2)*%
X102235000Y-74295000D03*
%TD*%
D18*
%TO.P,R11,2*%
%TO.N,Net-(D3-Pad2)*%
X103505000Y-67945000D03*
D10*
%TO.P,R11,1*%
%TO.N,+5V*%
X95885000Y-67945000D03*
%TD*%
D33*
%TO.P,R15,2*%
%TO.N,Net-(OK2-Pad1)*%
X114935000Y-118745000D03*
D34*
%TO.P,R15,1*%
%TO.N,Net-(J11-Pad1)*%
X135255000Y-118745000D03*
%TD*%
D33*
%TO.P,R16,2*%
%TO.N,Net-(OK2-Pad2)*%
X114935000Y-112395000D03*
D34*
%TO.P,R16,1*%
%TO.N,Net-(J11-Pad2)*%
X135255000Y-112395000D03*
%TD*%
D33*
%TO.P,R13,2*%
%TO.N,Net-(OK1-Pad1)*%
X114935000Y-140335000D03*
D34*
%TO.P,R13,1*%
%TO.N,Net-(J10-Pad1)*%
X135255000Y-140335000D03*
%TD*%
D33*
%TO.P,R14,2*%
%TO.N,Net-(OK1-Pad2)*%
X114935000Y-133985000D03*
D34*
%TO.P,R14,1*%
%TO.N,Net-(J10-Pad2)*%
X135255000Y-133985000D03*
%TD*%
D18*
%TO.P,R5,2*%
%TO.N,Net-(C1-Pad1)*%
X95885000Y-154305000D03*
D10*
%TO.P,R5,1*%
%TO.N,+3V3*%
X88265000Y-154305000D03*
%TD*%
D18*
%TO.P,R4,2*%
%TO.N,GPIO16_I2C-SCL*%
X88265000Y-150495000D03*
D10*
%TO.P,R4,1*%
%TO.N,Net-(J5-Pad3)*%
X95885000Y-150495000D03*
%TD*%
D18*
%TO.P,R21,2*%
%TO.N,Switch1*%
X47625000Y-89535000D03*
D10*
%TO.P,R21,1*%
%TO.N,Net-(J17-Pad1)*%
X40005000Y-89535000D03*
%TD*%
D18*
%TO.P,R2,2*%
%TO.N,GPIO13_I2C-SDA*%
X88265000Y-146685000D03*
D10*
%TO.P,R2,1*%
%TO.N,Net-(J5-Pad3)*%
X95885000Y-146685000D03*
%TD*%
D18*
%TO.P,R1,2*%
%TO.N,Net-(J2-PadTN)*%
X130175000Y-173990000D03*
D10*
%TO.P,R1,1*%
%TO.N,Net-(J2-PadS)*%
X130175000Y-166370000D03*
%TD*%
D19*
%TO.P,Q5,1*%
%TO.N,Net-(D17-Pad1)*%
X57785000Y-79375000D03*
D20*
%TO.P,Q5,3*%
%TO.N,GND*%
X60325000Y-79375000D03*
%TO.P,Q5,2*%
%TO.N,Net-(Q5-Pad2)*%
X59055000Y-79375000D03*
%TD*%
D35*
%TO.P,Q4,3*%
%TO.N,GND*%
X55245000Y-135255000D03*
%TO.P,Q4,2*%
%TO.N,Net-(D16-Pad2)*%
X55245000Y-132715000D03*
D36*
%TO.P,Q4,1*%
%TO.N,Net-(Q4-Pad1)*%
X55245000Y-130175000D03*
%TD*%
D35*
%TO.P,Q3,3*%
%TO.N,GND*%
X57785000Y-165735000D03*
%TO.P,Q3,2*%
%TO.N,Net-(D15-Pad2)*%
X57785000Y-163195000D03*
D36*
%TO.P,Q3,1*%
%TO.N,Net-(Q3-Pad1)*%
X57785000Y-160655000D03*
%TD*%
D37*
%TO.P,Q1,1*%
%TO.N,Net-(D3-Pad1)*%
X107315000Y-73025000D03*
D38*
%TO.P,Q1,3*%
%TO.N,GND*%
X107315000Y-75565000D03*
%TO.P,Q1,2*%
%TO.N,Net-(Q1-Pad2)*%
X107315000Y-74295000D03*
%TD*%
D37*
%TO.P,Q2,1*%
%TO.N,Net-(D4-Pad1)*%
X84455000Y-73025000D03*
D38*
%TO.P,Q2,3*%
%TO.N,GND*%
X84455000Y-75565000D03*
%TO.P,Q2,2*%
%TO.N,Net-(Q2-Pad2)*%
X84455000Y-74295000D03*
%TD*%
D39*
%TO.P,PS1,4*%
%TO.N,+5V*%
X117435000Y-75120000D03*
%TO.P,PS1,2*%
%TO.N,230VAC-N*%
X122635000Y-45720000D03*
D40*
%TO.P,PS1,1*%
%TO.N,230VAC-L*%
X127635000Y-45720000D03*
D39*
%TO.P,PS1,3*%
%TO.N,GND*%
X132835000Y-75120000D03*
%TD*%
%TO.P,L1,1*%
%TO.N,Net-(J2-PadTN)*%
X115570000Y-169545000D03*
%TO.P,L1,2*%
%TO.N,Net-(J2-PadS)*%
X115570000Y-156845000D03*
%TD*%
D41*
%TO.P,K2,1*%
%TO.N,Net-(J14-Pad2)*%
X75565000Y-57785000D03*
D42*
%TO.P,K2,5*%
%TO.N,+5V*%
X69615000Y-55835000D03*
D41*
%TO.P,K2,4*%
%TO.N,Net-(J14-Pad3)*%
X69565000Y-43585000D03*
%TO.P,K2,3*%
%TO.N,Net-(J14-Pad1)*%
X81615000Y-43635000D03*
D42*
%TO.P,K2,2*%
%TO.N,Net-(D4-Pad1)*%
X81615000Y-55835000D03*
%TD*%
D41*
%TO.P,K1,1*%
%TO.N,Net-(J13-Pad2)*%
X106045000Y-57785000D03*
D42*
%TO.P,K1,5*%
%TO.N,+5V*%
X100095000Y-55835000D03*
D41*
%TO.P,K1,4*%
%TO.N,Net-(J13-Pad3)*%
X100045000Y-43585000D03*
%TO.P,K1,3*%
%TO.N,Net-(J13-Pad1)*%
X112095000Y-43635000D03*
D42*
%TO.P,K1,2*%
%TO.N,Net-(D3-Pad1)*%
X112095000Y-55835000D03*
%TD*%
%TA.AperFunction,SMDPad,CuDef*%
D43*
%TO.P,JP7,2*%
%TO.N,Net-(D16-Pad1)*%
G36*
X43785000Y-111874398D02*
G01*
X43760466Y-111874398D01*
X43711635Y-111869588D01*
X43663510Y-111860016D01*
X43616555Y-111845772D01*
X43571222Y-111826995D01*
X43527949Y-111803864D01*
X43487150Y-111776604D01*
X43449221Y-111745476D01*
X43414524Y-111710779D01*
X43383396Y-111672850D01*
X43356136Y-111632051D01*
X43333005Y-111588778D01*
X43314228Y-111543445D01*
X43299984Y-111496490D01*
X43290412Y-111448365D01*
X43285602Y-111399534D01*
X43285602Y-111375000D01*
X43285000Y-111375000D01*
X43285000Y-110875000D01*
X43285602Y-110875000D01*
X43285602Y-110850466D01*
X43290412Y-110801635D01*
X43299984Y-110753510D01*
X43314228Y-110706555D01*
X43333005Y-110661222D01*
X43356136Y-110617949D01*
X43383396Y-110577150D01*
X43414524Y-110539221D01*
X43449221Y-110504524D01*
X43487150Y-110473396D01*
X43527949Y-110446136D01*
X43571222Y-110423005D01*
X43616555Y-110404228D01*
X43663510Y-110389984D01*
X43711635Y-110380412D01*
X43760466Y-110375602D01*
X43785000Y-110375602D01*
X43785000Y-110375000D01*
X44285000Y-110375000D01*
X44285000Y-111875000D01*
X43785000Y-111875000D01*
X43785000Y-111874398D01*
G37*
%TD.AperFunction*%
%TA.AperFunction,SMDPad,CuDef*%
%TO.P,JP7,1*%
%TO.N,ExternalDCPower*%
G36*
X44585000Y-110375000D02*
G01*
X45085000Y-110375000D01*
X45085000Y-110375602D01*
X45109534Y-110375602D01*
X45158365Y-110380412D01*
X45206490Y-110389984D01*
X45253445Y-110404228D01*
X45298778Y-110423005D01*
X45342051Y-110446136D01*
X45382850Y-110473396D01*
X45420779Y-110504524D01*
X45455476Y-110539221D01*
X45486604Y-110577150D01*
X45513864Y-110617949D01*
X45536995Y-110661222D01*
X45555772Y-110706555D01*
X45570016Y-110753510D01*
X45579588Y-110801635D01*
X45584398Y-110850466D01*
X45584398Y-110875000D01*
X45585000Y-110875000D01*
X45585000Y-111375000D01*
X45584398Y-111375000D01*
X45584398Y-111399534D01*
X45579588Y-111448365D01*
X45570016Y-111496490D01*
X45555772Y-111543445D01*
X45536995Y-111588778D01*
X45513864Y-111632051D01*
X45486604Y-111672850D01*
X45455476Y-111710779D01*
X45420779Y-111745476D01*
X45382850Y-111776604D01*
X45342051Y-111803864D01*
X45298778Y-111826995D01*
X45253445Y-111845772D01*
X45206490Y-111860016D01*
X45158365Y-111869588D01*
X45109534Y-111874398D01*
X45085000Y-111874398D01*
X45085000Y-111875000D01*
X44585000Y-111875000D01*
X44585000Y-110375000D01*
G37*
%TD.AperFunction*%
%TD*%
%TA.AperFunction,SMDPad,CuDef*%
%TO.P,JP6,2*%
%TO.N,Net-(D15-Pad1)*%
G36*
X43815000Y-143624398D02*
G01*
X43790466Y-143624398D01*
X43741635Y-143619588D01*
X43693510Y-143610016D01*
X43646555Y-143595772D01*
X43601222Y-143576995D01*
X43557949Y-143553864D01*
X43517150Y-143526604D01*
X43479221Y-143495476D01*
X43444524Y-143460779D01*
X43413396Y-143422850D01*
X43386136Y-143382051D01*
X43363005Y-143338778D01*
X43344228Y-143293445D01*
X43329984Y-143246490D01*
X43320412Y-143198365D01*
X43315602Y-143149534D01*
X43315602Y-143125000D01*
X43315000Y-143125000D01*
X43315000Y-142625000D01*
X43315602Y-142625000D01*
X43315602Y-142600466D01*
X43320412Y-142551635D01*
X43329984Y-142503510D01*
X43344228Y-142456555D01*
X43363005Y-142411222D01*
X43386136Y-142367949D01*
X43413396Y-142327150D01*
X43444524Y-142289221D01*
X43479221Y-142254524D01*
X43517150Y-142223396D01*
X43557949Y-142196136D01*
X43601222Y-142173005D01*
X43646555Y-142154228D01*
X43693510Y-142139984D01*
X43741635Y-142130412D01*
X43790466Y-142125602D01*
X43815000Y-142125602D01*
X43815000Y-142125000D01*
X44315000Y-142125000D01*
X44315000Y-143625000D01*
X43815000Y-143625000D01*
X43815000Y-143624398D01*
G37*
%TD.AperFunction*%
%TA.AperFunction,SMDPad,CuDef*%
%TO.P,JP6,1*%
%TO.N,ExternalDCPower*%
G36*
X44615000Y-142125000D02*
G01*
X45115000Y-142125000D01*
X45115000Y-142125602D01*
X45139534Y-142125602D01*
X45188365Y-142130412D01*
X45236490Y-142139984D01*
X45283445Y-142154228D01*
X45328778Y-142173005D01*
X45372051Y-142196136D01*
X45412850Y-142223396D01*
X45450779Y-142254524D01*
X45485476Y-142289221D01*
X45516604Y-142327150D01*
X45543864Y-142367949D01*
X45566995Y-142411222D01*
X45585772Y-142456555D01*
X45600016Y-142503510D01*
X45609588Y-142551635D01*
X45614398Y-142600466D01*
X45614398Y-142625000D01*
X45615000Y-142625000D01*
X45615000Y-143125000D01*
X45614398Y-143125000D01*
X45614398Y-143149534D01*
X45609588Y-143198365D01*
X45600016Y-143246490D01*
X45585772Y-143293445D01*
X45566995Y-143338778D01*
X45543864Y-143382051D01*
X45516604Y-143422850D01*
X45485476Y-143460779D01*
X45450779Y-143495476D01*
X45412850Y-143526604D01*
X45372051Y-143553864D01*
X45328778Y-143576995D01*
X45283445Y-143595772D01*
X45236490Y-143610016D01*
X45188365Y-143619588D01*
X45139534Y-143624398D01*
X45115000Y-143624398D01*
X45115000Y-143625000D01*
X44615000Y-143625000D01*
X44615000Y-142125000D01*
G37*
%TD.AperFunction*%
%TD*%
D12*
%TO.P,J24,3*%
%TO.N,Net-(J24-Pad3)*%
X43815000Y-33655000D03*
%TO.P,J24,2*%
%TO.N,Net-(J24-Pad2)*%
X48895000Y-33655000D03*
%TO.P,J24,1*%
%TO.N,Net-(J24-Pad1)*%
%TA.AperFunction,ComponentPad*%
G36*
G01*
X55015000Y-32104997D02*
X55015000Y-35205003D01*
G75*
G02*
X54765003Y-35455000I-249997J0D01*
G01*
X53184997Y-35455000D01*
G75*
G02*
X52935000Y-35205003I0J249997D01*
G01*
X52935000Y-32104997D01*
G75*
G02*
X53184997Y-31855000I249997J0D01*
G01*
X54765003Y-31855000D01*
G75*
G02*
X55015000Y-32104997I0J-249997D01*
G01*
G37*
%TD.AperFunction*%
%TD*%
%TO.P,J23,3*%
%TO.N,Net-(J23-Pad3)*%
X70485000Y-33655000D03*
%TO.P,J23,2*%
%TO.N,Net-(J23-Pad2)*%
X75565000Y-33655000D03*
%TO.P,J23,1*%
%TO.N,Net-(J23-Pad1)*%
%TA.AperFunction,ComponentPad*%
G36*
G01*
X81685000Y-32104997D02*
X81685000Y-35205003D01*
G75*
G02*
X81435003Y-35455000I-249997J0D01*
G01*
X79854997Y-35455000D01*
G75*
G02*
X79605000Y-35205003I0J249997D01*
G01*
X79605000Y-32104997D01*
G75*
G02*
X79854997Y-31855000I249997J0D01*
G01*
X81435003Y-31855000D01*
G75*
G02*
X81685000Y-32104997I0J-249997D01*
G01*
G37*
%TD.AperFunction*%
%TD*%
D27*
%TO.P,J22,2*%
%TO.N,GND*%
X60325000Y-84455000D03*
D28*
%TO.P,J22,1*%
%TO.N,Net-(D17-Pad1)*%
X57785000Y-84455000D03*
%TD*%
D12*
%TO.P,J27,2*%
%TO.N,GND*%
X45720000Y-173355000D03*
%TO.P,J27,1*%
%TO.N,ExternalDCPower*%
%TA.AperFunction,ComponentPad*%
G36*
G01*
X39600000Y-174905003D02*
X39600000Y-171804997D01*
G75*
G02*
X39849997Y-171555000I249997J0D01*
G01*
X41430003Y-171555000D01*
G75*
G02*
X41680000Y-171804997I0J-249997D01*
G01*
X41680000Y-174905003D01*
G75*
G02*
X41430003Y-175155000I-249997J0D01*
G01*
X39849997Y-175155000D01*
G75*
G02*
X39600000Y-174905003I0J249997D01*
G01*
G37*
%TD.AperFunction*%
%TD*%
%TO.P,J26,2*%
%TO.N,GND*%
X67310000Y-173355000D03*
%TO.P,J26,1*%
%TO.N,+5V*%
%TA.AperFunction,ComponentPad*%
G36*
G01*
X61190000Y-174905003D02*
X61190000Y-171804997D01*
G75*
G02*
X61439997Y-171555000I249997J0D01*
G01*
X63020003Y-171555000D01*
G75*
G02*
X63270000Y-171804997I0J-249997D01*
G01*
X63270000Y-174905003D01*
G75*
G02*
X63020003Y-175155000I-249997J0D01*
G01*
X61439997Y-175155000D01*
G75*
G02*
X61190000Y-174905003I0J249997D01*
G01*
G37*
%TD.AperFunction*%
%TD*%
D44*
%TO.P,J25,2*%
%TO.N,230VAC-L*%
X140335000Y-57785000D03*
%TO.P,J25,1*%
%TO.N,230VAC-N*%
%TA.AperFunction,ComponentPad*%
G36*
G01*
X141885003Y-63905000D02*
X138784997Y-63905000D01*
G75*
G02*
X138535000Y-63655003I0J249997D01*
G01*
X138535000Y-62074997D01*
G75*
G02*
X138784997Y-61825000I249997J0D01*
G01*
X141885003Y-61825000D01*
G75*
G02*
X142135000Y-62074997I0J-249997D01*
G01*
X142135000Y-63655003D01*
G75*
G02*
X141885003Y-63905000I-249997J0D01*
G01*
G37*
%TD.AperFunction*%
%TD*%
%TO.P,J21,4*%
%TO.N,GND*%
X38735000Y-130175000D03*
%TO.P,J21,3*%
%TO.N,Net-(D16-Pad2)*%
X38735000Y-125095000D03*
%TO.P,J21,2*%
%TO.N,Net-(D16-Pad1)*%
X38735000Y-120015000D03*
%TO.P,J21,1*%
%TA.AperFunction,ComponentPad*%
G36*
G01*
X37184997Y-113895000D02*
X40285003Y-113895000D01*
G75*
G02*
X40535000Y-114144997I0J-249997D01*
G01*
X40535000Y-115725003D01*
G75*
G02*
X40285003Y-115975000I-249997J0D01*
G01*
X37184997Y-115975000D01*
G75*
G02*
X36935000Y-115725003I0J249997D01*
G01*
X36935000Y-114144997D01*
G75*
G02*
X37184997Y-113895000I249997J0D01*
G01*
G37*
%TD.AperFunction*%
%TD*%
%TO.P,J20,4*%
%TO.N,GND*%
X38735000Y-161925000D03*
%TO.P,J20,3*%
%TO.N,Net-(D15-Pad2)*%
X38735000Y-156845000D03*
%TO.P,J20,2*%
%TO.N,Net-(D15-Pad1)*%
X38735000Y-151765000D03*
%TO.P,J20,1*%
%TA.AperFunction,ComponentPad*%
G36*
G01*
X37184997Y-145645000D02*
X40285003Y-145645000D01*
G75*
G02*
X40535000Y-145894997I0J-249997D01*
G01*
X40535000Y-147475003D01*
G75*
G02*
X40285003Y-147725000I-249997J0D01*
G01*
X37184997Y-147725000D01*
G75*
G02*
X36935000Y-147475003I0J249997D01*
G01*
X36935000Y-145894997D01*
G75*
G02*
X37184997Y-145645000I249997J0D01*
G01*
G37*
%TD.AperFunction*%
%TD*%
D27*
%TO.P,J19,2*%
%TO.N,GND*%
X45085000Y-135255000D03*
D28*
%TO.P,J19,1*%
%TO.N,Net-(D16-Pad2)*%
X45085000Y-132715000D03*
%TD*%
D27*
%TO.P,J8,2*%
%TO.N,GND*%
X112395000Y-75565000D03*
D28*
%TO.P,J8,1*%
%TO.N,Net-(D3-Pad1)*%
X112395000Y-73025000D03*
%TD*%
D27*
%TO.P,J18,2*%
%TO.N,GND*%
X53975000Y-165735000D03*
D28*
%TO.P,J18,1*%
%TO.N,Net-(D15-Pad2)*%
X53975000Y-163195000D03*
%TD*%
D44*
%TO.P,J11,2*%
%TO.N,Net-(J11-Pad2)*%
X140335000Y-113665000D03*
%TO.P,J11,1*%
%TO.N,Net-(J11-Pad1)*%
%TA.AperFunction,ComponentPad*%
G36*
G01*
X141885003Y-119785000D02*
X138784997Y-119785000D01*
G75*
G02*
X138535000Y-119535003I0J249997D01*
G01*
X138535000Y-117954997D01*
G75*
G02*
X138784997Y-117705000I249997J0D01*
G01*
X141885003Y-117705000D01*
G75*
G02*
X142135000Y-117954997I0J-249997D01*
G01*
X142135000Y-119535003D01*
G75*
G02*
X141885003Y-119785000I-249997J0D01*
G01*
G37*
%TD.AperFunction*%
%TD*%
%TO.P,J10,2*%
%TO.N,Net-(J10-Pad2)*%
X140335000Y-135255000D03*
%TO.P,J10,1*%
%TO.N,Net-(J10-Pad1)*%
%TA.AperFunction,ComponentPad*%
G36*
G01*
X141885003Y-141375000D02*
X138784997Y-141375000D01*
G75*
G02*
X138535000Y-141125003I0J249997D01*
G01*
X138535000Y-139544997D01*
G75*
G02*
X138784997Y-139295000I249997J0D01*
G01*
X141885003Y-139295000D01*
G75*
G02*
X142135000Y-139544997I0J-249997D01*
G01*
X142135000Y-141125003D01*
G75*
G02*
X141885003Y-141375000I-249997J0D01*
G01*
G37*
%TD.AperFunction*%
%TD*%
D12*
%TO.P,J14,3*%
%TO.N,Net-(J14-Pad3)*%
X97155000Y-33655000D03*
%TO.P,J14,2*%
%TO.N,Net-(J14-Pad2)*%
X102235000Y-33655000D03*
%TO.P,J14,1*%
%TO.N,Net-(J14-Pad1)*%
%TA.AperFunction,ComponentPad*%
G36*
G01*
X108355000Y-32104997D02*
X108355000Y-35205003D01*
G75*
G02*
X108105003Y-35455000I-249997J0D01*
G01*
X106524997Y-35455000D01*
G75*
G02*
X106275000Y-35205003I0J249997D01*
G01*
X106275000Y-32104997D01*
G75*
G02*
X106524997Y-31855000I249997J0D01*
G01*
X108105003Y-31855000D01*
G75*
G02*
X108355000Y-32104997I0J-249997D01*
G01*
G37*
%TD.AperFunction*%
%TD*%
D44*
%TO.P,J12,2*%
%TO.N,Net-(J12-Pad2)*%
X140335000Y-92075000D03*
%TO.P,J12,1*%
%TO.N,Net-(J12-Pad1)*%
%TA.AperFunction,ComponentPad*%
G36*
G01*
X141885003Y-98195000D02*
X138784997Y-98195000D01*
G75*
G02*
X138535000Y-97945003I0J249997D01*
G01*
X138535000Y-96364997D01*
G75*
G02*
X138784997Y-96115000I249997J0D01*
G01*
X141885003Y-96115000D01*
G75*
G02*
X142135000Y-96364997I0J-249997D01*
G01*
X142135000Y-97945003D01*
G75*
G02*
X141885003Y-98195000I-249997J0D01*
G01*
G37*
%TD.AperFunction*%
%TD*%
D27*
%TO.P,J9,2*%
%TO.N,GND*%
X89535000Y-75565000D03*
D28*
%TO.P,J9,1*%
%TO.N,Net-(D4-Pad1)*%
X89535000Y-73025000D03*
%TD*%
D44*
%TO.P,J1,2*%
%TO.N,Net-(J1-Pad2)*%
X140335000Y-156845000D03*
%TO.P,J1,1*%
%TO.N,Net-(J1-Pad1)*%
%TA.AperFunction,ComponentPad*%
G36*
G01*
X141885003Y-162965000D02*
X138784997Y-162965000D01*
G75*
G02*
X138535000Y-162715003I0J249997D01*
G01*
X138535000Y-161134997D01*
G75*
G02*
X138784997Y-160885000I249997J0D01*
G01*
X141885003Y-160885000D01*
G75*
G02*
X142135000Y-161134997I0J-249997D01*
G01*
X142135000Y-162715003D01*
G75*
G02*
X141885003Y-162965000I-249997J0D01*
G01*
G37*
%TD.AperFunction*%
%TD*%
D27*
%TO.P,J7,10*%
%TO.N,GPIO13_I2C-SDA*%
X79375000Y-125095000D03*
%TO.P,J7,9*%
%TO.N,N/C*%
X79375000Y-127635000D03*
%TO.P,J7,8*%
%TO.N,GPIO15_HS2_CMD*%
X79375000Y-130175000D03*
%TO.P,J7,7*%
%TO.N,GPIO16_I2C-SCL*%
X79375000Y-132715000D03*
%TO.P,J7,6*%
%TO.N,GPIO32*%
X79375000Y-135255000D03*
%TO.P,J7,5*%
%TO.N,GPIO33*%
X79375000Y-137795000D03*
%TO.P,J7,4*%
%TO.N,N/C*%
X79375000Y-140335000D03*
%TO.P,J7,3*%
%TO.N,GPI35*%
X79375000Y-142875000D03*
%TO.P,J7,2*%
%TO.N,GPI36_U1RXD*%
X79375000Y-145415000D03*
D28*
%TO.P,J7,1*%
%TO.N,N/C*%
X79375000Y-147955000D03*
%TD*%
D27*
%TO.P,J4,10*%
%TO.N,N/C*%
X104775000Y-125095000D03*
%TO.P,J4,9*%
X104775000Y-127635000D03*
%TO.P,J4,8*%
X104775000Y-130175000D03*
%TO.P,J4,7*%
X104775000Y-132715000D03*
%TO.P,J4,6*%
X104775000Y-135255000D03*
%TO.P,J4,5*%
X104775000Y-137795000D03*
%TO.P,J4,4*%
X104775000Y-140335000D03*
%TO.P,J4,3*%
%TO.N,GND*%
X104775000Y-142875000D03*
%TO.P,J4,2*%
%TO.N,+3V3*%
X104775000Y-145415000D03*
D28*
%TO.P,J4,1*%
%TO.N,+5V*%
X104775000Y-147955000D03*
%TD*%
D45*
%TO.P,D18,2*%
%TO.N,Net-(D17-Pad1)*%
X55245000Y-70485000D03*
D30*
%TO.P,D18,1*%
%TO.N,+5V*%
X65405000Y-70485000D03*
%TD*%
D18*
%TO.P,D12,2*%
%TO.N,GND*%
X46355000Y-62865000D03*
D11*
%TO.P,D12,1*%
%TO.N,Switch3*%
X38735000Y-62865000D03*
%TD*%
D18*
%TO.P,D11,2*%
%TO.N,Switch3*%
X38735000Y-59055000D03*
D11*
%TO.P,D11,1*%
%TO.N,+3V3*%
X46355000Y-59055000D03*
%TD*%
D18*
%TO.P,D10,2*%
%TO.N,GND*%
X46355000Y-80645000D03*
D11*
%TO.P,D10,1*%
%TO.N,Switch2*%
X38735000Y-80645000D03*
%TD*%
D18*
%TO.P,D9,2*%
%TO.N,Switch2*%
X38735000Y-76835000D03*
D11*
%TO.P,D9,1*%
%TO.N,+3V3*%
X46355000Y-76835000D03*
%TD*%
D18*
%TO.P,D8,2*%
%TO.N,GND*%
X47625000Y-98425000D03*
D11*
%TO.P,D8,1*%
%TO.N,Switch1*%
X40005000Y-98425000D03*
%TD*%
D18*
%TO.P,D7,2*%
%TO.N,Switch1*%
X40005000Y-94615000D03*
D11*
%TO.P,D7,1*%
%TO.N,+3V3*%
X47625000Y-94615000D03*
%TD*%
D18*
%TO.P,D2,2*%
%TO.N,GND*%
X95885000Y-139065000D03*
D11*
%TO.P,D2,1*%
%TO.N,Net-(D1-Pad2)*%
X88265000Y-139065000D03*
%TD*%
D18*
%TO.P,D1,2*%
%TO.N,Net-(D1-Pad2)*%
X88265000Y-142875000D03*
D11*
%TO.P,D1,1*%
%TO.N,+3V3*%
X95885000Y-142875000D03*
%TD*%
D45*
%TO.P,D16,2*%
%TO.N,Net-(D16-Pad2)*%
X53975000Y-114935000D03*
D30*
%TO.P,D16,1*%
%TO.N,Net-(D16-Pad1)*%
X43815000Y-114935000D03*
%TD*%
D45*
%TO.P,D15,2*%
%TO.N,Net-(D15-Pad2)*%
X53975000Y-146685000D03*
D30*
%TO.P,D15,1*%
%TO.N,Net-(D15-Pad1)*%
X43815000Y-146685000D03*
%TD*%
D22*
%TO.P,D14,2*%
%TO.N,Net-(D14-Pad2)*%
X59055000Y-120015000D03*
D23*
%TO.P,D14,1*%
%TO.N,GND*%
X61595000Y-120015000D03*
%TD*%
D22*
%TO.P,D13,2*%
%TO.N,Net-(D13-Pad2)*%
X59055000Y-151765000D03*
D23*
%TO.P,D13,1*%
%TO.N,GND*%
X61595000Y-151765000D03*
%TD*%
D45*
%TO.P,D6,2*%
%TO.N,Net-(D4-Pad1)*%
X79375000Y-62865000D03*
D30*
%TO.P,D6,1*%
%TO.N,+5V*%
X69215000Y-62865000D03*
%TD*%
D22*
%TO.P,D3,2*%
%TO.N,Net-(D3-Pad2)*%
X109855000Y-67945000D03*
D23*
%TO.P,D3,1*%
%TO.N,Net-(D3-Pad1)*%
X112395000Y-67945000D03*
%TD*%
D22*
%TO.P,D4,2*%
%TO.N,Net-(D4-Pad2)*%
X83185000Y-67945000D03*
D23*
%TO.P,D4,1*%
%TO.N,Net-(D4-Pad1)*%
X85725000Y-67945000D03*
%TD*%
D45*
%TO.P,D5,2*%
%TO.N,Net-(D3-Pad1)*%
X106045000Y-62865000D03*
D30*
%TO.P,D5,1*%
%TO.N,+5V*%
X95885000Y-62865000D03*
%TD*%
D10*
%TO.P,C9,2*%
%TO.N,GND*%
X74215000Y-74295000D03*
%TO.P,C9,1*%
%TO.N,+5V*%
X69215000Y-74295000D03*
%TD*%
%TO.P,C8,2*%
%TO.N,GND*%
X140335000Y-78065000D03*
D11*
%TO.P,C8,1*%
%TO.N,+5V*%
X140335000Y-75565000D03*
%TD*%
D10*
%TO.P,C3,2*%
%TO.N,GND*%
X132715000Y-125135000D03*
D11*
%TO.P,C3,1*%
%TO.N,GPIO33*%
X132715000Y-127635000D03*
%TD*%
D10*
%TO.P,C2,2*%
%TO.N,GND*%
X132715000Y-146725000D03*
D11*
%TO.P,C2,1*%
%TO.N,GPIO32*%
X132715000Y-149225000D03*
%TD*%
D10*
%TO.P,C5,2*%
%TO.N,GND*%
X43735000Y-66675000D03*
%TO.P,C5,1*%
%TO.N,Switch3*%
X38735000Y-66675000D03*
%TD*%
%TO.P,C6,2*%
%TO.N,GND*%
X43735000Y-84455000D03*
%TO.P,C6,1*%
%TO.N,Switch2*%
X38735000Y-84455000D03*
%TD*%
%TO.P,C1,2*%
%TO.N,GND*%
X112355000Y-104775000D03*
D11*
%TO.P,C1,1*%
%TO.N,Net-(C1-Pad1)*%
X109855000Y-104775000D03*
%TD*%
D10*
%TO.P,C7,2*%
%TO.N,GND*%
X45005000Y-102235000D03*
%TO.P,C7,1*%
%TO.N,Switch1*%
X40005000Y-102235000D03*
%TD*%
D46*
%TO.N,GND*%
X117475000Y-102315000D02*
X117475000Y-103505000D01*
X118785000Y-101005000D02*
X117475000Y-102315000D01*
X112355000Y-101005000D02*
X118785000Y-101005000D01*
X117475000Y-125095000D02*
X117475000Y-123825000D01*
X117475000Y-123825000D02*
X118745000Y-122555000D01*
X130135000Y-122555000D02*
X132715000Y-125135000D01*
X118745000Y-122555000D02*
X130135000Y-122555000D01*
D47*
X84455000Y-75565000D02*
X89535000Y-75565000D01*
D46*
X111125000Y-76835000D02*
X112395000Y-75565000D01*
D47*
X107315000Y-75565000D02*
X112395000Y-75565000D01*
D46*
X71795000Y-76715000D02*
X74215000Y-74295000D01*
X43815000Y-62865000D02*
X43735000Y-62945000D01*
X46355000Y-62865000D02*
X43815000Y-62865000D01*
X43735000Y-66675000D02*
X43735000Y-62945000D01*
X32385000Y-76835000D02*
X32385000Y-74295000D01*
X28575000Y-76835000D02*
X32385000Y-76835000D01*
X28344999Y-76604999D02*
X28575000Y-76835000D01*
X28344999Y-68175001D02*
X28344999Y-76604999D01*
X32385000Y-64135000D02*
X28344999Y-68175001D01*
D47*
X60325000Y-79375000D02*
X60325000Y-84455000D01*
D46*
X64135000Y-83185000D02*
X71795000Y-83185000D01*
X62865000Y-84455000D02*
X64135000Y-83185000D01*
X60325000Y-84455000D02*
X62865000Y-84455000D01*
X111125000Y-78105000D02*
X99695000Y-78105000D01*
X111125000Y-78105000D02*
X111125000Y-76835000D01*
X99695000Y-78105000D02*
X99695000Y-71755000D01*
X99695000Y-71755000D02*
X93345000Y-71755000D01*
X93345000Y-71755000D02*
X92075000Y-73025000D01*
X92075000Y-73025000D02*
X92075000Y-74295000D01*
X90805000Y-75565000D02*
X89535000Y-75565000D01*
X92075000Y-74295000D02*
X90805000Y-75565000D01*
X71795000Y-78065000D02*
X88225000Y-78065000D01*
X71795000Y-83185000D02*
X71795000Y-78065000D01*
X89535000Y-76755000D02*
X89535000Y-75565000D01*
X88225000Y-78065000D02*
X89535000Y-76755000D01*
X32385000Y-86995000D02*
X32385000Y-84455000D01*
X28575000Y-86995000D02*
X32385000Y-86995000D01*
X28344999Y-86764999D02*
X28575000Y-86995000D01*
X28344999Y-76604999D02*
X28344999Y-86764999D01*
X32385000Y-86995000D02*
X43815000Y-86995000D01*
X43815000Y-84535000D02*
X43735000Y-84455000D01*
X43815000Y-86995000D02*
X43815000Y-84535000D01*
X43735000Y-84455000D02*
X43735000Y-80725000D01*
X43815000Y-80645000D02*
X46355000Y-80645000D01*
X43735000Y-80725000D02*
X43815000Y-80645000D01*
X45005000Y-102235000D02*
X45005000Y-98505000D01*
X45085000Y-98425000D02*
X47625000Y-98425000D01*
X45005000Y-98505000D02*
X45085000Y-98425000D01*
X38735000Y-130175000D02*
X38735000Y-132715000D01*
X41275000Y-135255000D02*
X45085000Y-135255000D01*
X38735000Y-132715000D02*
X41275000Y-135255000D01*
X45085000Y-135255000D02*
X55245000Y-135255000D01*
D47*
X45085000Y-102235000D02*
X50165000Y-107315000D01*
X50165000Y-107315000D02*
X50165000Y-109855000D01*
X45005000Y-102235000D02*
X45085000Y-102235000D01*
X55245000Y-109855000D02*
X55245000Y-111125000D01*
X55245000Y-111125000D02*
X56515000Y-112395000D01*
X56515000Y-112395000D02*
X60325000Y-112395000D01*
X60325000Y-112395000D02*
X61595000Y-113665000D01*
X61595000Y-114935000D02*
X66675000Y-114935000D01*
X61595000Y-113665000D02*
X61595000Y-114935000D01*
X61595000Y-114935000D02*
X61595000Y-120015000D01*
X34925000Y-99695000D02*
X32385000Y-99695000D01*
X36195000Y-98425000D02*
X34925000Y-99695000D01*
X36195000Y-93345000D02*
X36195000Y-98425000D01*
X41275000Y-92075000D02*
X37465000Y-92075000D01*
X37465000Y-92075000D02*
X36195000Y-93345000D01*
X43815000Y-89535000D02*
X41275000Y-92075000D01*
X43815000Y-86995000D02*
X43815000Y-89535000D01*
X36195000Y-98425000D02*
X36195000Y-103505000D01*
X36195000Y-103505000D02*
X37465000Y-104775000D01*
X42465000Y-104775000D02*
X45005000Y-102235000D01*
X37465000Y-104775000D02*
X42465000Y-104775000D01*
D46*
X130175000Y-144185000D02*
X132715000Y-146725000D01*
X130175000Y-144145000D02*
X130175000Y-144185000D01*
D47*
X117475000Y-146685000D02*
X111125000Y-146685000D01*
X111125000Y-146685000D02*
X107315000Y-142875000D01*
X95885000Y-139065000D02*
X97155000Y-139065000D01*
X100965000Y-142875000D02*
X106045000Y-142875000D01*
X97155000Y-139065000D02*
X100965000Y-142875000D01*
X106045000Y-142875000D02*
X104775000Y-142875000D01*
X107315000Y-142875000D02*
X106045000Y-142875000D01*
D46*
X53975000Y-165735000D02*
X57785000Y-165735000D01*
X57785000Y-165735000D02*
X61595000Y-165735000D01*
X61595000Y-151765000D02*
X61595000Y-165735000D01*
X66675000Y-149225000D02*
X66675000Y-146685000D01*
X64135000Y-151765000D02*
X66675000Y-149225000D01*
X61595000Y-151765000D02*
X64135000Y-151765000D01*
D47*
X55245000Y-109855000D02*
X52705000Y-109855000D01*
X52705000Y-109855000D02*
X50165000Y-109855000D01*
D46*
X67310000Y-167640000D02*
X67310000Y-173355000D01*
X65405000Y-165735000D02*
X67310000Y-167640000D01*
X61595000Y-165735000D02*
X65405000Y-165735000D01*
X53975000Y-168275000D02*
X53975000Y-165735000D01*
X48895000Y-173355000D02*
X53975000Y-168275000D01*
X45720000Y-173355000D02*
X48895000Y-173355000D01*
X45720000Y-167640000D02*
X45720000Y-173355000D01*
X40005000Y-161925000D02*
X45720000Y-167640000D01*
X38735000Y-161925000D02*
X40005000Y-161925000D01*
X36195000Y-52705000D02*
X36195000Y-64135000D01*
X39687500Y-52705000D02*
X36195000Y-52705000D01*
X36195000Y-64135000D02*
X32385000Y-64135000D01*
X41910000Y-54927500D02*
X39687500Y-52705000D01*
X41910000Y-56515000D02*
X41910000Y-54927500D01*
X43735000Y-58340000D02*
X41910000Y-56515000D01*
X43735000Y-62945000D02*
X43735000Y-58340000D01*
X121146370Y-144145000D02*
X130175000Y-144145000D01*
X117475000Y-146685000D02*
X118606370Y-146685000D01*
X118606370Y-146685000D02*
X121146370Y-144145000D01*
X71795000Y-78065000D02*
X71795000Y-76715000D01*
X112355000Y-94615000D02*
X112355000Y-104775000D01*
X112355000Y-89495000D02*
X112355000Y-94615000D01*
X111125000Y-88265000D02*
X112355000Y-89495000D01*
X132835000Y-75120000D02*
X135947000Y-78232000D01*
X140168000Y-78232000D02*
X140335000Y-78065000D01*
X135947000Y-78232000D02*
X140168000Y-78232000D01*
X111628000Y-84831000D02*
X111125000Y-84328000D01*
X116586000Y-84831000D02*
X111628000Y-84831000D01*
X111125000Y-84328000D02*
X111125000Y-88265000D01*
X111125000Y-78105000D02*
X111125000Y-84328000D01*
D47*
X60325000Y-103505000D02*
X60325000Y-102235000D01*
X55245000Y-108585000D02*
X60325000Y-103505000D01*
X55245000Y-109855000D02*
X55245000Y-108585000D01*
D46*
X128905000Y-78105000D02*
X131890000Y-75120000D01*
X131890000Y-75120000D02*
X132835000Y-75120000D01*
X128905000Y-100330000D02*
X128905000Y-78105000D01*
X129580000Y-101005000D02*
X128905000Y-100330000D01*
X129540000Y-101005000D02*
X132080000Y-103545000D01*
X118785000Y-101005000D02*
X129540000Y-101005000D01*
X133985000Y-173355000D02*
X133985000Y-180975000D01*
%TO.N,Switch1*%
X40005000Y-94615000D02*
X40005000Y-98425000D01*
X40005000Y-98425000D02*
X40005000Y-102235000D01*
X46355000Y-90805000D02*
X47625000Y-89535000D01*
X42545000Y-94615000D02*
X46355000Y-90805000D01*
X40005000Y-94615000D02*
X42545000Y-94615000D01*
D47*
%TO.N,Switch2*%
X38735000Y-75565000D02*
X38735000Y-76835000D01*
X42545000Y-71755000D02*
X38735000Y-75565000D01*
X46355000Y-71755000D02*
X42545000Y-71755000D01*
X38735000Y-76835000D02*
X38735000Y-80645000D01*
X38735000Y-80645000D02*
X38735000Y-84455000D01*
%TO.N,Switch3*%
X38735000Y-55245000D02*
X38735000Y-59055000D01*
X38735000Y-59055000D02*
X38735000Y-62865000D01*
X38735000Y-62865000D02*
X38735000Y-66675000D01*
D46*
%TO.N,GPIO32*%
X111125000Y-149225000D02*
X117475000Y-149225000D01*
X130175000Y-151765000D02*
X132715000Y-149225000D01*
X121285000Y-151765000D02*
X130175000Y-151765000D01*
X118745000Y-149225000D02*
X121285000Y-151765000D01*
X117475000Y-149225000D02*
X118745000Y-149225000D01*
%TO.N,GPIO33*%
X111125000Y-125095000D02*
X111125000Y-122555000D01*
X113665000Y-127635000D02*
X111125000Y-125095000D01*
X117475000Y-127635000D02*
X113665000Y-127635000D01*
X78740000Y-137795000D02*
X79375000Y-137795000D01*
X76454000Y-122936000D02*
X76454000Y-135509000D01*
X79375000Y-120015000D02*
X76454000Y-122936000D01*
X108585000Y-120015000D02*
X79375000Y-120015000D01*
X76454000Y-135509000D02*
X78740000Y-137795000D01*
X111125000Y-122555000D02*
X108585000Y-120015000D01*
X130175000Y-130175000D02*
X132715000Y-127635000D01*
X120015000Y-130175000D02*
X130175000Y-130175000D01*
X117475000Y-127635000D02*
X120015000Y-130175000D01*
D47*
%TO.N,GPI36_U1RXD*%
X111125000Y-109855000D02*
X113665000Y-109855000D01*
X103505000Y-117475000D02*
X111125000Y-109855000D01*
X78105000Y-117475000D02*
X103505000Y-117475000D01*
X72453500Y-135001000D02*
X72453500Y-123126500D01*
X69977000Y-137477500D02*
X72453500Y-135001000D01*
X113665000Y-109855000D02*
X117475000Y-106045000D01*
X72453500Y-123126500D02*
X78105000Y-117475000D01*
X69977000Y-140716000D02*
X69977000Y-137477500D01*
X74676000Y-145415000D02*
X69977000Y-140716000D01*
X79375000Y-145415000D02*
X74676000Y-145415000D01*
D46*
X128905000Y-109220000D02*
X132080000Y-106045000D01*
X117475000Y-107315000D02*
X119380000Y-109220000D01*
X119380000Y-109220000D02*
X128905000Y-109220000D01*
X117475000Y-106045000D02*
X117475000Y-107315000D01*
%TO.N,+5V*%
X95885000Y-60045000D02*
X100095000Y-55835000D01*
X95885000Y-62865000D02*
X95885000Y-60045000D01*
X95885000Y-67945000D02*
X95885000Y-62865000D01*
X100095000Y-55835000D02*
X100095000Y-53575000D01*
X69215000Y-56235000D02*
X69615000Y-55835000D01*
X69215000Y-62865000D02*
X69215000Y-56235000D01*
X65405000Y-74295000D02*
X69215000Y-74295000D01*
X69615000Y-55835000D02*
X74015000Y-51435000D01*
X74015000Y-51435000D02*
X102235000Y-51435000D01*
X100095000Y-53575000D02*
X102235000Y-51435000D01*
X59055000Y-64135000D02*
X69215000Y-64135000D01*
X69215000Y-64135000D02*
X69215000Y-67945000D01*
X69215000Y-62865000D02*
X69215000Y-64135000D01*
X65405000Y-70485000D02*
X69215000Y-70485000D01*
X69215000Y-70485000D02*
X69215000Y-74295000D01*
X69215000Y-67945000D02*
X69215000Y-70485000D01*
X113665000Y-51435000D02*
X102235000Y-51435000D01*
X140335000Y-70231000D02*
X117435000Y-70231000D01*
X140335000Y-75565000D02*
X140335000Y-70231000D01*
X117435000Y-75120000D02*
X117435000Y-69175000D01*
X117435000Y-70231000D02*
X117435000Y-69175000D01*
X117435000Y-51435000D02*
X113665000Y-51435000D01*
X117435000Y-69175000D02*
X117435000Y-51435000D01*
X142118000Y-84831000D02*
X134086000Y-84831000D01*
X144780000Y-82169000D02*
X142118000Y-84831000D01*
X144780000Y-77343000D02*
X144780000Y-82169000D01*
X143002000Y-75565000D02*
X144780000Y-77343000D01*
X140335000Y-75565000D02*
X143002000Y-75565000D01*
%TO.N,Net-(D3-Pad2)*%
X103505000Y-67945000D02*
X109855000Y-67945000D01*
D47*
%TO.N,+3V3*%
X46355000Y-75565000D02*
X46355000Y-76835000D01*
X48895000Y-73025000D02*
X46355000Y-75565000D01*
X48895000Y-61595000D02*
X48895000Y-73025000D01*
X46355000Y-59055000D02*
X48895000Y-61595000D01*
X57785000Y-109855000D02*
X62865000Y-104775000D01*
X62865000Y-104775000D02*
X62865000Y-102235000D01*
D46*
X113347500Y-143827500D02*
X111125000Y-141605000D01*
X118999000Y-141478000D02*
X116649500Y-143827500D01*
X118999000Y-141216998D02*
X118999000Y-141478000D01*
X119134999Y-141080999D02*
X118999000Y-141216998D01*
X119134999Y-133866999D02*
X119134999Y-141080999D01*
X115443000Y-130175000D02*
X119134999Y-133866999D01*
X116649500Y-143827500D02*
X113347500Y-143827500D01*
X111125000Y-130175000D02*
X115443000Y-130175000D01*
D47*
X95885000Y-142875000D02*
X97790000Y-142875000D01*
X100330000Y-145415000D02*
X104775000Y-145415000D01*
X97790000Y-142875000D02*
X100330000Y-145415000D01*
X90170000Y-152400000D02*
X88265000Y-154305000D01*
X90170000Y-148590000D02*
X90170000Y-152400000D01*
X95885000Y-142875000D02*
X90170000Y-148590000D01*
X50165000Y-94615000D02*
X47625000Y-94615000D01*
X50165000Y-88584998D02*
X50165000Y-94615000D01*
X48895000Y-87314998D02*
X50165000Y-88584998D01*
X48895000Y-79375000D02*
X48895000Y-87314998D01*
X46355000Y-76835000D02*
X48895000Y-79375000D01*
X62865000Y-99695000D02*
X62865000Y-102235000D01*
X62230000Y-99060000D02*
X62865000Y-99695000D01*
X55880000Y-99060000D02*
X62230000Y-99060000D01*
X51435000Y-94615000D02*
X55880000Y-99060000D01*
X47625000Y-94615000D02*
X51435000Y-94615000D01*
D46*
%TO.N,Net-(D17-Pad2)*%
X56515000Y-74295000D02*
X57785000Y-74295000D01*
X55245000Y-75565000D02*
X56515000Y-74295000D01*
X53975000Y-75565000D02*
X55245000Y-75565000D01*
D47*
%TO.N,Net-(D17-Pad1)*%
X57785000Y-79375000D02*
X57785000Y-84455000D01*
D46*
X51555000Y-64135000D02*
X51555000Y-66795000D01*
D47*
X57785000Y-76835000D02*
X57785000Y-79375000D01*
X60325000Y-74295000D02*
X57785000Y-76835000D01*
X60325000Y-71755000D02*
X60325000Y-74295000D01*
X59055000Y-70485000D02*
X60325000Y-71755000D01*
X55245000Y-70485000D02*
X59055000Y-70485000D01*
D46*
X51435000Y-75565000D02*
X51435000Y-70485000D01*
X51435000Y-70485000D02*
X53340000Y-68580000D01*
X53340000Y-68580000D02*
X55245000Y-70485000D01*
X51555000Y-66795000D02*
X53340000Y-68580000D01*
%TO.N,GPIO13_I2C-SDA*%
X88265000Y-146685000D02*
X90805000Y-144145000D01*
X90805000Y-144145000D02*
X90805000Y-132080000D01*
X83820000Y-125095000D02*
X79375000Y-125095000D01*
X90805000Y-132080000D02*
X83820000Y-125095000D01*
X114935000Y-184785000D02*
X116205000Y-183515000D01*
X79375000Y-179705000D02*
X84455000Y-184785000D01*
X79375000Y-155575000D02*
X79375000Y-179705000D01*
X116205000Y-183515000D02*
X116205000Y-180975000D01*
X84455000Y-184785000D02*
X114935000Y-184785000D01*
X88265000Y-146685000D02*
X79375000Y-155575000D01*
X123800022Y-178410022D02*
X126365000Y-180975000D01*
X116205000Y-180975000D02*
X116205000Y-179197000D01*
X116205000Y-179197000D02*
X116991978Y-178410022D01*
X116991978Y-178410022D02*
X123800022Y-178410022D01*
%TO.N,GPIO15_HS2_CMD*%
X84455000Y-130175000D02*
X88265000Y-133985000D01*
X79375000Y-130175000D02*
X84455000Y-130175000D01*
%TO.N,GPIO16_I2C-SCL*%
X83185000Y-175895000D02*
X83185000Y-155575000D01*
X83185000Y-155575000D02*
X88265000Y-150495000D01*
X86995000Y-179705000D02*
X83185000Y-175895000D01*
X106045000Y-178435000D02*
X104775000Y-179705000D01*
X113665000Y-178435000D02*
X106045000Y-178435000D01*
X113665000Y-180975000D02*
X113665000Y-178435000D01*
X115570000Y-176530000D02*
X113665000Y-178435000D01*
X126492000Y-176530000D02*
X115570000Y-176530000D01*
X128905000Y-178943000D02*
X126492000Y-176530000D01*
X128905000Y-180975000D02*
X128905000Y-178943000D01*
X86995000Y-179705000D02*
X104775000Y-179705000D01*
%TO.N,Net-(J13-Pad3)*%
X123825000Y-34417000D02*
X123825000Y-33655000D01*
X120269000Y-37973000D02*
X123825000Y-34417000D01*
X112014000Y-37973000D02*
X120269000Y-37973000D01*
X106402000Y-43585000D02*
X112014000Y-37973000D01*
X100045000Y-43585000D02*
X106402000Y-43585000D01*
%TO.N,Net-(J14-Pad1)*%
X107315000Y-36512500D02*
X107315000Y-33655000D01*
X104457500Y-39370000D02*
X107315000Y-36512500D01*
X93345000Y-39370000D02*
X104457500Y-39370000D01*
X91620000Y-41095000D02*
X93345000Y-39370000D01*
X91620000Y-43635000D02*
X91620000Y-41095000D01*
X81615000Y-43635000D02*
X91620000Y-43635000D01*
D47*
%TO.N,Net-(J15-Pad1)*%
X32385000Y-56515000D02*
X31115000Y-55245000D01*
X32385000Y-61595000D02*
X32385000Y-56515000D01*
D46*
%TO.N,230VAC-N*%
X121746000Y-44831000D02*
X122635000Y-45720000D01*
X116586000Y-44831000D02*
X121746000Y-44831000D01*
D47*
%TO.N,ExternalDCPower*%
X55880000Y-140335000D02*
X50165000Y-140335000D01*
X59690000Y-136525000D02*
X55880000Y-140335000D01*
X59690000Y-128270000D02*
X59690000Y-136525000D01*
X55245000Y-123825000D02*
X59690000Y-128270000D01*
X55245000Y-121285000D02*
X55245000Y-123825000D01*
X45085000Y-111125000D02*
X55245000Y-121285000D01*
X33655000Y-142875000D02*
X36195000Y-140335000D01*
X33655000Y-170180000D02*
X33655000Y-142875000D01*
X36830000Y-173355000D02*
X33655000Y-170180000D01*
X40640000Y-173355000D02*
X36830000Y-173355000D01*
X47307500Y-142875000D02*
X45115000Y-142875000D01*
X47307500Y-140652500D02*
X47625000Y-140335000D01*
X47625000Y-140335000D02*
X50165000Y-140335000D01*
X47307500Y-142875000D02*
X47307500Y-140652500D01*
X36195000Y-140335000D02*
X47625000Y-140335000D01*
%TO.N,Net-(Q1-Pad2)*%
X102235000Y-74295000D02*
X107315000Y-74295000D01*
%TO.N,Net-(Q2-Pad2)*%
X79375000Y-74295000D02*
X84455000Y-74295000D01*
%TO.N,Net-(Q3-Pad1)*%
X57785000Y-158115000D02*
X57785000Y-160655000D01*
X56515000Y-156845000D02*
X57785000Y-158115000D01*
X51435000Y-156845000D02*
X56515000Y-156845000D01*
D46*
%TO.N,Net-(Q4-Pad1)*%
X43815000Y-125095000D02*
X48895000Y-130175000D01*
X48895000Y-130175000D02*
X55245000Y-130175000D01*
D47*
%TO.N,Net-(Q5-Pad2)*%
X59055000Y-79375000D02*
X59055000Y-78105000D01*
X59055000Y-78105000D02*
X60325000Y-76835000D01*
X60325000Y-76835000D02*
X62865000Y-76835000D01*
X62865000Y-76835000D02*
X65405000Y-79375000D01*
%TO.N,Relay1*%
X94615000Y-83185000D02*
X94615000Y-74295000D01*
X83185000Y-94615000D02*
X94615000Y-83185000D01*
X83185000Y-102235000D02*
X83185000Y-94615000D01*
%TO.N,Relay2*%
X79375000Y-81915000D02*
X79375000Y-83185000D01*
X80645000Y-84455000D02*
X80645000Y-92075000D01*
X79375000Y-83185000D02*
X80645000Y-84455000D01*
X80645000Y-92075000D02*
X80645000Y-102235000D01*
D46*
%TO.N,FET1*%
X43815000Y-156845000D02*
X43815000Y-153035000D01*
D47*
X78105000Y-104775000D02*
X75565000Y-102235000D01*
X86995000Y-104775000D02*
X78105000Y-104775000D01*
X88265000Y-106045000D02*
X86995000Y-104775000D01*
X88265000Y-113030000D02*
X88265000Y-106045000D01*
X86360000Y-114935000D02*
X88265000Y-113030000D01*
X63500000Y-128905000D02*
X77470000Y-114935000D01*
X63500000Y-139700000D02*
X63500000Y-128905000D01*
X59055000Y-144145000D02*
X63500000Y-139700000D01*
X52705000Y-144145000D02*
X59055000Y-144145000D01*
X77470000Y-114935000D02*
X86360000Y-114935000D01*
X43815000Y-153035000D02*
X52705000Y-144145000D01*
D46*
%TO.N,FET2*%
X47625000Y-121285000D02*
X51435000Y-125095000D01*
X43815000Y-121285000D02*
X47625000Y-121285000D01*
D47*
X54403751Y-125095000D02*
X51435000Y-125095000D01*
X57785000Y-135853242D02*
X57785000Y-128476249D01*
X34925000Y-138430000D02*
X55208242Y-138430000D01*
X30480000Y-172085000D02*
X30480000Y-142875000D01*
X41910000Y-176530000D02*
X34925000Y-176530000D01*
X43180000Y-175260000D02*
X41910000Y-176530000D01*
X57785000Y-128476249D02*
X54403751Y-125095000D01*
X43180000Y-170815000D02*
X43180000Y-175260000D01*
X56515000Y-142240000D02*
X52070000Y-142240000D01*
X55208242Y-138430000D02*
X57785000Y-135853242D01*
X30480000Y-142875000D02*
X34925000Y-138430000D01*
X34925000Y-176530000D02*
X30480000Y-172085000D01*
X61595000Y-125730000D02*
X61595000Y-137160000D01*
X83820000Y-112395000D02*
X74930000Y-112395000D01*
X52070000Y-142240000D02*
X43180000Y-151130000D01*
X61595000Y-137160000D02*
X56515000Y-142240000D01*
X41910000Y-153759997D02*
X41364997Y-154305000D01*
X43180000Y-151130000D02*
X41910000Y-151130000D01*
X74930000Y-112395000D02*
X61595000Y-125730000D01*
X35560000Y-163195000D02*
X43180000Y-170815000D01*
X41910000Y-151130000D02*
X41910000Y-153759997D01*
X41364997Y-154305000D02*
X36830000Y-154305000D01*
X36830000Y-154305000D02*
X35560000Y-155575000D01*
X35560000Y-155575000D02*
X35560000Y-163195000D01*
D48*
X83820000Y-112395000D02*
X83185000Y-112395000D01*
D47*
X85090000Y-112395000D02*
X83820000Y-112395000D01*
X86360000Y-111125000D02*
X85090000Y-112395000D01*
X86360000Y-107950000D02*
X86360000Y-111125000D01*
X75565000Y-106680000D02*
X85090000Y-106680000D01*
X85090000Y-106680000D02*
X86360000Y-107950000D01*
X73025000Y-104140000D02*
X75565000Y-106680000D01*
X73025000Y-102235000D02*
X73025000Y-104140000D01*
%TO.N,Relay3*%
X66675000Y-88265000D02*
X65405000Y-86995000D01*
X75565000Y-88265000D02*
X66675000Y-88265000D01*
X78105000Y-90805000D02*
X75565000Y-88265000D01*
X78105000Y-92075000D02*
X78105000Y-90805000D01*
X78105000Y-92075000D02*
X78105000Y-102235000D01*
%TO.N,Net-(C1-Pad1)*%
X109855000Y-164465000D02*
X123825000Y-164465000D01*
X99695000Y-154305000D02*
X109855000Y-164465000D01*
X95885000Y-154305000D02*
X99695000Y-154305000D01*
X130810000Y-169545000D02*
X133985000Y-166370000D01*
X128905000Y-169545000D02*
X130810000Y-169545000D01*
X123825000Y-164465000D02*
X128905000Y-169545000D01*
D46*
%TO.N,Net-(D3-Pad1)*%
X106045000Y-62865000D02*
X111125000Y-62865000D01*
X112095000Y-61895000D02*
X112095000Y-55835000D01*
X112395000Y-62865000D02*
X111760000Y-62230000D01*
X112395000Y-67945000D02*
X112395000Y-62865000D01*
X111760000Y-62230000D02*
X112095000Y-61895000D01*
X111125000Y-62865000D02*
X111760000Y-62230000D01*
X112395000Y-67945000D02*
X112395000Y-73025000D01*
D47*
X107315000Y-73025000D02*
X112395000Y-73025000D01*
D46*
%TO.N,Net-(D4-Pad2)*%
X76835000Y-67945000D02*
X83185000Y-67945000D01*
%TO.N,Net-(D4-Pad1)*%
X80645000Y-56805000D02*
X81615000Y-55835000D01*
X80645000Y-61595000D02*
X80645000Y-56805000D01*
X79375000Y-62865000D02*
X80645000Y-61595000D01*
X79375000Y-62865000D02*
X83185000Y-62865000D01*
X85725000Y-65405000D02*
X85725000Y-67945000D01*
X83185000Y-62865000D02*
X85725000Y-65405000D01*
D47*
X84455000Y-73025000D02*
X84455000Y-71755000D01*
X85725000Y-70485000D02*
X85725000Y-67945000D01*
X84455000Y-71755000D02*
X85725000Y-70485000D01*
X84455000Y-73025000D02*
X89535000Y-73025000D01*
D46*
%TO.N,Net-(D13-Pad2)*%
X57785000Y-153035000D02*
X59055000Y-151765000D01*
X51435000Y-153035000D02*
X57785000Y-153035000D01*
%TO.N,Net-(D15-Pad2)*%
X53975000Y-163195000D02*
X57785000Y-163195000D01*
X51435000Y-160655000D02*
X53975000Y-163195000D01*
X38735000Y-156845000D02*
X42545000Y-160655000D01*
X48895000Y-160655000D02*
X51435000Y-160655000D01*
X42545000Y-160655000D02*
X48895000Y-160655000D01*
D47*
X48895000Y-151130000D02*
X48895000Y-160655000D01*
X53340000Y-146685000D02*
X48895000Y-151130000D01*
X53975000Y-146685000D02*
X53340000Y-146685000D01*
D46*
%TO.N,Net-(D15-Pad1)*%
X38735000Y-146685000D02*
X43815000Y-146685000D01*
X38735000Y-151765000D02*
X38735000Y-146685000D01*
D47*
X43815000Y-146685000D02*
X43815000Y-142875000D01*
D46*
%TO.N,Net-(D16-Pad2)*%
X45085000Y-131445000D02*
X45085000Y-132715000D01*
X38735000Y-125095000D02*
X45085000Y-131445000D01*
X45085000Y-132715000D02*
X55245000Y-132715000D01*
D47*
X34925000Y-125095000D02*
X38735000Y-125095000D01*
X33655000Y-108585000D02*
X33655000Y-123825000D01*
X34925000Y-107315000D02*
X33655000Y-108585000D01*
X46355000Y-107315000D02*
X34925000Y-107315000D01*
X47625000Y-108585000D02*
X46355000Y-107315000D01*
X47625000Y-111125000D02*
X47625000Y-108585000D01*
X51435000Y-114935000D02*
X47625000Y-111125000D01*
X33655000Y-123825000D02*
X34925000Y-125095000D01*
X53975000Y-114935000D02*
X51435000Y-114935000D01*
D46*
%TO.N,Net-(D16-Pad1)*%
X38735000Y-120015000D02*
X38735000Y-114935000D01*
X38735000Y-114935000D02*
X43815000Y-114935000D01*
D47*
X43815000Y-111155000D02*
X43785000Y-111125000D01*
X43815000Y-114935000D02*
X43815000Y-111155000D01*
%TO.N,Net-(J2-PadTN)*%
X126560000Y-170375000D02*
X130175000Y-173990000D01*
X122380000Y-170375000D02*
X126560000Y-170375000D01*
X122185000Y-170180000D02*
X122380000Y-170375000D01*
X115570000Y-169545000D02*
X116205000Y-170180000D01*
D46*
X116400000Y-170375000D02*
X115570000Y-169545000D01*
X122380000Y-170375000D02*
X116400000Y-170375000D01*
%TO.N,Net-(J14-Pad3)*%
X97155000Y-33655000D02*
X90678000Y-33655000D01*
X90678000Y-33655000D02*
X85471000Y-38862000D01*
X85471000Y-38862000D02*
X78359000Y-38862000D01*
X78359000Y-38862000D02*
X73914000Y-43307000D01*
X69843000Y-43307000D02*
X69565000Y-43585000D01*
X73914000Y-43307000D02*
X69843000Y-43307000D01*
D47*
%TO.N,Net-(J16-Pad1)*%
X32385000Y-71755000D02*
X38735000Y-71755000D01*
D46*
%TO.N,Net-(J23-Pad2)*%
X59055000Y-43835000D02*
X63480000Y-43835000D01*
X63480000Y-43835000D02*
X64135000Y-43180000D01*
X64135000Y-43180000D02*
X64135000Y-41275000D01*
X64135000Y-41275000D02*
X66675000Y-38735000D01*
X66675000Y-38735000D02*
X73025000Y-38735000D01*
X75565000Y-36195000D02*
X75565000Y-33655000D01*
X73025000Y-38735000D02*
X75565000Y-36195000D01*
%TO.N,Net-(J24-Pad2)*%
X48260000Y-34290000D02*
X48895000Y-33655000D01*
X48260000Y-36195000D02*
X48260000Y-34290000D01*
X46355000Y-38100000D02*
X48260000Y-36195000D01*
X46355000Y-40640000D02*
X46355000Y-38100000D01*
X49550000Y-43835000D02*
X46355000Y-40640000D01*
X51555000Y-43835000D02*
X49550000Y-43835000D01*
%TO.N,Net-(D1-Pad2)*%
X88265000Y-142875000D02*
X88265000Y-139065000D01*
D47*
X75628500Y-150495000D02*
X80645000Y-150495000D01*
X80645000Y-150495000D02*
X88265000Y-142875000D01*
X65786000Y-138684000D02*
X65786000Y-140652500D01*
X65786000Y-140652500D02*
X75628500Y-150495000D01*
X69215000Y-135255000D02*
X65786000Y-138684000D01*
D46*
%TO.N,Net-(J5-Pad3)*%
X131445000Y-183515000D02*
X131445000Y-180975000D01*
X130175000Y-184785000D02*
X131445000Y-183515000D01*
X120015000Y-184785000D02*
X130175000Y-184785000D01*
X118745000Y-183515000D02*
X120015000Y-184785000D01*
X118745000Y-180975000D02*
X118745000Y-183515000D01*
D47*
X95885000Y-146685000D02*
X95885000Y-150495000D01*
X112395000Y-175895000D02*
X113665000Y-174625000D01*
X98425000Y-160178750D02*
X98425000Y-171450000D01*
X102870000Y-175895000D02*
X112395000Y-175895000D01*
X93345000Y-155098750D02*
X98425000Y-160178750D01*
X98425000Y-171450000D02*
X102870000Y-175895000D01*
X93345000Y-151765000D02*
X93345000Y-155098750D01*
X131445000Y-178435000D02*
X131445000Y-180975000D01*
X127635000Y-174625000D02*
X131445000Y-178435000D01*
X113665000Y-174625000D02*
X127635000Y-174625000D01*
X94615000Y-150495000D02*
X93345000Y-151765000D01*
X95885000Y-150495000D02*
X94615000Y-150495000D01*
%TD*%
M02*
