%TF.GenerationSoftware,KiCad,Pcbnew,5.1.9-73d0e3b20d~88~ubuntu20.04.1*%
%TF.CreationDate,2021-01-06T06:49:24+01:00*%
%TF.ProjectId,NodeStandard,4e6f6465-5374-4616-9e64-6172642e6b69,V0.8*%
%TF.SameCoordinates,Original*%
%TF.FileFunction,Soldermask,Bot*%
%TF.FilePolarity,Negative*%
%FSLAX46Y46*%
G04 Gerber Fmt 4.6, Leading zero omitted, Abs format (unit mm)*
G04 Created by KiCad (PCBNEW 5.1.9-73d0e3b20d~88~ubuntu20.04.1) date 2021-01-06 06:49:24*
%MOMM*%
%LPD*%
G01*
G04 APERTURE LIST*
%ADD10C,1.500000*%
%ADD11R,1.800000X2.800000*%
%ADD12R,2.800000X1.800000*%
%ADD13C,5.600000*%
%ADD14C,0.100000*%
%ADD15O,1.600000X1.600000*%
%ADD16C,1.600000*%
%ADD17C,1.800000*%
%ADD18R,1.800000X1.800000*%
%ADD19O,3.000000X2.000000*%
%ADD20O,2.000000X3.000000*%
%ADD21R,2.000000X3.000000*%
%ADD22O,1.700000X1.700000*%
%ADD23R,1.700000X1.700000*%
%ADD24C,1.100000*%
%ADD25C,2.200000*%
%ADD26R,2.200000X2.200000*%
%ADD27R,1.600000X1.600000*%
%ADD28C,2.600000*%
%ADD29R,2.600000X2.600000*%
%ADD30O,2.400000X2.400000*%
%ADD31C,2.400000*%
%ADD32R,1.050000X1.500000*%
%ADD33O,1.050000X1.500000*%
%ADD34O,2.000000X1.905000*%
%ADD35R,2.000000X1.905000*%
%ADD36R,1.500000X1.050000*%
%ADD37O,1.500000X1.050000*%
%ADD38C,2.300000*%
%ADD39R,2.000000X2.300000*%
%ADD40C,3.000000*%
%ADD41C,2.500000*%
%ADD42O,2.080000X3.600000*%
%ADD43O,3.600000X2.080000*%
%ADD44O,2.200000X2.200000*%
G04 APERTURE END LIST*
D10*
%TO.C,J2*%
X143560000Y-166370000D03*
X148560000Y-161370000D03*
X148560000Y-171370000D03*
X151060000Y-171370000D03*
X151060000Y-161370000D03*
D11*
X148560000Y-166370000D03*
D12*
X143560000Y-161370000D03*
X143560000Y-171370000D03*
X143560000Y-163870000D03*
X143560000Y-168870000D03*
%TD*%
D13*
%TO.C,REF\u002A\u002A*%
X155257500Y-177546000D03*
%TD*%
%TO.C,REF\u002A\u002A*%
X34036000Y-177546000D03*
%TD*%
%TO.C,REF\u002A\u002A*%
X155257500Y-24765000D03*
%TD*%
%TO.C,REF\u002A\u002A*%
X34036000Y-24765000D03*
%TD*%
D14*
%TO.C,JP8*%
G36*
X54340000Y-26635000D02*
G01*
X54340000Y-28635000D01*
X52340000Y-28635000D01*
X52340000Y-26635000D01*
X54340000Y-26635000D01*
G37*
G36*
X54340000Y-23435000D02*
G01*
X54340000Y-25435000D01*
X52340000Y-25435000D01*
X52340000Y-23435000D01*
X54340000Y-23435000D01*
G37*
%TD*%
%TO.C,JP5*%
G36*
X107680000Y-26635000D02*
G01*
X107680000Y-28635000D01*
X105680000Y-28635000D01*
X105680000Y-26635000D01*
X107680000Y-26635000D01*
G37*
G36*
X107680000Y-23435000D02*
G01*
X107680000Y-25435000D01*
X105680000Y-25435000D01*
X105680000Y-23435000D01*
X107680000Y-23435000D01*
G37*
%TD*%
%TO.C,JP4*%
G36*
X134350000Y-26635000D02*
G01*
X134350000Y-28635000D01*
X132350000Y-28635000D01*
X132350000Y-26635000D01*
X134350000Y-26635000D01*
G37*
G36*
X134350000Y-23435000D02*
G01*
X134350000Y-25435000D01*
X132350000Y-25435000D01*
X132350000Y-23435000D01*
X134350000Y-23435000D01*
G37*
%TD*%
%TO.C,JP3*%
G36*
X149895000Y-82280000D02*
G01*
X147895000Y-82280000D01*
X147895000Y-80280000D01*
X149895000Y-80280000D01*
X149895000Y-82280000D01*
G37*
G36*
X153095000Y-82280000D02*
G01*
X151095000Y-82280000D01*
X151095000Y-80280000D01*
X153095000Y-80280000D01*
X153095000Y-82280000D01*
G37*
%TD*%
%TO.C,JP2*%
G36*
X149895000Y-103870000D02*
G01*
X147895000Y-103870000D01*
X147895000Y-101870000D01*
X149895000Y-101870000D01*
X149895000Y-103870000D01*
G37*
G36*
X153095000Y-103870000D02*
G01*
X151095000Y-103870000D01*
X151095000Y-101870000D01*
X153095000Y-101870000D01*
X153095000Y-103870000D01*
G37*
%TD*%
%TO.C,JP1*%
G36*
X149895000Y-125460000D02*
G01*
X147895000Y-125460000D01*
X147895000Y-123460000D01*
X149895000Y-123460000D01*
X149895000Y-125460000D01*
G37*
G36*
X153095000Y-125460000D02*
G01*
X151095000Y-125460000D01*
X151095000Y-123460000D01*
X153095000Y-123460000D01*
X153095000Y-125460000D01*
G37*
%TD*%
D15*
%TO.C,R3*%
X100330000Y-153670000D03*
D16*
X92710000Y-153670000D03*
%TD*%
D17*
%TO.C,D17*%
X58420000Y-74930000D03*
D18*
X55880000Y-74930000D03*
%TD*%
D19*
%TO.C,K3*%
X63500000Y-38160000D03*
X56000000Y-43200000D03*
X63500000Y-48240000D03*
X56000000Y-48240000D03*
X56000000Y-38160000D03*
X63500000Y-43200000D03*
D20*
X56000000Y-63500000D03*
D21*
X63500000Y-63500000D03*
%TD*%
D22*
%TO.C,J29*%
X73660000Y-124460000D03*
X73660000Y-121920000D03*
D23*
X73660000Y-119380000D03*
%TD*%
D24*
%TO.C,J28*%
X34290000Y-91440000D03*
D25*
X36830000Y-91440000D03*
D24*
X34290000Y-88900000D03*
D25*
X36830000Y-88900000D03*
D24*
X34290000Y-86360000D03*
D26*
X36830000Y-86360000D03*
%TD*%
D24*
%TO.C,J17*%
X34290000Y-73660000D03*
D25*
X36830000Y-73660000D03*
D24*
X34290000Y-71120000D03*
D26*
X36830000Y-71120000D03*
%TD*%
D24*
%TO.C,J16*%
X34290000Y-63500000D03*
D25*
X36830000Y-63500000D03*
D24*
X34290000Y-60960000D03*
D26*
X36830000Y-60960000D03*
%TD*%
D24*
%TO.C,J15*%
X34290000Y-53340000D03*
D25*
X36830000Y-53340000D03*
D24*
X34290000Y-50800000D03*
D26*
X36830000Y-50800000D03*
%TD*%
D25*
%TO.C,J6*%
X125730000Y-170180000D03*
X123190000Y-170180000D03*
X120650000Y-170180000D03*
D26*
X118110000Y-170180000D03*
%TD*%
D25*
%TO.C,J5*%
X138430000Y-170180000D03*
X135890000Y-170180000D03*
X133350000Y-170180000D03*
D26*
X130810000Y-170180000D03*
%TD*%
D15*
%TO.C,OK3*%
X121920000Y-95250000D03*
X129540000Y-92710000D03*
X121920000Y-92710000D03*
D27*
X129540000Y-95250000D03*
%TD*%
D15*
%TO.C,OK2*%
X121920000Y-116840000D03*
X129540000Y-114300000D03*
X121920000Y-114300000D03*
D27*
X129540000Y-116840000D03*
%TD*%
D15*
%TO.C,OK1*%
X121920000Y-138430000D03*
X129540000Y-135890000D03*
X121920000Y-135890000D03*
D27*
X129540000Y-138430000D03*
%TD*%
D28*
%TO.C,J3*%
X134620000Y-149860000D03*
D29*
X134620000Y-144780000D03*
%TD*%
D15*
%TO.C,U1*%
X87630000Y-99060000D03*
X54610000Y-91440000D03*
X85090000Y-99060000D03*
X57150000Y-91440000D03*
X82550000Y-99060000D03*
X59690000Y-91440000D03*
X80010000Y-99060000D03*
X62230000Y-91440000D03*
X77470000Y-99060000D03*
X64770000Y-91440000D03*
X74930000Y-99060000D03*
X67310000Y-91440000D03*
X72390000Y-99060000D03*
X69850000Y-91440000D03*
X69850000Y-99060000D03*
X72390000Y-91440000D03*
X67310000Y-99060000D03*
X74930000Y-91440000D03*
X64770000Y-99060000D03*
X77470000Y-91440000D03*
X62230000Y-99060000D03*
X80010000Y-91440000D03*
X59690000Y-99060000D03*
X82550000Y-91440000D03*
X57150000Y-99060000D03*
X85090000Y-91440000D03*
X54610000Y-99060000D03*
D27*
X87630000Y-91440000D03*
%TD*%
D15*
%TO.C,R29*%
X62230000Y-73660000D03*
D16*
X69850000Y-73660000D03*
%TD*%
D15*
%TO.C,R28*%
X69850000Y-86360000D03*
D16*
X69850000Y-78740000D03*
%TD*%
D15*
%TO.C,R8*%
X115570000Y-111760000D03*
D16*
X115570000Y-119380000D03*
%TD*%
D15*
%TO.C,R7*%
X115570000Y-138430000D03*
D16*
X115570000Y-130810000D03*
%TD*%
D15*
%TO.C,R27*%
X71120000Y-104140000D03*
D16*
X63500000Y-104140000D03*
%TD*%
D15*
%TO.C,R26*%
X71120000Y-135890000D03*
D16*
X63500000Y-135890000D03*
%TD*%
D15*
%TO.C,R25*%
X55880000Y-114300000D03*
D16*
X48260000Y-114300000D03*
%TD*%
D15*
%TO.C,R24*%
X48260000Y-146050000D03*
D16*
X55880000Y-146050000D03*
%TD*%
D15*
%TO.C,R19*%
X43180000Y-44450000D03*
D16*
X35560000Y-44450000D03*
%TD*%
D15*
%TO.C,R20*%
X50800000Y-60960000D03*
D16*
X43180000Y-60960000D03*
%TD*%
D15*
%TO.C,R23*%
X55880000Y-110490000D03*
D16*
X48260000Y-110490000D03*
%TD*%
D15*
%TO.C,R22*%
X55880000Y-142240000D03*
D16*
X48260000Y-142240000D03*
%TD*%
D30*
%TO.C,R18*%
X119380000Y-80010000D03*
D31*
X139700000Y-80010000D03*
%TD*%
D30*
%TO.C,R17*%
X119380000Y-86360000D03*
D31*
X139700000Y-86360000D03*
%TD*%
D15*
%TO.C,R12*%
X81280000Y-67310000D03*
D16*
X73660000Y-67310000D03*
%TD*%
D15*
%TO.C,R10*%
X83820000Y-81280000D03*
D16*
X83820000Y-73660000D03*
%TD*%
D15*
%TO.C,R6*%
X138430000Y-163195000D03*
D16*
X138430000Y-155575000D03*
%TD*%
D15*
%TO.C,R9*%
X99060000Y-73660000D03*
D16*
X106680000Y-73660000D03*
%TD*%
D15*
%TO.C,R11*%
X107950000Y-67310000D03*
D16*
X100330000Y-67310000D03*
%TD*%
D30*
%TO.C,R15*%
X119380000Y-107950000D03*
D31*
X139700000Y-107950000D03*
%TD*%
D30*
%TO.C,R16*%
X119380000Y-101600000D03*
D31*
X139700000Y-101600000D03*
%TD*%
D30*
%TO.C,R13*%
X119380000Y-129540000D03*
D31*
X139700000Y-129540000D03*
%TD*%
D30*
%TO.C,R14*%
X119380000Y-123190000D03*
D31*
X139700000Y-123190000D03*
%TD*%
D15*
%TO.C,R5*%
X100330000Y-143510000D03*
D16*
X92710000Y-143510000D03*
%TD*%
D15*
%TO.C,R4*%
X92710000Y-139700000D03*
D16*
X100330000Y-139700000D03*
%TD*%
D15*
%TO.C,R21*%
X52070000Y-78740000D03*
D16*
X44450000Y-78740000D03*
%TD*%
D15*
%TO.C,R2*%
X92710000Y-135890000D03*
D16*
X100330000Y-135890000D03*
%TD*%
D15*
%TO.C,R1*%
X134620000Y-163195000D03*
D16*
X134620000Y-155575000D03*
%TD*%
D32*
%TO.C,Q5*%
X62230000Y-78740000D03*
D33*
X64770000Y-78740000D03*
X63500000Y-78740000D03*
%TD*%
D34*
%TO.C,Q4*%
X59690000Y-124460000D03*
X59690000Y-121920000D03*
D35*
X59690000Y-119380000D03*
%TD*%
D34*
%TO.C,Q3*%
X62230000Y-154940000D03*
X62230000Y-152400000D03*
D35*
X62230000Y-149860000D03*
%TD*%
D36*
%TO.C,Q1*%
X111760000Y-72390000D03*
D37*
X111760000Y-74930000D03*
X111760000Y-73660000D03*
%TD*%
D36*
%TO.C,Q2*%
X88900000Y-72390000D03*
D37*
X88900000Y-74930000D03*
X88900000Y-73660000D03*
%TD*%
D38*
%TO.C,PS1*%
X121880000Y-70040000D03*
X127080000Y-40640000D03*
D39*
X132080000Y-40640000D03*
D38*
X137280000Y-70040000D03*
%TD*%
%TO.C,L1*%
X118110000Y-156210000D03*
X118110000Y-143510000D03*
%TD*%
D40*
%TO.C,K2*%
X80010000Y-57150000D03*
D41*
X74060000Y-55200000D03*
D40*
X74010000Y-42950000D03*
X86060000Y-43000000D03*
D41*
X86060000Y-55200000D03*
%TD*%
D40*
%TO.C,K1*%
X110490000Y-57150000D03*
D41*
X104540000Y-55200000D03*
D40*
X104490000Y-42950000D03*
X116540000Y-43000000D03*
D41*
X116540000Y-55200000D03*
%TD*%
D42*
%TO.C,J24*%
X48260000Y-33020000D03*
X53340000Y-33020000D03*
G36*
G01*
X59460000Y-31469998D02*
X59460000Y-34570002D01*
G75*
G02*
X59210002Y-34820000I-249998J0D01*
G01*
X57629998Y-34820000D01*
G75*
G02*
X57380000Y-34570002I0J249998D01*
G01*
X57380000Y-31469998D01*
G75*
G02*
X57629998Y-31220000I249998J0D01*
G01*
X59210002Y-31220000D01*
G75*
G02*
X59460000Y-31469998I0J-249998D01*
G01*
G37*
%TD*%
%TO.C,J23*%
X74930000Y-33020000D03*
X80010000Y-33020000D03*
G36*
G01*
X86130000Y-31469998D02*
X86130000Y-34570002D01*
G75*
G02*
X85880002Y-34820000I-249998J0D01*
G01*
X84299998Y-34820000D01*
G75*
G02*
X84050000Y-34570002I0J249998D01*
G01*
X84050000Y-31469998D01*
G75*
G02*
X84299998Y-31220000I249998J0D01*
G01*
X85880002Y-31220000D01*
G75*
G02*
X86130000Y-31469998I0J-249998D01*
G01*
G37*
%TD*%
D22*
%TO.C,J22*%
X64770000Y-83820000D03*
D23*
X62230000Y-83820000D03*
%TD*%
D42*
%TO.C,J27*%
X50165000Y-162560000D03*
G36*
G01*
X44045000Y-164110002D02*
X44045000Y-161009998D01*
G75*
G02*
X44294998Y-160760000I249998J0D01*
G01*
X45875002Y-160760000D01*
G75*
G02*
X46125000Y-161009998I0J-249998D01*
G01*
X46125000Y-164110002D01*
G75*
G02*
X45875002Y-164360000I-249998J0D01*
G01*
X44294998Y-164360000D01*
G75*
G02*
X44045000Y-164110002I0J249998D01*
G01*
G37*
%TD*%
%TO.C,J26*%
X71755000Y-162560000D03*
G36*
G01*
X65635000Y-164110002D02*
X65635000Y-161009998D01*
G75*
G02*
X65884998Y-160760000I249998J0D01*
G01*
X67465002Y-160760000D01*
G75*
G02*
X67715000Y-161009998I0J-249998D01*
G01*
X67715000Y-164110002D01*
G75*
G02*
X67465002Y-164360000I-249998J0D01*
G01*
X65884998Y-164360000D01*
G75*
G02*
X65635000Y-164110002I0J249998D01*
G01*
G37*
%TD*%
D43*
%TO.C,J25*%
X144780000Y-46990000D03*
G36*
G01*
X146330002Y-53110000D02*
X143229998Y-53110000D01*
G75*
G02*
X142980000Y-52860002I0J249998D01*
G01*
X142980000Y-51279998D01*
G75*
G02*
X143229998Y-51030000I249998J0D01*
G01*
X146330002Y-51030000D01*
G75*
G02*
X146580000Y-51279998I0J-249998D01*
G01*
X146580000Y-52860002D01*
G75*
G02*
X146330002Y-53110000I-249998J0D01*
G01*
G37*
%TD*%
%TO.C,J21*%
X43180000Y-119380000D03*
X43180000Y-114300000D03*
X43180000Y-109220000D03*
G36*
G01*
X41629998Y-103100000D02*
X44730002Y-103100000D01*
G75*
G02*
X44980000Y-103349998I0J-249998D01*
G01*
X44980000Y-104930002D01*
G75*
G02*
X44730002Y-105180000I-249998J0D01*
G01*
X41629998Y-105180000D01*
G75*
G02*
X41380000Y-104930002I0J249998D01*
G01*
X41380000Y-103349998D01*
G75*
G02*
X41629998Y-103100000I249998J0D01*
G01*
G37*
%TD*%
%TO.C,J20*%
X43180000Y-151130000D03*
X43180000Y-146050000D03*
X43180000Y-140970000D03*
G36*
G01*
X41629998Y-134850000D02*
X44730002Y-134850000D01*
G75*
G02*
X44980000Y-135099998I0J-249998D01*
G01*
X44980000Y-136680002D01*
G75*
G02*
X44730002Y-136930000I-249998J0D01*
G01*
X41629998Y-136930000D01*
G75*
G02*
X41380000Y-136680002I0J249998D01*
G01*
X41380000Y-135099998D01*
G75*
G02*
X41629998Y-134850000I249998J0D01*
G01*
G37*
%TD*%
D22*
%TO.C,J19*%
X49530000Y-124460000D03*
D23*
X49530000Y-121920000D03*
%TD*%
D22*
%TO.C,J8*%
X116840000Y-74930000D03*
D23*
X116840000Y-72390000D03*
%TD*%
D22*
%TO.C,J18*%
X58420000Y-154940000D03*
D23*
X58420000Y-152400000D03*
%TD*%
D43*
%TO.C,J11*%
X144780000Y-102870000D03*
G36*
G01*
X146330002Y-108990000D02*
X143229998Y-108990000D01*
G75*
G02*
X142980000Y-108740002I0J249998D01*
G01*
X142980000Y-107159998D01*
G75*
G02*
X143229998Y-106910000I249998J0D01*
G01*
X146330002Y-106910000D01*
G75*
G02*
X146580000Y-107159998I0J-249998D01*
G01*
X146580000Y-108740002D01*
G75*
G02*
X146330002Y-108990000I-249998J0D01*
G01*
G37*
%TD*%
%TO.C,J10*%
X144780000Y-124460000D03*
G36*
G01*
X146330002Y-130580000D02*
X143229998Y-130580000D01*
G75*
G02*
X142980000Y-130330002I0J249998D01*
G01*
X142980000Y-128749998D01*
G75*
G02*
X143229998Y-128500000I249998J0D01*
G01*
X146330002Y-128500000D01*
G75*
G02*
X146580000Y-128749998I0J-249998D01*
G01*
X146580000Y-130330002D01*
G75*
G02*
X146330002Y-130580000I-249998J0D01*
G01*
G37*
%TD*%
D42*
%TO.C,J14*%
X101600000Y-33020000D03*
X106680000Y-33020000D03*
G36*
G01*
X112800000Y-31469998D02*
X112800000Y-34570002D01*
G75*
G02*
X112550002Y-34820000I-249998J0D01*
G01*
X110969998Y-34820000D01*
G75*
G02*
X110720000Y-34570002I0J249998D01*
G01*
X110720000Y-31469998D01*
G75*
G02*
X110969998Y-31220000I249998J0D01*
G01*
X112550002Y-31220000D01*
G75*
G02*
X112800000Y-31469998I0J-249998D01*
G01*
G37*
%TD*%
%TO.C,J13*%
X128270000Y-33020000D03*
X133350000Y-33020000D03*
G36*
G01*
X139470000Y-31469998D02*
X139470000Y-34570002D01*
G75*
G02*
X139220002Y-34820000I-249998J0D01*
G01*
X137639998Y-34820000D01*
G75*
G02*
X137390000Y-34570002I0J249998D01*
G01*
X137390000Y-31469998D01*
G75*
G02*
X137639998Y-31220000I249998J0D01*
G01*
X139220002Y-31220000D01*
G75*
G02*
X139470000Y-31469998I0J-249998D01*
G01*
G37*
%TD*%
D43*
%TO.C,J12*%
X144780000Y-81280000D03*
G36*
G01*
X146330002Y-87400000D02*
X143229998Y-87400000D01*
G75*
G02*
X142980000Y-87150002I0J249998D01*
G01*
X142980000Y-85569998D01*
G75*
G02*
X143229998Y-85320000I249998J0D01*
G01*
X146330002Y-85320000D01*
G75*
G02*
X146580000Y-85569998I0J-249998D01*
G01*
X146580000Y-87150002D01*
G75*
G02*
X146330002Y-87400000I-249998J0D01*
G01*
G37*
%TD*%
D22*
%TO.C,J9*%
X93980000Y-74930000D03*
D23*
X93980000Y-72390000D03*
%TD*%
D43*
%TO.C,J1*%
X144780000Y-146050000D03*
G36*
G01*
X146330002Y-152170000D02*
X143229998Y-152170000D01*
G75*
G02*
X142980000Y-151920002I0J249998D01*
G01*
X142980000Y-150339998D01*
G75*
G02*
X143229998Y-150090000I249998J0D01*
G01*
X146330002Y-150090000D01*
G75*
G02*
X146580000Y-150339998I0J-249998D01*
G01*
X146580000Y-151920002D01*
G75*
G02*
X146330002Y-152170000I-249998J0D01*
G01*
G37*
%TD*%
D22*
%TO.C,J7*%
X83820000Y-114300000D03*
X83820000Y-116840000D03*
X83820000Y-119380000D03*
X83820000Y-121920000D03*
X83820000Y-124460000D03*
X83820000Y-127000000D03*
X83820000Y-129540000D03*
X83820000Y-132080000D03*
X83820000Y-134620000D03*
D23*
X83820000Y-137160000D03*
%TD*%
D22*
%TO.C,J4*%
X109220000Y-114300000D03*
X109220000Y-116840000D03*
X109220000Y-119380000D03*
X109220000Y-121920000D03*
X109220000Y-124460000D03*
X109220000Y-127000000D03*
X109220000Y-129540000D03*
X109220000Y-132080000D03*
X109220000Y-134620000D03*
D23*
X109220000Y-137160000D03*
%TD*%
D44*
%TO.C,D18*%
X59690000Y-69850000D03*
D26*
X69850000Y-69850000D03*
%TD*%
D15*
%TO.C,D12*%
X50800000Y-52070000D03*
D27*
X43180000Y-52070000D03*
%TD*%
D15*
%TO.C,D11*%
X43180000Y-48260000D03*
D27*
X50800000Y-48260000D03*
%TD*%
D15*
%TO.C,D10*%
X50800000Y-69850000D03*
D27*
X43180000Y-69850000D03*
%TD*%
D15*
%TO.C,D9*%
X43180000Y-66040000D03*
D27*
X50800000Y-66040000D03*
%TD*%
D15*
%TO.C,D8*%
X52070000Y-87630000D03*
D27*
X44450000Y-87630000D03*
%TD*%
D15*
%TO.C,D7*%
X44450000Y-83820000D03*
D27*
X52070000Y-83820000D03*
%TD*%
D15*
%TO.C,D2*%
X100330000Y-128270000D03*
D27*
X92710000Y-128270000D03*
%TD*%
D15*
%TO.C,D1*%
X92710000Y-132080000D03*
D27*
X100330000Y-132080000D03*
%TD*%
D44*
%TO.C,D16*%
X58420000Y-104140000D03*
D26*
X48260000Y-104140000D03*
%TD*%
D44*
%TO.C,D15*%
X58420000Y-135890000D03*
D26*
X48260000Y-135890000D03*
%TD*%
D17*
%TO.C,D14*%
X63500000Y-109220000D03*
D18*
X66040000Y-109220000D03*
%TD*%
D17*
%TO.C,D13*%
X63500000Y-140970000D03*
D18*
X66040000Y-140970000D03*
%TD*%
D44*
%TO.C,D6*%
X83820000Y-62230000D03*
D26*
X73660000Y-62230000D03*
%TD*%
D17*
%TO.C,D3*%
X114300000Y-67310000D03*
D18*
X116840000Y-67310000D03*
%TD*%
D17*
%TO.C,D4*%
X87630000Y-67310000D03*
D18*
X90170000Y-67310000D03*
%TD*%
D44*
%TO.C,D5*%
X110490000Y-62230000D03*
D26*
X100330000Y-62230000D03*
%TD*%
D16*
%TO.C,C9*%
X78660000Y-73660000D03*
X73660000Y-73660000D03*
%TD*%
%TO.C,C8*%
X144780000Y-67270000D03*
D27*
X144780000Y-64770000D03*
%TD*%
D16*
%TO.C,C4*%
X135890000Y-92750000D03*
D27*
X135890000Y-95250000D03*
%TD*%
D16*
%TO.C,C3*%
X137160000Y-114340000D03*
D27*
X137160000Y-116840000D03*
%TD*%
D16*
%TO.C,C2*%
X137160000Y-135930000D03*
D27*
X137160000Y-138430000D03*
%TD*%
D16*
%TO.C,C5*%
X48180000Y-55880000D03*
X43180000Y-55880000D03*
%TD*%
%TO.C,C6*%
X48180000Y-73660000D03*
X43180000Y-73660000D03*
%TD*%
%TO.C,C1*%
X116800000Y-93980000D03*
D27*
X114300000Y-93980000D03*
%TD*%
D16*
%TO.C,C7*%
X49450000Y-91440000D03*
X44450000Y-91440000D03*
%TD*%
M02*
