M48
; DRILL file {KiCad 5.1.9-73d0e3b20d~88~ubuntu20.04.1} date Thu Feb 18 19:50:51 2021
; FORMAT={-:-/ absolute / metric / decimal}
; #@! TF.CreationDate,2021-02-18T19:50:51+01:00
; #@! TF.GenerationSoftware,Kicad,Pcbnew,5.1.9-73d0e3b20d~88~ubuntu20.04.1
; #@! TF.FileFunction,Plated,1,2,PTH
FMAT,2
METRIC
T1C0.750
T2C0.800
T3C0.900
T4C1.000
T5C1.100
T6C1.200
T7C1.300
T8C1.400
T9C3.200
%
G90
G05
T1
X62.23Y-78.74
X63.5Y-78.74
X64.77Y-78.74
X88.9Y-72.39
X88.9Y-73.66
X88.9Y-74.93
X111.76Y-72.39
X111.76Y-73.66
X111.76Y-74.93
T2
X35.56Y-44.45
X43.18Y-44.45
X43.18Y-48.26
X43.18Y-52.07
X43.18Y-55.88
X43.18Y-60.96
X43.18Y-66.04
X43.18Y-69.85
X43.18Y-73.66
X44.45Y-78.74
X44.45Y-83.82
X44.45Y-87.63
X44.45Y-91.44
X48.18Y-55.88
X48.18Y-73.66
X48.26Y-110.49
X48.26Y-114.3
X48.26Y-142.24
X48.26Y-146.05
X49.45Y-91.44
X50.8Y-48.26
X50.8Y-52.07
X50.8Y-60.96
X50.8Y-66.04
X50.8Y-69.85
X52.07Y-78.74
X52.07Y-83.82
X52.07Y-87.63
X54.61Y-91.44
X54.61Y-99.06
X55.88Y-110.49
X55.88Y-114.3
X55.88Y-142.24
X55.88Y-146.05
X57.15Y-91.44
X57.15Y-99.06
X59.69Y-91.44
X59.69Y-99.06
X62.23Y-73.66
X62.23Y-91.44
X62.23Y-99.06
X63.5Y-104.14
X63.5Y-135.89
X64.77Y-91.44
X64.77Y-99.06
X67.31Y-91.44
X67.31Y-99.06
X69.85Y-73.66
X69.85Y-78.74
X69.85Y-86.36
X69.85Y-91.44
X69.85Y-99.06
X71.12Y-104.14
X71.12Y-135.89
X72.39Y-91.44
X72.39Y-99.06
X73.66Y-67.31
X73.66Y-73.66
X74.93Y-91.44
X74.93Y-99.06
X77.47Y-91.44
X77.47Y-99.06
X78.66Y-73.66
X80.01Y-91.44
X80.01Y-99.06
X81.28Y-67.31
X82.55Y-91.44
X82.55Y-99.06
X83.82Y-73.66
X83.82Y-81.28
X85.09Y-91.44
X85.09Y-99.06
X87.63Y-91.44
X87.63Y-99.06
X92.71Y-128.27
X92.71Y-132.08
X92.71Y-135.89
X92.71Y-139.7
X92.71Y-143.51
X92.71Y-153.67
X99.06Y-73.66
X100.33Y-67.31
X100.33Y-128.27
X100.33Y-132.08
X100.33Y-135.89
X100.33Y-139.7
X100.33Y-143.51
X100.33Y-153.67
X106.68Y-73.66
X107.95Y-67.31
X114.3Y-93.98
X115.57Y-111.76
X115.57Y-119.38
X115.57Y-130.81
X115.57Y-138.43
X116.8Y-93.98
X121.92Y-92.71
X121.92Y-95.25
X121.92Y-114.3
X121.92Y-116.84
X121.92Y-135.89
X121.92Y-138.43
X129.54Y-92.71
X129.54Y-95.25
X129.54Y-114.3
X129.54Y-116.84
X129.54Y-135.89
X129.54Y-138.43
X134.62Y-155.575
X134.62Y-163.195
X135.89Y-92.75
X135.89Y-95.25
X137.16Y-114.34
X137.16Y-116.84
X137.16Y-135.93
X137.16Y-138.43
X138.43Y-155.575
X138.43Y-163.195
X144.78Y-64.77
X144.78Y-67.27
T3
X55.88Y-74.93
X58.42Y-74.93
X63.5Y-109.22
X63.5Y-140.97
X66.04Y-109.22
X66.04Y-140.97
X87.63Y-67.31
X90.17Y-67.31
X114.3Y-67.31
X116.84Y-67.31
T4
X49.53Y-121.92
X49.53Y-124.46
X58.42Y-152.4
X58.42Y-154.94
X62.23Y-83.82
X64.77Y-83.82
X73.66Y-119.38
X73.66Y-121.92
X73.66Y-124.46
X74.06Y-55.2
X83.82Y-114.3
X83.82Y-116.84
X83.82Y-119.38
X83.82Y-121.92
X83.82Y-124.46
X83.82Y-127.0
X83.82Y-129.54
X83.82Y-132.08
X83.82Y-134.62
X83.82Y-137.16
X86.06Y-55.2
X93.98Y-72.39
X93.98Y-74.93
X104.54Y-55.2
X109.22Y-114.3
X109.22Y-116.84
X109.22Y-119.38
X109.22Y-121.92
X109.22Y-124.46
X109.22Y-127.0
X109.22Y-129.54
X109.22Y-132.08
X109.22Y-134.62
X109.22Y-137.16
X116.54Y-55.2
X116.84Y-72.39
X116.84Y-74.93
X118.11Y-143.51
X118.11Y-156.21
X121.88Y-70.04
X127.08Y-40.64
X132.08Y-40.64
X137.28Y-70.04
T5
X36.83Y-50.8
X36.83Y-53.34
X36.83Y-60.96
X36.83Y-63.5
X36.83Y-71.12
X36.83Y-73.66
X36.83Y-86.36
X36.83Y-88.9
X36.83Y-91.44
X48.26Y-104.14
X48.26Y-135.89
X58.42Y-104.14
X58.42Y-135.89
X59.69Y-69.85
X59.69Y-119.38
X59.69Y-121.92
X59.69Y-124.46
X62.23Y-149.86
X62.23Y-152.4
X62.23Y-154.94
X69.85Y-69.85
X73.66Y-62.23
X83.82Y-62.23
X100.33Y-62.23
X110.49Y-62.23
X118.11Y-170.18
X120.65Y-170.18
X123.19Y-170.18
X125.73Y-170.18
X130.81Y-170.18
X133.35Y-170.18
X135.89Y-170.18
X138.43Y-170.18
T6
X119.38Y-80.01
X119.38Y-86.36
X119.38Y-101.6
X119.38Y-107.95
X119.38Y-123.19
X119.38Y-129.54
X139.7Y-80.01
X139.7Y-86.36
X139.7Y-101.6
X139.7Y-107.95
X139.7Y-123.19
X139.7Y-129.54
T7
X56.0Y-38.16
X56.0Y-43.2
X56.0Y-48.24
X56.0Y-63.5
X63.5Y-38.16
X63.5Y-43.2
X63.5Y-48.24
X63.5Y-63.5
X74.01Y-42.95
X80.01Y-57.15
X86.06Y-43.0
X104.49Y-42.95
X110.49Y-57.15
X116.54Y-43.0
X134.62Y-144.78
X134.62Y-149.86
T8
X43.18Y-104.14
X43.18Y-109.22
X43.18Y-114.3
X43.18Y-119.38
X43.18Y-135.89
X43.18Y-140.97
X43.18Y-146.05
X43.18Y-151.13
X45.085Y-162.56
X48.26Y-33.02
X50.165Y-162.56
X53.34Y-33.02
X58.42Y-33.02
X66.675Y-162.56
X71.755Y-162.56
X74.93Y-33.02
X80.01Y-33.02
X85.09Y-33.02
X101.6Y-33.02
X106.68Y-33.02
X111.76Y-33.02
X128.27Y-33.02
X133.35Y-33.02
X138.43Y-33.02
X144.78Y-46.99
X144.78Y-52.07
X144.78Y-81.28
X144.78Y-86.36
X144.78Y-102.87
X144.78Y-107.95
X144.78Y-124.46
X144.78Y-129.54
X144.78Y-146.05
X144.78Y-151.13
T9
X34.036Y-24.765
X34.036Y-177.546
X155.257Y-24.765
X155.257Y-177.546
T4
G00X144.31Y-161.37
M15
G01X142.81Y-161.37
M16
G05
G00X142.81Y-163.87
M15
G01X144.31Y-163.87
M16
G05
G00X142.81Y-168.87
M15
G01X144.31Y-168.87
M16
G05
G00X142.81Y-171.37
M15
G01X144.31Y-171.37
M16
G05
G00X148.56Y-165.62
M15
G01X148.56Y-167.12
M16
G05
T0
M30
