%TF.GenerationSoftware,KiCad,Pcbnew,5.1.9-73d0e3b20d~88~ubuntu20.04.1*%
%TF.CreationDate,2021-01-06T06:49:24+01:00*%
%TF.ProjectId,NodeStandard,4e6f6465-5374-4616-9e64-6172642e6b69,V0.8*%
%TF.SameCoordinates,Original*%
%TF.FileFunction,Soldermask,Top*%
%TF.FilePolarity,Negative*%
%FSLAX46Y46*%
G04 Gerber Fmt 4.6, Leading zero omitted, Abs format (unit mm)*
G04 Created by KiCad (PCBNEW 5.1.9-73d0e3b20d~88~ubuntu20.04.1) date 2021-01-06 06:49:24*
%MOMM*%
%LPD*%
G01*
G04 APERTURE LIST*
%ADD10C,1.500000*%
%ADD11R,1.800000X2.800000*%
%ADD12R,2.800000X1.800000*%
%ADD13C,5.600000*%
%ADD14O,1.600000X1.600000*%
%ADD15C,1.600000*%
%ADD16C,1.800000*%
%ADD17R,1.800000X1.800000*%
%ADD18O,3.000000X2.000000*%
%ADD19O,2.000000X3.000000*%
%ADD20R,2.000000X3.000000*%
%ADD21O,1.700000X1.700000*%
%ADD22R,1.700000X1.700000*%
%ADD23C,1.100000*%
%ADD24C,2.200000*%
%ADD25R,2.200000X2.200000*%
%ADD26R,1.600000X1.600000*%
%ADD27C,2.600000*%
%ADD28R,2.600000X2.600000*%
%ADD29O,2.400000X2.400000*%
%ADD30C,2.400000*%
%ADD31R,1.050000X1.500000*%
%ADD32O,1.050000X1.500000*%
%ADD33O,2.000000X1.905000*%
%ADD34R,2.000000X1.905000*%
%ADD35R,1.500000X1.050000*%
%ADD36O,1.500000X1.050000*%
%ADD37C,2.300000*%
%ADD38R,2.000000X2.300000*%
%ADD39C,3.000000*%
%ADD40C,2.500000*%
%ADD41C,0.100000*%
%ADD42O,2.080000X3.600000*%
%ADD43O,3.600000X2.080000*%
%ADD44O,2.200000X2.200000*%
G04 APERTURE END LIST*
D10*
%TO.C,J2*%
X143560000Y-166370000D03*
X148560000Y-161370000D03*
X148560000Y-171370000D03*
X151060000Y-171370000D03*
X151060000Y-161370000D03*
D11*
X148560000Y-166370000D03*
D12*
X143560000Y-161370000D03*
X143560000Y-171370000D03*
X143560000Y-163870000D03*
X143560000Y-168870000D03*
%TD*%
D13*
%TO.C,REF\u002A\u002A*%
X155257500Y-177546000D03*
%TD*%
%TO.C,REF\u002A\u002A*%
X34036000Y-177546000D03*
%TD*%
%TO.C,REF\u002A\u002A*%
X155257500Y-24765000D03*
%TD*%
%TO.C,REF\u002A\u002A*%
X34036000Y-24765000D03*
%TD*%
D14*
%TO.C,R3*%
X100330000Y-153670000D03*
D15*
X92710000Y-153670000D03*
%TD*%
D16*
%TO.C,D17*%
X58420000Y-74930000D03*
D17*
X55880000Y-74930000D03*
%TD*%
D18*
%TO.C,K3*%
X63500000Y-38160000D03*
X56000000Y-43200000D03*
X63500000Y-48240000D03*
X56000000Y-48240000D03*
X56000000Y-38160000D03*
X63500000Y-43200000D03*
D19*
X56000000Y-63500000D03*
D20*
X63500000Y-63500000D03*
%TD*%
D21*
%TO.C,J29*%
X73660000Y-124460000D03*
X73660000Y-121920000D03*
D22*
X73660000Y-119380000D03*
%TD*%
D23*
%TO.C,J28*%
X34290000Y-91440000D03*
D24*
X36830000Y-91440000D03*
D23*
X34290000Y-88900000D03*
D24*
X36830000Y-88900000D03*
D23*
X34290000Y-86360000D03*
D25*
X36830000Y-86360000D03*
%TD*%
D23*
%TO.C,J17*%
X34290000Y-73660000D03*
D24*
X36830000Y-73660000D03*
D23*
X34290000Y-71120000D03*
D25*
X36830000Y-71120000D03*
%TD*%
D23*
%TO.C,J16*%
X34290000Y-63500000D03*
D24*
X36830000Y-63500000D03*
D23*
X34290000Y-60960000D03*
D25*
X36830000Y-60960000D03*
%TD*%
D23*
%TO.C,J15*%
X34290000Y-53340000D03*
D24*
X36830000Y-53340000D03*
D23*
X34290000Y-50800000D03*
D25*
X36830000Y-50800000D03*
%TD*%
D24*
%TO.C,J6*%
X125730000Y-170180000D03*
X123190000Y-170180000D03*
X120650000Y-170180000D03*
D25*
X118110000Y-170180000D03*
%TD*%
D24*
%TO.C,J5*%
X138430000Y-170180000D03*
X135890000Y-170180000D03*
X133350000Y-170180000D03*
D25*
X130810000Y-170180000D03*
%TD*%
D14*
%TO.C,OK3*%
X121920000Y-95250000D03*
X129540000Y-92710000D03*
X121920000Y-92710000D03*
D26*
X129540000Y-95250000D03*
%TD*%
D14*
%TO.C,OK2*%
X121920000Y-116840000D03*
X129540000Y-114300000D03*
X121920000Y-114300000D03*
D26*
X129540000Y-116840000D03*
%TD*%
D14*
%TO.C,OK1*%
X121920000Y-138430000D03*
X129540000Y-135890000D03*
X121920000Y-135890000D03*
D26*
X129540000Y-138430000D03*
%TD*%
D27*
%TO.C,J3*%
X134620000Y-149860000D03*
D28*
X134620000Y-144780000D03*
%TD*%
D14*
%TO.C,U1*%
X87630000Y-99060000D03*
X54610000Y-91440000D03*
X85090000Y-99060000D03*
X57150000Y-91440000D03*
X82550000Y-99060000D03*
X59690000Y-91440000D03*
X80010000Y-99060000D03*
X62230000Y-91440000D03*
X77470000Y-99060000D03*
X64770000Y-91440000D03*
X74930000Y-99060000D03*
X67310000Y-91440000D03*
X72390000Y-99060000D03*
X69850000Y-91440000D03*
X69850000Y-99060000D03*
X72390000Y-91440000D03*
X67310000Y-99060000D03*
X74930000Y-91440000D03*
X64770000Y-99060000D03*
X77470000Y-91440000D03*
X62230000Y-99060000D03*
X80010000Y-91440000D03*
X59690000Y-99060000D03*
X82550000Y-91440000D03*
X57150000Y-99060000D03*
X85090000Y-91440000D03*
X54610000Y-99060000D03*
D26*
X87630000Y-91440000D03*
%TD*%
D14*
%TO.C,R29*%
X62230000Y-73660000D03*
D15*
X69850000Y-73660000D03*
%TD*%
D14*
%TO.C,R28*%
X69850000Y-86360000D03*
D15*
X69850000Y-78740000D03*
%TD*%
D14*
%TO.C,R8*%
X115570000Y-111760000D03*
D15*
X115570000Y-119380000D03*
%TD*%
D14*
%TO.C,R7*%
X115570000Y-138430000D03*
D15*
X115570000Y-130810000D03*
%TD*%
D14*
%TO.C,R27*%
X71120000Y-104140000D03*
D15*
X63500000Y-104140000D03*
%TD*%
D14*
%TO.C,R26*%
X71120000Y-135890000D03*
D15*
X63500000Y-135890000D03*
%TD*%
D14*
%TO.C,R25*%
X55880000Y-114300000D03*
D15*
X48260000Y-114300000D03*
%TD*%
D14*
%TO.C,R24*%
X48260000Y-146050000D03*
D15*
X55880000Y-146050000D03*
%TD*%
D14*
%TO.C,R19*%
X43180000Y-44450000D03*
D15*
X35560000Y-44450000D03*
%TD*%
D14*
%TO.C,R20*%
X50800000Y-60960000D03*
D15*
X43180000Y-60960000D03*
%TD*%
D14*
%TO.C,R23*%
X55880000Y-110490000D03*
D15*
X48260000Y-110490000D03*
%TD*%
D14*
%TO.C,R22*%
X55880000Y-142240000D03*
D15*
X48260000Y-142240000D03*
%TD*%
D29*
%TO.C,R18*%
X119380000Y-80010000D03*
D30*
X139700000Y-80010000D03*
%TD*%
D29*
%TO.C,R17*%
X119380000Y-86360000D03*
D30*
X139700000Y-86360000D03*
%TD*%
D14*
%TO.C,R12*%
X81280000Y-67310000D03*
D15*
X73660000Y-67310000D03*
%TD*%
D14*
%TO.C,R10*%
X83820000Y-81280000D03*
D15*
X83820000Y-73660000D03*
%TD*%
D14*
%TO.C,R6*%
X138430000Y-163195000D03*
D15*
X138430000Y-155575000D03*
%TD*%
D14*
%TO.C,R9*%
X99060000Y-73660000D03*
D15*
X106680000Y-73660000D03*
%TD*%
D14*
%TO.C,R11*%
X107950000Y-67310000D03*
D15*
X100330000Y-67310000D03*
%TD*%
D29*
%TO.C,R15*%
X119380000Y-107950000D03*
D30*
X139700000Y-107950000D03*
%TD*%
D29*
%TO.C,R16*%
X119380000Y-101600000D03*
D30*
X139700000Y-101600000D03*
%TD*%
D29*
%TO.C,R13*%
X119380000Y-129540000D03*
D30*
X139700000Y-129540000D03*
%TD*%
D29*
%TO.C,R14*%
X119380000Y-123190000D03*
D30*
X139700000Y-123190000D03*
%TD*%
D14*
%TO.C,R5*%
X100330000Y-143510000D03*
D15*
X92710000Y-143510000D03*
%TD*%
D14*
%TO.C,R4*%
X92710000Y-139700000D03*
D15*
X100330000Y-139700000D03*
%TD*%
D14*
%TO.C,R21*%
X52070000Y-78740000D03*
D15*
X44450000Y-78740000D03*
%TD*%
D14*
%TO.C,R2*%
X92710000Y-135890000D03*
D15*
X100330000Y-135890000D03*
%TD*%
D14*
%TO.C,R1*%
X134620000Y-163195000D03*
D15*
X134620000Y-155575000D03*
%TD*%
D31*
%TO.C,Q5*%
X62230000Y-78740000D03*
D32*
X64770000Y-78740000D03*
X63500000Y-78740000D03*
%TD*%
D33*
%TO.C,Q4*%
X59690000Y-124460000D03*
X59690000Y-121920000D03*
D34*
X59690000Y-119380000D03*
%TD*%
D33*
%TO.C,Q3*%
X62230000Y-154940000D03*
X62230000Y-152400000D03*
D34*
X62230000Y-149860000D03*
%TD*%
D35*
%TO.C,Q1*%
X111760000Y-72390000D03*
D36*
X111760000Y-74930000D03*
X111760000Y-73660000D03*
%TD*%
D35*
%TO.C,Q2*%
X88900000Y-72390000D03*
D36*
X88900000Y-74930000D03*
X88900000Y-73660000D03*
%TD*%
D37*
%TO.C,PS1*%
X121880000Y-70040000D03*
X127080000Y-40640000D03*
D38*
X132080000Y-40640000D03*
D37*
X137280000Y-70040000D03*
%TD*%
%TO.C,L1*%
X118110000Y-156210000D03*
X118110000Y-143510000D03*
%TD*%
D39*
%TO.C,K2*%
X80010000Y-57150000D03*
D40*
X74060000Y-55200000D03*
D39*
X74010000Y-42950000D03*
X86060000Y-43000000D03*
D40*
X86060000Y-55200000D03*
%TD*%
D39*
%TO.C,K1*%
X110490000Y-57150000D03*
D40*
X104540000Y-55200000D03*
D39*
X104490000Y-42950000D03*
X116540000Y-43000000D03*
D40*
X116540000Y-55200000D03*
%TD*%
D41*
%TO.C,JP7*%
G36*
X48230000Y-101079398D02*
G01*
X48205466Y-101079398D01*
X48156635Y-101074588D01*
X48108510Y-101065016D01*
X48061555Y-101050772D01*
X48016222Y-101031995D01*
X47972949Y-101008864D01*
X47932150Y-100981604D01*
X47894221Y-100950476D01*
X47859524Y-100915779D01*
X47828396Y-100877850D01*
X47801136Y-100837051D01*
X47778005Y-100793778D01*
X47759228Y-100748445D01*
X47744984Y-100701490D01*
X47735412Y-100653365D01*
X47730602Y-100604534D01*
X47730602Y-100580000D01*
X47730000Y-100580000D01*
X47730000Y-100080000D01*
X47730602Y-100080000D01*
X47730602Y-100055466D01*
X47735412Y-100006635D01*
X47744984Y-99958510D01*
X47759228Y-99911555D01*
X47778005Y-99866222D01*
X47801136Y-99822949D01*
X47828396Y-99782150D01*
X47859524Y-99744221D01*
X47894221Y-99709524D01*
X47932150Y-99678396D01*
X47972949Y-99651136D01*
X48016222Y-99628005D01*
X48061555Y-99609228D01*
X48108510Y-99594984D01*
X48156635Y-99585412D01*
X48205466Y-99580602D01*
X48230000Y-99580602D01*
X48230000Y-99580000D01*
X48730000Y-99580000D01*
X48730000Y-101080000D01*
X48230000Y-101080000D01*
X48230000Y-101079398D01*
G37*
G36*
X49030000Y-99580000D02*
G01*
X49530000Y-99580000D01*
X49530000Y-99580602D01*
X49554534Y-99580602D01*
X49603365Y-99585412D01*
X49651490Y-99594984D01*
X49698445Y-99609228D01*
X49743778Y-99628005D01*
X49787051Y-99651136D01*
X49827850Y-99678396D01*
X49865779Y-99709524D01*
X49900476Y-99744221D01*
X49931604Y-99782150D01*
X49958864Y-99822949D01*
X49981995Y-99866222D01*
X50000772Y-99911555D01*
X50015016Y-99958510D01*
X50024588Y-100006635D01*
X50029398Y-100055466D01*
X50029398Y-100080000D01*
X50030000Y-100080000D01*
X50030000Y-100580000D01*
X50029398Y-100580000D01*
X50029398Y-100604534D01*
X50024588Y-100653365D01*
X50015016Y-100701490D01*
X50000772Y-100748445D01*
X49981995Y-100793778D01*
X49958864Y-100837051D01*
X49931604Y-100877850D01*
X49900476Y-100915779D01*
X49865779Y-100950476D01*
X49827850Y-100981604D01*
X49787051Y-101008864D01*
X49743778Y-101031995D01*
X49698445Y-101050772D01*
X49651490Y-101065016D01*
X49603365Y-101074588D01*
X49554534Y-101079398D01*
X49530000Y-101079398D01*
X49530000Y-101080000D01*
X49030000Y-101080000D01*
X49030000Y-99580000D01*
G37*
%TD*%
%TO.C,JP6*%
G36*
X48260000Y-132829398D02*
G01*
X48235466Y-132829398D01*
X48186635Y-132824588D01*
X48138510Y-132815016D01*
X48091555Y-132800772D01*
X48046222Y-132781995D01*
X48002949Y-132758864D01*
X47962150Y-132731604D01*
X47924221Y-132700476D01*
X47889524Y-132665779D01*
X47858396Y-132627850D01*
X47831136Y-132587051D01*
X47808005Y-132543778D01*
X47789228Y-132498445D01*
X47774984Y-132451490D01*
X47765412Y-132403365D01*
X47760602Y-132354534D01*
X47760602Y-132330000D01*
X47760000Y-132330000D01*
X47760000Y-131830000D01*
X47760602Y-131830000D01*
X47760602Y-131805466D01*
X47765412Y-131756635D01*
X47774984Y-131708510D01*
X47789228Y-131661555D01*
X47808005Y-131616222D01*
X47831136Y-131572949D01*
X47858396Y-131532150D01*
X47889524Y-131494221D01*
X47924221Y-131459524D01*
X47962150Y-131428396D01*
X48002949Y-131401136D01*
X48046222Y-131378005D01*
X48091555Y-131359228D01*
X48138510Y-131344984D01*
X48186635Y-131335412D01*
X48235466Y-131330602D01*
X48260000Y-131330602D01*
X48260000Y-131330000D01*
X48760000Y-131330000D01*
X48760000Y-132830000D01*
X48260000Y-132830000D01*
X48260000Y-132829398D01*
G37*
G36*
X49060000Y-131330000D02*
G01*
X49560000Y-131330000D01*
X49560000Y-131330602D01*
X49584534Y-131330602D01*
X49633365Y-131335412D01*
X49681490Y-131344984D01*
X49728445Y-131359228D01*
X49773778Y-131378005D01*
X49817051Y-131401136D01*
X49857850Y-131428396D01*
X49895779Y-131459524D01*
X49930476Y-131494221D01*
X49961604Y-131532150D01*
X49988864Y-131572949D01*
X50011995Y-131616222D01*
X50030772Y-131661555D01*
X50045016Y-131708510D01*
X50054588Y-131756635D01*
X50059398Y-131805466D01*
X50059398Y-131830000D01*
X50060000Y-131830000D01*
X50060000Y-132330000D01*
X50059398Y-132330000D01*
X50059398Y-132354534D01*
X50054588Y-132403365D01*
X50045016Y-132451490D01*
X50030772Y-132498445D01*
X50011995Y-132543778D01*
X49988864Y-132587051D01*
X49961604Y-132627850D01*
X49930476Y-132665779D01*
X49895779Y-132700476D01*
X49857850Y-132731604D01*
X49817051Y-132758864D01*
X49773778Y-132781995D01*
X49728445Y-132800772D01*
X49681490Y-132815016D01*
X49633365Y-132824588D01*
X49584534Y-132829398D01*
X49560000Y-132829398D01*
X49560000Y-132830000D01*
X49060000Y-132830000D01*
X49060000Y-131330000D01*
G37*
%TD*%
D42*
%TO.C,J24*%
X48260000Y-33020000D03*
X53340000Y-33020000D03*
G36*
G01*
X59460000Y-31469998D02*
X59460000Y-34570002D01*
G75*
G02*
X59210002Y-34820000I-249998J0D01*
G01*
X57629998Y-34820000D01*
G75*
G02*
X57380000Y-34570002I0J249998D01*
G01*
X57380000Y-31469998D01*
G75*
G02*
X57629998Y-31220000I249998J0D01*
G01*
X59210002Y-31220000D01*
G75*
G02*
X59460000Y-31469998I0J-249998D01*
G01*
G37*
%TD*%
%TO.C,J23*%
X74930000Y-33020000D03*
X80010000Y-33020000D03*
G36*
G01*
X86130000Y-31469998D02*
X86130000Y-34570002D01*
G75*
G02*
X85880002Y-34820000I-249998J0D01*
G01*
X84299998Y-34820000D01*
G75*
G02*
X84050000Y-34570002I0J249998D01*
G01*
X84050000Y-31469998D01*
G75*
G02*
X84299998Y-31220000I249998J0D01*
G01*
X85880002Y-31220000D01*
G75*
G02*
X86130000Y-31469998I0J-249998D01*
G01*
G37*
%TD*%
D21*
%TO.C,J22*%
X64770000Y-83820000D03*
D22*
X62230000Y-83820000D03*
%TD*%
D42*
%TO.C,J27*%
X50165000Y-162560000D03*
G36*
G01*
X44045000Y-164110002D02*
X44045000Y-161009998D01*
G75*
G02*
X44294998Y-160760000I249998J0D01*
G01*
X45875002Y-160760000D01*
G75*
G02*
X46125000Y-161009998I0J-249998D01*
G01*
X46125000Y-164110002D01*
G75*
G02*
X45875002Y-164360000I-249998J0D01*
G01*
X44294998Y-164360000D01*
G75*
G02*
X44045000Y-164110002I0J249998D01*
G01*
G37*
%TD*%
%TO.C,J26*%
X71755000Y-162560000D03*
G36*
G01*
X65635000Y-164110002D02*
X65635000Y-161009998D01*
G75*
G02*
X65884998Y-160760000I249998J0D01*
G01*
X67465002Y-160760000D01*
G75*
G02*
X67715000Y-161009998I0J-249998D01*
G01*
X67715000Y-164110002D01*
G75*
G02*
X67465002Y-164360000I-249998J0D01*
G01*
X65884998Y-164360000D01*
G75*
G02*
X65635000Y-164110002I0J249998D01*
G01*
G37*
%TD*%
D43*
%TO.C,J25*%
X144780000Y-46990000D03*
G36*
G01*
X146330002Y-53110000D02*
X143229998Y-53110000D01*
G75*
G02*
X142980000Y-52860002I0J249998D01*
G01*
X142980000Y-51279998D01*
G75*
G02*
X143229998Y-51030000I249998J0D01*
G01*
X146330002Y-51030000D01*
G75*
G02*
X146580000Y-51279998I0J-249998D01*
G01*
X146580000Y-52860002D01*
G75*
G02*
X146330002Y-53110000I-249998J0D01*
G01*
G37*
%TD*%
%TO.C,J21*%
X43180000Y-119380000D03*
X43180000Y-114300000D03*
X43180000Y-109220000D03*
G36*
G01*
X41629998Y-103100000D02*
X44730002Y-103100000D01*
G75*
G02*
X44980000Y-103349998I0J-249998D01*
G01*
X44980000Y-104930002D01*
G75*
G02*
X44730002Y-105180000I-249998J0D01*
G01*
X41629998Y-105180000D01*
G75*
G02*
X41380000Y-104930002I0J249998D01*
G01*
X41380000Y-103349998D01*
G75*
G02*
X41629998Y-103100000I249998J0D01*
G01*
G37*
%TD*%
%TO.C,J20*%
X43180000Y-151130000D03*
X43180000Y-146050000D03*
X43180000Y-140970000D03*
G36*
G01*
X41629998Y-134850000D02*
X44730002Y-134850000D01*
G75*
G02*
X44980000Y-135099998I0J-249998D01*
G01*
X44980000Y-136680002D01*
G75*
G02*
X44730002Y-136930000I-249998J0D01*
G01*
X41629998Y-136930000D01*
G75*
G02*
X41380000Y-136680002I0J249998D01*
G01*
X41380000Y-135099998D01*
G75*
G02*
X41629998Y-134850000I249998J0D01*
G01*
G37*
%TD*%
D21*
%TO.C,J19*%
X49530000Y-124460000D03*
D22*
X49530000Y-121920000D03*
%TD*%
D21*
%TO.C,J8*%
X116840000Y-74930000D03*
D22*
X116840000Y-72390000D03*
%TD*%
D21*
%TO.C,J18*%
X58420000Y-154940000D03*
D22*
X58420000Y-152400000D03*
%TD*%
D43*
%TO.C,J11*%
X144780000Y-102870000D03*
G36*
G01*
X146330002Y-108990000D02*
X143229998Y-108990000D01*
G75*
G02*
X142980000Y-108740002I0J249998D01*
G01*
X142980000Y-107159998D01*
G75*
G02*
X143229998Y-106910000I249998J0D01*
G01*
X146330002Y-106910000D01*
G75*
G02*
X146580000Y-107159998I0J-249998D01*
G01*
X146580000Y-108740002D01*
G75*
G02*
X146330002Y-108990000I-249998J0D01*
G01*
G37*
%TD*%
%TO.C,J10*%
X144780000Y-124460000D03*
G36*
G01*
X146330002Y-130580000D02*
X143229998Y-130580000D01*
G75*
G02*
X142980000Y-130330002I0J249998D01*
G01*
X142980000Y-128749998D01*
G75*
G02*
X143229998Y-128500000I249998J0D01*
G01*
X146330002Y-128500000D01*
G75*
G02*
X146580000Y-128749998I0J-249998D01*
G01*
X146580000Y-130330002D01*
G75*
G02*
X146330002Y-130580000I-249998J0D01*
G01*
G37*
%TD*%
D42*
%TO.C,J14*%
X101600000Y-33020000D03*
X106680000Y-33020000D03*
G36*
G01*
X112800000Y-31469998D02*
X112800000Y-34570002D01*
G75*
G02*
X112550002Y-34820000I-249998J0D01*
G01*
X110969998Y-34820000D01*
G75*
G02*
X110720000Y-34570002I0J249998D01*
G01*
X110720000Y-31469998D01*
G75*
G02*
X110969998Y-31220000I249998J0D01*
G01*
X112550002Y-31220000D01*
G75*
G02*
X112800000Y-31469998I0J-249998D01*
G01*
G37*
%TD*%
%TO.C,J13*%
X128270000Y-33020000D03*
X133350000Y-33020000D03*
G36*
G01*
X139470000Y-31469998D02*
X139470000Y-34570002D01*
G75*
G02*
X139220002Y-34820000I-249998J0D01*
G01*
X137639998Y-34820000D01*
G75*
G02*
X137390000Y-34570002I0J249998D01*
G01*
X137390000Y-31469998D01*
G75*
G02*
X137639998Y-31220000I249998J0D01*
G01*
X139220002Y-31220000D01*
G75*
G02*
X139470000Y-31469998I0J-249998D01*
G01*
G37*
%TD*%
D43*
%TO.C,J12*%
X144780000Y-81280000D03*
G36*
G01*
X146330002Y-87400000D02*
X143229998Y-87400000D01*
G75*
G02*
X142980000Y-87150002I0J249998D01*
G01*
X142980000Y-85569998D01*
G75*
G02*
X143229998Y-85320000I249998J0D01*
G01*
X146330002Y-85320000D01*
G75*
G02*
X146580000Y-85569998I0J-249998D01*
G01*
X146580000Y-87150002D01*
G75*
G02*
X146330002Y-87400000I-249998J0D01*
G01*
G37*
%TD*%
D21*
%TO.C,J9*%
X93980000Y-74930000D03*
D22*
X93980000Y-72390000D03*
%TD*%
D43*
%TO.C,J1*%
X144780000Y-146050000D03*
G36*
G01*
X146330002Y-152170000D02*
X143229998Y-152170000D01*
G75*
G02*
X142980000Y-151920002I0J249998D01*
G01*
X142980000Y-150339998D01*
G75*
G02*
X143229998Y-150090000I249998J0D01*
G01*
X146330002Y-150090000D01*
G75*
G02*
X146580000Y-150339998I0J-249998D01*
G01*
X146580000Y-151920002D01*
G75*
G02*
X146330002Y-152170000I-249998J0D01*
G01*
G37*
%TD*%
D21*
%TO.C,J7*%
X83820000Y-114300000D03*
X83820000Y-116840000D03*
X83820000Y-119380000D03*
X83820000Y-121920000D03*
X83820000Y-124460000D03*
X83820000Y-127000000D03*
X83820000Y-129540000D03*
X83820000Y-132080000D03*
X83820000Y-134620000D03*
D22*
X83820000Y-137160000D03*
%TD*%
D21*
%TO.C,J4*%
X109220000Y-114300000D03*
X109220000Y-116840000D03*
X109220000Y-119380000D03*
X109220000Y-121920000D03*
X109220000Y-124460000D03*
X109220000Y-127000000D03*
X109220000Y-129540000D03*
X109220000Y-132080000D03*
X109220000Y-134620000D03*
D22*
X109220000Y-137160000D03*
%TD*%
D44*
%TO.C,D18*%
X59690000Y-69850000D03*
D25*
X69850000Y-69850000D03*
%TD*%
D14*
%TO.C,D12*%
X50800000Y-52070000D03*
D26*
X43180000Y-52070000D03*
%TD*%
D14*
%TO.C,D11*%
X43180000Y-48260000D03*
D26*
X50800000Y-48260000D03*
%TD*%
D14*
%TO.C,D10*%
X50800000Y-69850000D03*
D26*
X43180000Y-69850000D03*
%TD*%
D14*
%TO.C,D9*%
X43180000Y-66040000D03*
D26*
X50800000Y-66040000D03*
%TD*%
D14*
%TO.C,D8*%
X52070000Y-87630000D03*
D26*
X44450000Y-87630000D03*
%TD*%
D14*
%TO.C,D7*%
X44450000Y-83820000D03*
D26*
X52070000Y-83820000D03*
%TD*%
D14*
%TO.C,D2*%
X100330000Y-128270000D03*
D26*
X92710000Y-128270000D03*
%TD*%
D14*
%TO.C,D1*%
X92710000Y-132080000D03*
D26*
X100330000Y-132080000D03*
%TD*%
D44*
%TO.C,D16*%
X58420000Y-104140000D03*
D25*
X48260000Y-104140000D03*
%TD*%
D44*
%TO.C,D15*%
X58420000Y-135890000D03*
D25*
X48260000Y-135890000D03*
%TD*%
D16*
%TO.C,D14*%
X63500000Y-109220000D03*
D17*
X66040000Y-109220000D03*
%TD*%
D16*
%TO.C,D13*%
X63500000Y-140970000D03*
D17*
X66040000Y-140970000D03*
%TD*%
D44*
%TO.C,D6*%
X83820000Y-62230000D03*
D25*
X73660000Y-62230000D03*
%TD*%
D16*
%TO.C,D3*%
X114300000Y-67310000D03*
D17*
X116840000Y-67310000D03*
%TD*%
D16*
%TO.C,D4*%
X87630000Y-67310000D03*
D17*
X90170000Y-67310000D03*
%TD*%
D44*
%TO.C,D5*%
X110490000Y-62230000D03*
D25*
X100330000Y-62230000D03*
%TD*%
D15*
%TO.C,C9*%
X78660000Y-73660000D03*
X73660000Y-73660000D03*
%TD*%
%TO.C,C8*%
X144780000Y-67270000D03*
D26*
X144780000Y-64770000D03*
%TD*%
D15*
%TO.C,C4*%
X135890000Y-92750000D03*
D26*
X135890000Y-95250000D03*
%TD*%
D15*
%TO.C,C3*%
X137160000Y-114340000D03*
D26*
X137160000Y-116840000D03*
%TD*%
D15*
%TO.C,C2*%
X137160000Y-135930000D03*
D26*
X137160000Y-138430000D03*
%TD*%
D15*
%TO.C,C5*%
X48180000Y-55880000D03*
X43180000Y-55880000D03*
%TD*%
%TO.C,C6*%
X48180000Y-73660000D03*
X43180000Y-73660000D03*
%TD*%
%TO.C,C1*%
X116800000Y-93980000D03*
D26*
X114300000Y-93980000D03*
%TD*%
D15*
%TO.C,C7*%
X49450000Y-91440000D03*
X44450000Y-91440000D03*
%TD*%
M02*
