M48
; DRILL file {KiCad 5.1.9-73d0e3b20d~88~ubuntu20.04.1} date Fri Apr 23 09:21:23 2021
; FORMAT={-:-/ absolute / metric / decimal}
; #@! TF.CreationDate,2021-04-23T09:21:23+02:00
; #@! TF.GenerationSoftware,Kicad,Pcbnew,5.1.9-73d0e3b20d~88~ubuntu20.04.1
; #@! TF.FileFunction,Plated,1,2,PTH
FMAT,2
METRIC
T1C0.750
T2C0.800
T3C0.900
T4C1.000
T5C1.100
T6C1.200
T7C1.300
T8C1.400
T9C3.200
%
G90
G05
T1
X57.785Y-79.375
X59.055Y-79.375
X60.325Y-79.375
X84.455Y-73.025
X84.455Y-74.295
X84.455Y-75.565
X94.615Y-126.365
X95.885Y-126.365
X97.155Y-126.365
X107.315Y-73.025
X107.315Y-74.295
X107.315Y-75.565
T2
X31.115Y-55.245
X38.735Y-55.245
X38.735Y-59.055
X38.735Y-62.865
X38.735Y-66.675
X38.735Y-71.755
X38.735Y-76.835
X38.735Y-80.645
X38.735Y-84.455
X40.005Y-89.535
X40.005Y-94.615
X40.005Y-98.425
X40.005Y-102.235
X43.735Y-66.675
X43.735Y-84.455
X43.815Y-121.285
X43.815Y-125.095
X43.815Y-153.035
X43.815Y-156.845
X45.005Y-102.235
X46.355Y-59.055
X46.355Y-62.865
X46.355Y-71.755
X46.355Y-76.835
X46.355Y-80.645
X47.625Y-89.535
X47.625Y-94.615
X47.625Y-98.425
X50.165Y-102.235
X50.165Y-109.855
X51.435Y-121.285
X51.435Y-125.095
X51.435Y-153.035
X51.435Y-156.845
X52.705Y-102.235
X52.705Y-109.855
X55.245Y-102.235
X55.245Y-109.855
X57.785Y-74.295
X57.785Y-102.235
X57.785Y-109.855
X59.055Y-114.935
X59.055Y-146.685
X60.325Y-102.235
X60.325Y-109.855
X62.865Y-102.235
X62.865Y-109.855
X65.405Y-74.295
X65.405Y-79.375
X65.405Y-86.995
X65.405Y-102.235
X65.405Y-109.855
X66.675Y-114.935
X66.675Y-146.685
X67.945Y-102.235
X67.945Y-109.855
X69.215Y-67.945
X69.215Y-74.295
X70.485Y-102.235
X70.485Y-109.855
X73.025Y-102.235
X73.025Y-109.855
X74.215Y-74.295
X75.565Y-102.235
X75.565Y-109.855
X76.835Y-67.945
X78.105Y-102.235
X78.105Y-109.855
X79.375Y-74.295
X79.375Y-81.915
X80.645Y-102.235
X80.645Y-109.855
X83.185Y-102.235
X83.185Y-109.855
X88.265Y-133.985
X88.265Y-139.065
X88.265Y-142.875
X88.265Y-146.685
X88.265Y-150.495
X88.265Y-154.305
X88.265Y-164.465
X94.615Y-74.295
X95.885Y-67.945
X95.885Y-133.985
X95.885Y-139.065
X95.885Y-142.875
X95.885Y-146.685
X95.885Y-150.495
X95.885Y-154.305
X95.885Y-164.465
X102.235Y-74.295
X103.505Y-67.945
X109.855Y-104.775
X111.125Y-122.555
X111.125Y-130.175
X111.125Y-141.605
X111.125Y-149.225
X112.355Y-104.775
X117.475Y-103.505
X117.475Y-106.045
X117.475Y-125.095
X117.475Y-127.635
X117.475Y-146.685
X117.475Y-149.225
X125.095Y-103.505
X125.095Y-106.045
X125.095Y-125.095
X125.095Y-127.635
X125.095Y-146.685
X125.095Y-149.225
X130.175Y-166.37
X130.175Y-173.99
X132.08Y-103.545
X132.08Y-106.045
X132.715Y-125.135
X132.715Y-127.635
X132.715Y-146.725
X132.715Y-149.225
X133.985Y-166.37
X133.985Y-173.99
X140.335Y-75.565
X140.335Y-78.065
T3
X51.435Y-75.565
X53.975Y-75.565
X59.055Y-120.015
X59.055Y-151.765
X61.595Y-120.015
X61.595Y-151.765
X83.185Y-67.945
X85.725Y-67.945
X109.855Y-67.945
X112.395Y-67.945
T4
X45.085Y-132.715
X45.085Y-135.255
X53.975Y-163.195
X53.975Y-165.735
X57.785Y-84.455
X60.325Y-84.455
X69.215Y-130.175
X69.215Y-132.715
X69.215Y-135.255
X69.615Y-55.835
X79.375Y-125.095
X79.375Y-127.635
X79.375Y-130.175
X79.375Y-132.715
X79.375Y-135.255
X79.375Y-137.795
X79.375Y-140.335
X79.375Y-142.875
X79.375Y-145.415
X79.375Y-147.955
X81.615Y-55.835
X89.535Y-73.025
X89.535Y-75.565
X100.095Y-55.835
X104.775Y-125.095
X104.775Y-127.635
X104.775Y-130.175
X104.775Y-132.715
X104.775Y-135.255
X104.775Y-137.795
X104.775Y-140.335
X104.775Y-142.875
X104.775Y-145.415
X104.775Y-147.955
X111.38Y-153.615
X111.38Y-172.375
X112.095Y-55.835
X112.395Y-73.025
X112.395Y-75.565
X115.57Y-156.845
X115.57Y-169.545
X116.586Y-44.831
X116.586Y-84.831
X117.435Y-75.12
X122.38Y-155.575
X122.38Y-170.375
X122.635Y-45.72
X127.635Y-45.72
X132.835Y-75.12
X134.086Y-44.831
X134.086Y-84.831
T5
X32.385Y-61.595
X32.385Y-64.135
X32.385Y-71.755
X32.385Y-74.295
X32.385Y-81.915
X32.385Y-84.455
X32.385Y-97.155
X32.385Y-99.695
X32.385Y-102.235
X43.815Y-114.935
X43.815Y-146.685
X53.975Y-114.935
X53.975Y-146.685
X55.245Y-70.485
X55.245Y-130.175
X55.245Y-132.715
X55.245Y-135.255
X57.785Y-160.655
X57.785Y-163.195
X57.785Y-165.735
X65.405Y-70.485
X69.215Y-62.865
X79.375Y-62.865
X95.885Y-62.865
X106.045Y-62.865
X113.665Y-180.975
X116.205Y-180.975
X118.745Y-180.975
X121.285Y-180.975
X126.365Y-180.975
X128.905Y-180.975
X131.445Y-180.975
X133.985Y-180.975
T6
X114.935Y-90.805
X114.935Y-97.155
X114.935Y-112.395
X114.935Y-118.745
X114.935Y-133.985
X114.935Y-140.335
X135.255Y-90.805
X135.255Y-97.155
X135.255Y-112.395
X135.255Y-118.745
X135.255Y-133.985
X135.255Y-140.335
T7
X51.555Y-38.795
X51.555Y-43.835
X51.555Y-48.875
X51.555Y-64.135
X59.055Y-38.795
X59.055Y-43.835
X59.055Y-48.875
X59.055Y-64.135
X69.565Y-43.585
X75.565Y-57.785
X81.615Y-43.635
X100.045Y-43.585
X106.045Y-57.785
X112.095Y-43.635
X131.445Y-155.575
X131.445Y-160.655
T8
X38.735Y-114.935
X38.735Y-120.015
X38.735Y-125.095
X38.735Y-130.175
X38.735Y-146.685
X38.735Y-151.765
X38.735Y-156.845
X38.735Y-161.925
X40.64Y-173.355
X43.815Y-33.655
X45.72Y-173.355
X48.895Y-33.655
X53.975Y-33.655
X62.23Y-173.355
X67.31Y-173.355
X70.485Y-33.655
X75.565Y-33.655
X80.645Y-33.655
X97.155Y-33.655
X102.235Y-33.655
X107.315Y-33.655
X123.825Y-33.655
X128.905Y-33.655
X133.985Y-33.655
X140.335Y-57.785
X140.335Y-62.865
X140.335Y-92.075
X140.335Y-97.155
X140.335Y-113.665
X140.335Y-118.745
X140.335Y-135.255
X140.335Y-140.335
X140.335Y-156.845
X140.335Y-161.925
T9
X29.591Y-25.4
X29.591Y-188.341
X150.812Y-25.4
X150.812Y-188.341
T4
G00X139.865Y-172.165
M15
G01X138.365Y-172.165
M16
G05
G00X138.365Y-174.665
M15
G01X139.865Y-174.665
M16
G05
G00X138.365Y-179.665
M15
G01X139.865Y-179.665
M16
G05
G00X138.365Y-182.165
M15
G01X139.865Y-182.165
M16
G05
G00X144.115Y-176.415
M15
G01X144.115Y-177.915
M16
G05
T0
M30
