%TF.GenerationSoftware,KiCad,Pcbnew,5.1.9-73d0e3b20d~88~ubuntu20.04.1*%
%TF.CreationDate,2021-04-23T09:21:03+02:00*%
%TF.ProjectId,NodeStandard,4e6f6465-5374-4616-9e64-6172642e6b69,V0.9*%
%TF.SameCoordinates,Original*%
%TF.FileFunction,Soldermask,Bot*%
%TF.FilePolarity,Negative*%
%FSLAX46Y46*%
G04 Gerber Fmt 4.6, Leading zero omitted, Abs format (unit mm)*
G04 Created by KiCad (PCBNEW 5.1.9-73d0e3b20d~88~ubuntu20.04.1) date 2021-04-23 09:21:03*
%MOMM*%
%LPD*%
G01*
G04 APERTURE LIST*
%ADD10C,1.600000*%
%ADD11R,1.600000X1.600000*%
%ADD12O,2.080000X3.600000*%
%ADD13C,1.500000*%
%ADD14R,1.800000X2.800000*%
%ADD15R,2.800000X1.800000*%
%ADD16C,2.000000*%
%ADD17R,2.000000X2.000000*%
%ADD18O,1.600000X1.600000*%
%ADD19R,1.050000X1.500000*%
%ADD20O,1.050000X1.500000*%
%ADD21C,2.200000*%
%ADD22C,5.600000*%
%ADD23C,0.100000*%
%ADD24C,1.800000*%
%ADD25R,1.800000X1.800000*%
%ADD26O,3.000000X2.000000*%
%ADD27O,2.000000X3.000000*%
%ADD28R,2.000000X3.000000*%
%ADD29O,1.700000X1.700000*%
%ADD30R,1.700000X1.700000*%
%ADD31C,1.100000*%
%ADD32R,2.200000X2.200000*%
%ADD33C,2.600000*%
%ADD34R,2.600000X2.600000*%
%ADD35O,2.400000X2.400000*%
%ADD36C,2.400000*%
%ADD37O,2.000000X1.905000*%
%ADD38R,2.000000X1.905000*%
%ADD39R,1.500000X1.050000*%
%ADD40O,1.500000X1.050000*%
%ADD41C,2.300000*%
%ADD42R,2.000000X2.300000*%
%ADD43C,3.000000*%
%ADD44C,2.500000*%
%ADD45O,3.600000X2.080000*%
%ADD46O,2.200000X2.200000*%
G04 APERTURE END LIST*
D10*
%TO.C,C4*%
X132080000Y-103545000D03*
D11*
X132080000Y-106045000D03*
%TD*%
D12*
%TO.C,J13*%
X123825000Y-33655000D03*
X128905000Y-33655000D03*
G36*
G01*
X135025000Y-32104997D02*
X135025000Y-35205003D01*
G75*
G02*
X134775003Y-35455000I-249997J0D01*
G01*
X133194997Y-35455000D01*
G75*
G02*
X132945000Y-35205003I0J249997D01*
G01*
X132945000Y-32104997D01*
G75*
G02*
X133194997Y-31855000I249997J0D01*
G01*
X134775003Y-31855000D01*
G75*
G02*
X135025000Y-32104997I0J-249997D01*
G01*
G37*
%TD*%
D13*
%TO.C,J2*%
X139115000Y-177165000D03*
X144115000Y-172165000D03*
X144115000Y-182165000D03*
X146615000Y-182165000D03*
X146615000Y-172165000D03*
D14*
X144115000Y-177165000D03*
D15*
X139115000Y-172165000D03*
X139115000Y-182165000D03*
X139115000Y-174665000D03*
X139115000Y-179665000D03*
%TD*%
D16*
%TO.C,REF\u002A\u002A*%
X111380000Y-172375000D03*
%TD*%
%TO.C,REF\u002A\u002A*%
X111380000Y-153615000D03*
%TD*%
D17*
%TO.C,TP6*%
X122380000Y-155575000D03*
%TD*%
%TO.C,TP5*%
X122380000Y-170375000D03*
%TD*%
%TO.C,LM2596Out-1*%
X116586000Y-84831000D03*
%TD*%
%TO.C,LM2596Out+1*%
X134086000Y-84831000D03*
%TD*%
%TO.C,LM2596IN-1*%
X116586000Y-44831000D03*
%TD*%
%TO.C,LM2596IN+1*%
X134086000Y-44831000D03*
%TD*%
D18*
%TO.C,R30*%
X95885000Y-133985000D03*
D10*
X88265000Y-133985000D03*
%TD*%
D19*
%TO.C,Q6*%
X94615000Y-126365000D03*
D20*
X97155000Y-126365000D03*
X95885000Y-126365000D03*
%TD*%
D21*
%TO.C,REF\u002A\u002A*%
X110109000Y-137795000D03*
%TD*%
%TO.C,REF\u002A\u002A*%
X74168000Y-137858500D03*
%TD*%
D22*
%TO.C,REF\u002A\u002A*%
X150812500Y-188341000D03*
%TD*%
%TO.C,REF\u002A\u002A*%
X29591000Y-188341000D03*
%TD*%
%TO.C,REF\u002A\u002A*%
X150812500Y-25400000D03*
%TD*%
%TO.C,REF\u002A\u002A*%
X29591000Y-25400000D03*
%TD*%
D23*
%TO.C,JP8*%
G36*
X49895000Y-27270000D02*
G01*
X49895000Y-29270000D01*
X47895000Y-29270000D01*
X47895000Y-27270000D01*
X49895000Y-27270000D01*
G37*
G36*
X49895000Y-24070000D02*
G01*
X49895000Y-26070000D01*
X47895000Y-26070000D01*
X47895000Y-24070000D01*
X49895000Y-24070000D01*
G37*
%TD*%
%TO.C,JP5*%
G36*
X103235000Y-27270000D02*
G01*
X103235000Y-29270000D01*
X101235000Y-29270000D01*
X101235000Y-27270000D01*
X103235000Y-27270000D01*
G37*
G36*
X103235000Y-24070000D02*
G01*
X103235000Y-26070000D01*
X101235000Y-26070000D01*
X101235000Y-24070000D01*
X103235000Y-24070000D01*
G37*
%TD*%
%TO.C,JP4*%
G36*
X129905000Y-27270000D02*
G01*
X129905000Y-29270000D01*
X127905000Y-29270000D01*
X127905000Y-27270000D01*
X129905000Y-27270000D01*
G37*
G36*
X129905000Y-24070000D02*
G01*
X129905000Y-26070000D01*
X127905000Y-26070000D01*
X127905000Y-24070000D01*
X129905000Y-24070000D01*
G37*
%TD*%
%TO.C,JP3*%
G36*
X145450000Y-93075000D02*
G01*
X143450000Y-93075000D01*
X143450000Y-91075000D01*
X145450000Y-91075000D01*
X145450000Y-93075000D01*
G37*
G36*
X148650000Y-93075000D02*
G01*
X146650000Y-93075000D01*
X146650000Y-91075000D01*
X148650000Y-91075000D01*
X148650000Y-93075000D01*
G37*
%TD*%
%TO.C,JP2*%
G36*
X145450000Y-114665000D02*
G01*
X143450000Y-114665000D01*
X143450000Y-112665000D01*
X145450000Y-112665000D01*
X145450000Y-114665000D01*
G37*
G36*
X148650000Y-114665000D02*
G01*
X146650000Y-114665000D01*
X146650000Y-112665000D01*
X148650000Y-112665000D01*
X148650000Y-114665000D01*
G37*
%TD*%
%TO.C,JP1*%
G36*
X145450000Y-136255000D02*
G01*
X143450000Y-136255000D01*
X143450000Y-134255000D01*
X145450000Y-134255000D01*
X145450000Y-136255000D01*
G37*
G36*
X148650000Y-136255000D02*
G01*
X146650000Y-136255000D01*
X146650000Y-134255000D01*
X148650000Y-134255000D01*
X148650000Y-136255000D01*
G37*
%TD*%
D18*
%TO.C,R3*%
X95885000Y-164465000D03*
D10*
X88265000Y-164465000D03*
%TD*%
D24*
%TO.C,D17*%
X53975000Y-75565000D03*
D25*
X51435000Y-75565000D03*
%TD*%
D26*
%TO.C,K3*%
X59055000Y-38795000D03*
X51555000Y-43835000D03*
X59055000Y-48875000D03*
X51555000Y-48875000D03*
X51555000Y-38795000D03*
X59055000Y-43835000D03*
D27*
X51555000Y-64135000D03*
D28*
X59055000Y-64135000D03*
%TD*%
D29*
%TO.C,J29*%
X69215000Y-135255000D03*
X69215000Y-132715000D03*
D30*
X69215000Y-130175000D03*
%TD*%
D31*
%TO.C,J28*%
X29845000Y-102235000D03*
D21*
X32385000Y-102235000D03*
D31*
X29845000Y-99695000D03*
D21*
X32385000Y-99695000D03*
D31*
X29845000Y-97155000D03*
D32*
X32385000Y-97155000D03*
%TD*%
D31*
%TO.C,J17*%
X29845000Y-84455000D03*
D21*
X32385000Y-84455000D03*
D31*
X29845000Y-81915000D03*
D32*
X32385000Y-81915000D03*
%TD*%
D31*
%TO.C,J16*%
X29845000Y-74295000D03*
D21*
X32385000Y-74295000D03*
D31*
X29845000Y-71755000D03*
D32*
X32385000Y-71755000D03*
%TD*%
D31*
%TO.C,J15*%
X29845000Y-64135000D03*
D21*
X32385000Y-64135000D03*
D31*
X29845000Y-61595000D03*
D32*
X32385000Y-61595000D03*
%TD*%
D21*
%TO.C,J6*%
X121285000Y-180975000D03*
X118745000Y-180975000D03*
X116205000Y-180975000D03*
D32*
X113665000Y-180975000D03*
%TD*%
D21*
%TO.C,J5*%
X133985000Y-180975000D03*
X131445000Y-180975000D03*
X128905000Y-180975000D03*
D32*
X126365000Y-180975000D03*
%TD*%
D18*
%TO.C,OK3*%
X117475000Y-106045000D03*
X125095000Y-103505000D03*
X117475000Y-103505000D03*
D11*
X125095000Y-106045000D03*
%TD*%
D18*
%TO.C,OK2*%
X117475000Y-127635000D03*
X125095000Y-125095000D03*
X117475000Y-125095000D03*
D11*
X125095000Y-127635000D03*
%TD*%
D18*
%TO.C,OK1*%
X117475000Y-149225000D03*
X125095000Y-146685000D03*
X117475000Y-146685000D03*
D11*
X125095000Y-149225000D03*
%TD*%
D33*
%TO.C,J3*%
X131445000Y-160655000D03*
D34*
X131445000Y-155575000D03*
%TD*%
D18*
%TO.C,U1*%
X83185000Y-109855000D03*
X50165000Y-102235000D03*
X80645000Y-109855000D03*
X52705000Y-102235000D03*
X78105000Y-109855000D03*
X55245000Y-102235000D03*
X75565000Y-109855000D03*
X57785000Y-102235000D03*
X73025000Y-109855000D03*
X60325000Y-102235000D03*
X70485000Y-109855000D03*
X62865000Y-102235000D03*
X67945000Y-109855000D03*
X65405000Y-102235000D03*
X65405000Y-109855000D03*
X67945000Y-102235000D03*
X62865000Y-109855000D03*
X70485000Y-102235000D03*
X60325000Y-109855000D03*
X73025000Y-102235000D03*
X57785000Y-109855000D03*
X75565000Y-102235000D03*
X55245000Y-109855000D03*
X78105000Y-102235000D03*
X52705000Y-109855000D03*
X80645000Y-102235000D03*
X50165000Y-109855000D03*
D11*
X83185000Y-102235000D03*
%TD*%
D18*
%TO.C,R29*%
X57785000Y-74295000D03*
D10*
X65405000Y-74295000D03*
%TD*%
D18*
%TO.C,R28*%
X65405000Y-86995000D03*
D10*
X65405000Y-79375000D03*
%TD*%
D18*
%TO.C,R8*%
X111125000Y-122555000D03*
D10*
X111125000Y-130175000D03*
%TD*%
D18*
%TO.C,R7*%
X111125000Y-149225000D03*
D10*
X111125000Y-141605000D03*
%TD*%
D18*
%TO.C,R27*%
X66675000Y-114935000D03*
D10*
X59055000Y-114935000D03*
%TD*%
D18*
%TO.C,R26*%
X66675000Y-146685000D03*
D10*
X59055000Y-146685000D03*
%TD*%
D18*
%TO.C,R25*%
X51435000Y-125095000D03*
D10*
X43815000Y-125095000D03*
%TD*%
D18*
%TO.C,R24*%
X43815000Y-156845000D03*
D10*
X51435000Y-156845000D03*
%TD*%
D18*
%TO.C,R19*%
X38735000Y-55245000D03*
D10*
X31115000Y-55245000D03*
%TD*%
D18*
%TO.C,R20*%
X46355000Y-71755000D03*
D10*
X38735000Y-71755000D03*
%TD*%
D18*
%TO.C,R23*%
X51435000Y-121285000D03*
D10*
X43815000Y-121285000D03*
%TD*%
D18*
%TO.C,R22*%
X51435000Y-153035000D03*
D10*
X43815000Y-153035000D03*
%TD*%
D35*
%TO.C,R18*%
X114935000Y-90805000D03*
D36*
X135255000Y-90805000D03*
%TD*%
D35*
%TO.C,R17*%
X114935000Y-97155000D03*
D36*
X135255000Y-97155000D03*
%TD*%
D18*
%TO.C,R12*%
X76835000Y-67945000D03*
D10*
X69215000Y-67945000D03*
%TD*%
D18*
%TO.C,R10*%
X79375000Y-81915000D03*
D10*
X79375000Y-74295000D03*
%TD*%
D18*
%TO.C,R6*%
X133985000Y-173990000D03*
D10*
X133985000Y-166370000D03*
%TD*%
D18*
%TO.C,R9*%
X94615000Y-74295000D03*
D10*
X102235000Y-74295000D03*
%TD*%
D18*
%TO.C,R11*%
X103505000Y-67945000D03*
D10*
X95885000Y-67945000D03*
%TD*%
D35*
%TO.C,R15*%
X114935000Y-118745000D03*
D36*
X135255000Y-118745000D03*
%TD*%
D35*
%TO.C,R16*%
X114935000Y-112395000D03*
D36*
X135255000Y-112395000D03*
%TD*%
D35*
%TO.C,R13*%
X114935000Y-140335000D03*
D36*
X135255000Y-140335000D03*
%TD*%
D35*
%TO.C,R14*%
X114935000Y-133985000D03*
D36*
X135255000Y-133985000D03*
%TD*%
D18*
%TO.C,R5*%
X95885000Y-154305000D03*
D10*
X88265000Y-154305000D03*
%TD*%
D18*
%TO.C,R4*%
X88265000Y-150495000D03*
D10*
X95885000Y-150495000D03*
%TD*%
D18*
%TO.C,R21*%
X47625000Y-89535000D03*
D10*
X40005000Y-89535000D03*
%TD*%
D18*
%TO.C,R2*%
X88265000Y-146685000D03*
D10*
X95885000Y-146685000D03*
%TD*%
D18*
%TO.C,R1*%
X130175000Y-173990000D03*
D10*
X130175000Y-166370000D03*
%TD*%
D19*
%TO.C,Q5*%
X57785000Y-79375000D03*
D20*
X60325000Y-79375000D03*
X59055000Y-79375000D03*
%TD*%
D37*
%TO.C,Q4*%
X55245000Y-135255000D03*
X55245000Y-132715000D03*
D38*
X55245000Y-130175000D03*
%TD*%
D37*
%TO.C,Q3*%
X57785000Y-165735000D03*
X57785000Y-163195000D03*
D38*
X57785000Y-160655000D03*
%TD*%
D39*
%TO.C,Q1*%
X107315000Y-73025000D03*
D40*
X107315000Y-75565000D03*
X107315000Y-74295000D03*
%TD*%
D39*
%TO.C,Q2*%
X84455000Y-73025000D03*
D40*
X84455000Y-75565000D03*
X84455000Y-74295000D03*
%TD*%
D41*
%TO.C,PS1*%
X117435000Y-75120000D03*
X122635000Y-45720000D03*
D42*
X127635000Y-45720000D03*
D41*
X132835000Y-75120000D03*
%TD*%
%TO.C,L1*%
X115570000Y-169545000D03*
X115570000Y-156845000D03*
%TD*%
D43*
%TO.C,K2*%
X75565000Y-57785000D03*
D44*
X69615000Y-55835000D03*
D43*
X69565000Y-43585000D03*
X81615000Y-43635000D03*
D44*
X81615000Y-55835000D03*
%TD*%
D43*
%TO.C,K1*%
X106045000Y-57785000D03*
D44*
X100095000Y-55835000D03*
D43*
X100045000Y-43585000D03*
X112095000Y-43635000D03*
D44*
X112095000Y-55835000D03*
%TD*%
D12*
%TO.C,J24*%
X43815000Y-33655000D03*
X48895000Y-33655000D03*
G36*
G01*
X55015000Y-32104997D02*
X55015000Y-35205003D01*
G75*
G02*
X54765003Y-35455000I-249997J0D01*
G01*
X53184997Y-35455000D01*
G75*
G02*
X52935000Y-35205003I0J249997D01*
G01*
X52935000Y-32104997D01*
G75*
G02*
X53184997Y-31855000I249997J0D01*
G01*
X54765003Y-31855000D01*
G75*
G02*
X55015000Y-32104997I0J-249997D01*
G01*
G37*
%TD*%
%TO.C,J23*%
X70485000Y-33655000D03*
X75565000Y-33655000D03*
G36*
G01*
X81685000Y-32104997D02*
X81685000Y-35205003D01*
G75*
G02*
X81435003Y-35455000I-249997J0D01*
G01*
X79854997Y-35455000D01*
G75*
G02*
X79605000Y-35205003I0J249997D01*
G01*
X79605000Y-32104997D01*
G75*
G02*
X79854997Y-31855000I249997J0D01*
G01*
X81435003Y-31855000D01*
G75*
G02*
X81685000Y-32104997I0J-249997D01*
G01*
G37*
%TD*%
D29*
%TO.C,J22*%
X60325000Y-84455000D03*
D30*
X57785000Y-84455000D03*
%TD*%
D12*
%TO.C,J27*%
X45720000Y-173355000D03*
G36*
G01*
X39600000Y-174905003D02*
X39600000Y-171804997D01*
G75*
G02*
X39849997Y-171555000I249997J0D01*
G01*
X41430003Y-171555000D01*
G75*
G02*
X41680000Y-171804997I0J-249997D01*
G01*
X41680000Y-174905003D01*
G75*
G02*
X41430003Y-175155000I-249997J0D01*
G01*
X39849997Y-175155000D01*
G75*
G02*
X39600000Y-174905003I0J249997D01*
G01*
G37*
%TD*%
%TO.C,J26*%
X67310000Y-173355000D03*
G36*
G01*
X61190000Y-174905003D02*
X61190000Y-171804997D01*
G75*
G02*
X61439997Y-171555000I249997J0D01*
G01*
X63020003Y-171555000D01*
G75*
G02*
X63270000Y-171804997I0J-249997D01*
G01*
X63270000Y-174905003D01*
G75*
G02*
X63020003Y-175155000I-249997J0D01*
G01*
X61439997Y-175155000D01*
G75*
G02*
X61190000Y-174905003I0J249997D01*
G01*
G37*
%TD*%
D45*
%TO.C,J25*%
X140335000Y-57785000D03*
G36*
G01*
X141885003Y-63905000D02*
X138784997Y-63905000D01*
G75*
G02*
X138535000Y-63655003I0J249997D01*
G01*
X138535000Y-62074997D01*
G75*
G02*
X138784997Y-61825000I249997J0D01*
G01*
X141885003Y-61825000D01*
G75*
G02*
X142135000Y-62074997I0J-249997D01*
G01*
X142135000Y-63655003D01*
G75*
G02*
X141885003Y-63905000I-249997J0D01*
G01*
G37*
%TD*%
%TO.C,J21*%
X38735000Y-130175000D03*
X38735000Y-125095000D03*
X38735000Y-120015000D03*
G36*
G01*
X37184997Y-113895000D02*
X40285003Y-113895000D01*
G75*
G02*
X40535000Y-114144997I0J-249997D01*
G01*
X40535000Y-115725003D01*
G75*
G02*
X40285003Y-115975000I-249997J0D01*
G01*
X37184997Y-115975000D01*
G75*
G02*
X36935000Y-115725003I0J249997D01*
G01*
X36935000Y-114144997D01*
G75*
G02*
X37184997Y-113895000I249997J0D01*
G01*
G37*
%TD*%
%TO.C,J20*%
X38735000Y-161925000D03*
X38735000Y-156845000D03*
X38735000Y-151765000D03*
G36*
G01*
X37184997Y-145645000D02*
X40285003Y-145645000D01*
G75*
G02*
X40535000Y-145894997I0J-249997D01*
G01*
X40535000Y-147475003D01*
G75*
G02*
X40285003Y-147725000I-249997J0D01*
G01*
X37184997Y-147725000D01*
G75*
G02*
X36935000Y-147475003I0J249997D01*
G01*
X36935000Y-145894997D01*
G75*
G02*
X37184997Y-145645000I249997J0D01*
G01*
G37*
%TD*%
D29*
%TO.C,J19*%
X45085000Y-135255000D03*
D30*
X45085000Y-132715000D03*
%TD*%
D29*
%TO.C,J8*%
X112395000Y-75565000D03*
D30*
X112395000Y-73025000D03*
%TD*%
D29*
%TO.C,J18*%
X53975000Y-165735000D03*
D30*
X53975000Y-163195000D03*
%TD*%
D45*
%TO.C,J11*%
X140335000Y-113665000D03*
G36*
G01*
X141885003Y-119785000D02*
X138784997Y-119785000D01*
G75*
G02*
X138535000Y-119535003I0J249997D01*
G01*
X138535000Y-117954997D01*
G75*
G02*
X138784997Y-117705000I249997J0D01*
G01*
X141885003Y-117705000D01*
G75*
G02*
X142135000Y-117954997I0J-249997D01*
G01*
X142135000Y-119535003D01*
G75*
G02*
X141885003Y-119785000I-249997J0D01*
G01*
G37*
%TD*%
%TO.C,J10*%
X140335000Y-135255000D03*
G36*
G01*
X141885003Y-141375000D02*
X138784997Y-141375000D01*
G75*
G02*
X138535000Y-141125003I0J249997D01*
G01*
X138535000Y-139544997D01*
G75*
G02*
X138784997Y-139295000I249997J0D01*
G01*
X141885003Y-139295000D01*
G75*
G02*
X142135000Y-139544997I0J-249997D01*
G01*
X142135000Y-141125003D01*
G75*
G02*
X141885003Y-141375000I-249997J0D01*
G01*
G37*
%TD*%
D12*
%TO.C,J14*%
X97155000Y-33655000D03*
X102235000Y-33655000D03*
G36*
G01*
X108355000Y-32104997D02*
X108355000Y-35205003D01*
G75*
G02*
X108105003Y-35455000I-249997J0D01*
G01*
X106524997Y-35455000D01*
G75*
G02*
X106275000Y-35205003I0J249997D01*
G01*
X106275000Y-32104997D01*
G75*
G02*
X106524997Y-31855000I249997J0D01*
G01*
X108105003Y-31855000D01*
G75*
G02*
X108355000Y-32104997I0J-249997D01*
G01*
G37*
%TD*%
D45*
%TO.C,J12*%
X140335000Y-92075000D03*
G36*
G01*
X141885003Y-98195000D02*
X138784997Y-98195000D01*
G75*
G02*
X138535000Y-97945003I0J249997D01*
G01*
X138535000Y-96364997D01*
G75*
G02*
X138784997Y-96115000I249997J0D01*
G01*
X141885003Y-96115000D01*
G75*
G02*
X142135000Y-96364997I0J-249997D01*
G01*
X142135000Y-97945003D01*
G75*
G02*
X141885003Y-98195000I-249997J0D01*
G01*
G37*
%TD*%
D29*
%TO.C,J9*%
X89535000Y-75565000D03*
D30*
X89535000Y-73025000D03*
%TD*%
D45*
%TO.C,J1*%
X140335000Y-156845000D03*
G36*
G01*
X141885003Y-162965000D02*
X138784997Y-162965000D01*
G75*
G02*
X138535000Y-162715003I0J249997D01*
G01*
X138535000Y-161134997D01*
G75*
G02*
X138784997Y-160885000I249997J0D01*
G01*
X141885003Y-160885000D01*
G75*
G02*
X142135000Y-161134997I0J-249997D01*
G01*
X142135000Y-162715003D01*
G75*
G02*
X141885003Y-162965000I-249997J0D01*
G01*
G37*
%TD*%
D29*
%TO.C,J7*%
X79375000Y-125095000D03*
X79375000Y-127635000D03*
X79375000Y-130175000D03*
X79375000Y-132715000D03*
X79375000Y-135255000D03*
X79375000Y-137795000D03*
X79375000Y-140335000D03*
X79375000Y-142875000D03*
X79375000Y-145415000D03*
D30*
X79375000Y-147955000D03*
%TD*%
D29*
%TO.C,J4*%
X104775000Y-125095000D03*
X104775000Y-127635000D03*
X104775000Y-130175000D03*
X104775000Y-132715000D03*
X104775000Y-135255000D03*
X104775000Y-137795000D03*
X104775000Y-140335000D03*
X104775000Y-142875000D03*
X104775000Y-145415000D03*
D30*
X104775000Y-147955000D03*
%TD*%
D46*
%TO.C,D18*%
X55245000Y-70485000D03*
D32*
X65405000Y-70485000D03*
%TD*%
D18*
%TO.C,D12*%
X46355000Y-62865000D03*
D11*
X38735000Y-62865000D03*
%TD*%
D18*
%TO.C,D11*%
X38735000Y-59055000D03*
D11*
X46355000Y-59055000D03*
%TD*%
D18*
%TO.C,D10*%
X46355000Y-80645000D03*
D11*
X38735000Y-80645000D03*
%TD*%
D18*
%TO.C,D9*%
X38735000Y-76835000D03*
D11*
X46355000Y-76835000D03*
%TD*%
D18*
%TO.C,D8*%
X47625000Y-98425000D03*
D11*
X40005000Y-98425000D03*
%TD*%
D18*
%TO.C,D7*%
X40005000Y-94615000D03*
D11*
X47625000Y-94615000D03*
%TD*%
D18*
%TO.C,D2*%
X95885000Y-139065000D03*
D11*
X88265000Y-139065000D03*
%TD*%
D18*
%TO.C,D1*%
X88265000Y-142875000D03*
D11*
X95885000Y-142875000D03*
%TD*%
D46*
%TO.C,D16*%
X53975000Y-114935000D03*
D32*
X43815000Y-114935000D03*
%TD*%
D46*
%TO.C,D15*%
X53975000Y-146685000D03*
D32*
X43815000Y-146685000D03*
%TD*%
D24*
%TO.C,D14*%
X59055000Y-120015000D03*
D25*
X61595000Y-120015000D03*
%TD*%
D24*
%TO.C,D13*%
X59055000Y-151765000D03*
D25*
X61595000Y-151765000D03*
%TD*%
D46*
%TO.C,D6*%
X79375000Y-62865000D03*
D32*
X69215000Y-62865000D03*
%TD*%
D24*
%TO.C,D3*%
X109855000Y-67945000D03*
D25*
X112395000Y-67945000D03*
%TD*%
D24*
%TO.C,D4*%
X83185000Y-67945000D03*
D25*
X85725000Y-67945000D03*
%TD*%
D46*
%TO.C,D5*%
X106045000Y-62865000D03*
D32*
X95885000Y-62865000D03*
%TD*%
D10*
%TO.C,C9*%
X74215000Y-74295000D03*
X69215000Y-74295000D03*
%TD*%
%TO.C,C8*%
X140335000Y-78065000D03*
D11*
X140335000Y-75565000D03*
%TD*%
D10*
%TO.C,C3*%
X132715000Y-125135000D03*
D11*
X132715000Y-127635000D03*
%TD*%
D10*
%TO.C,C2*%
X132715000Y-146725000D03*
D11*
X132715000Y-149225000D03*
%TD*%
D10*
%TO.C,C5*%
X43735000Y-66675000D03*
X38735000Y-66675000D03*
%TD*%
%TO.C,C6*%
X43735000Y-84455000D03*
X38735000Y-84455000D03*
%TD*%
%TO.C,C1*%
X112355000Y-104775000D03*
D11*
X109855000Y-104775000D03*
%TD*%
D10*
%TO.C,C7*%
X45005000Y-102235000D03*
X40005000Y-102235000D03*
%TD*%
M02*
