%TF.GenerationSoftware,KiCad,Pcbnew,6.0.1-79c1e3a40b~116~ubuntu20.04.1*%
%TF.CreationDate,2022-01-16T20:57:57+01:00*%
%TF.ProjectId,NodeStandard,4e6f6465-5374-4616-9e64-6172642e6b69,V3.0*%
%TF.SameCoordinates,Original*%
%TF.FileFunction,Copper,L1,Top*%
%TF.FilePolarity,Positive*%
%FSLAX46Y46*%
G04 Gerber Fmt 4.6, Leading zero omitted, Abs format (unit mm)*
G04 Created by KiCad (PCBNEW 6.0.1-79c1e3a40b~116~ubuntu20.04.1) date 2022-01-16 20:57:57*
%MOMM*%
%LPD*%
G01*
G04 APERTURE LIST*
G04 Aperture macros list*
%AMRoundRect*
0 Rectangle with rounded corners*
0 $1 Rounding radius*
0 $2 $3 $4 $5 $6 $7 $8 $9 X,Y pos of 4 corners*
0 Add a 4 corners polygon primitive as box body*
4,1,4,$2,$3,$4,$5,$6,$7,$8,$9,$2,$3,0*
0 Add four circle primitives for the rounded corners*
1,1,$1+$1,$2,$3*
1,1,$1+$1,$4,$5*
1,1,$1+$1,$6,$7*
1,1,$1+$1,$8,$9*
0 Add four rect primitives between the rounded corners*
20,1,$1+$1,$2,$3,$4,$5,0*
20,1,$1+$1,$4,$5,$6,$7,0*
20,1,$1+$1,$6,$7,$8,$9,0*
20,1,$1+$1,$8,$9,$2,$3,0*%
%AMFreePoly0*
4,1,22,0.500000,-0.750000,0.000000,-0.750000,0.000000,-0.745033,-0.079941,-0.743568,-0.215256,-0.701293,-0.333266,-0.622738,-0.424486,-0.514219,-0.481581,-0.384460,-0.499164,-0.250000,-0.500000,-0.250000,-0.500000,0.250000,-0.499164,0.250000,-0.499963,0.256109,-0.478152,0.396186,-0.417904,0.524511,-0.324060,0.630769,-0.204165,0.706417,-0.067858,0.745374,0.000000,0.744959,0.000000,0.750000,
0.500000,0.750000,0.500000,-0.750000,0.500000,-0.750000,$1*%
%AMFreePoly1*
4,1,20,0.000000,0.744959,0.073905,0.744508,0.209726,0.703889,0.328688,0.626782,0.421226,0.519385,0.479903,0.390333,0.500000,0.250000,0.500000,-0.250000,0.499851,-0.262216,0.476331,-0.402017,0.414519,-0.529596,0.319384,-0.634700,0.198574,-0.708877,0.061801,-0.746166,0.000000,-0.745033,0.000000,-0.750000,-0.500000,-0.750000,-0.500000,0.750000,0.000000,0.750000,0.000000,0.744959,
0.000000,0.744959,$1*%
G04 Aperture macros list end*
%TA.AperFunction,ComponentPad*%
%ADD10R,2.800000X1.800000*%
%TD*%
%TA.AperFunction,ComponentPad*%
%ADD11R,1.800000X2.800000*%
%TD*%
%TA.AperFunction,WasherPad*%
%ADD12C,1.500000*%
%TD*%
%TA.AperFunction,ComponentPad*%
%ADD13C,1.600000*%
%TD*%
%TA.AperFunction,ComponentPad*%
%ADD14R,2.200000X2.200000*%
%TD*%
%TA.AperFunction,ComponentPad*%
%ADD15O,2.200000X2.200000*%
%TD*%
%TA.AperFunction,ComponentPad*%
%ADD16R,1.800000X1.800000*%
%TD*%
%TA.AperFunction,ComponentPad*%
%ADD17C,1.800000*%
%TD*%
%TA.AperFunction,ComponentPad*%
%ADD18R,1.600000X1.600000*%
%TD*%
%TA.AperFunction,ComponentPad*%
%ADD19O,1.600000X1.600000*%
%TD*%
%TA.AperFunction,ComponentPad*%
%ADD20R,1.700000X1.700000*%
%TD*%
%TA.AperFunction,ComponentPad*%
%ADD21O,1.700000X1.700000*%
%TD*%
%TA.AperFunction,ComponentPad*%
%ADD22RoundRect,0.249999X1.550001X-0.790001X1.550001X0.790001X-1.550001X0.790001X-1.550001X-0.790001X0*%
%TD*%
%TA.AperFunction,ComponentPad*%
%ADD23O,3.600000X2.080000*%
%TD*%
%TA.AperFunction,ComponentPad*%
%ADD24R,2.600000X2.600000*%
%TD*%
%TA.AperFunction,ComponentPad*%
%ADD25C,2.600000*%
%TD*%
%TA.AperFunction,ComponentPad*%
%ADD26C,2.200000*%
%TD*%
%TA.AperFunction,ComponentPad*%
%ADD27RoundRect,0.249999X0.790001X1.550001X-0.790001X1.550001X-0.790001X-1.550001X0.790001X-1.550001X0*%
%TD*%
%TA.AperFunction,ComponentPad*%
%ADD28O,2.080000X3.600000*%
%TD*%
%TA.AperFunction,ComponentPad*%
%ADD29RoundRect,0.249999X-1.550001X0.790001X-1.550001X-0.790001X1.550001X-0.790001X1.550001X0.790001X0*%
%TD*%
%TA.AperFunction,ComponentPad*%
%ADD30RoundRect,0.249999X-0.790001X-1.550001X0.790001X-1.550001X0.790001X1.550001X-0.790001X1.550001X0*%
%TD*%
%TA.AperFunction,SMDPad,CuDef*%
%ADD31FreePoly0,180.000000*%
%TD*%
%TA.AperFunction,SMDPad,CuDef*%
%ADD32FreePoly1,180.000000*%
%TD*%
%TA.AperFunction,ComponentPad*%
%ADD33C,3.000000*%
%TD*%
%TA.AperFunction,ComponentPad*%
%ADD34C,2.500000*%
%TD*%
%TA.AperFunction,ComponentPad*%
%ADD35O,3.000000X2.000000*%
%TD*%
%TA.AperFunction,ComponentPad*%
%ADD36R,2.000000X3.000000*%
%TD*%
%TA.AperFunction,ComponentPad*%
%ADD37O,2.000000X3.000000*%
%TD*%
%TA.AperFunction,ComponentPad*%
%ADD38C,2.300000*%
%TD*%
%TA.AperFunction,ComponentPad*%
%ADD39R,2.000000X2.300000*%
%TD*%
%TA.AperFunction,ComponentPad*%
%ADD40R,1.500000X1.050000*%
%TD*%
%TA.AperFunction,ComponentPad*%
%ADD41O,1.500000X1.050000*%
%TD*%
%TA.AperFunction,ComponentPad*%
%ADD42R,2.000000X1.905000*%
%TD*%
%TA.AperFunction,ComponentPad*%
%ADD43O,2.000000X1.905000*%
%TD*%
%TA.AperFunction,ComponentPad*%
%ADD44R,1.050000X1.500000*%
%TD*%
%TA.AperFunction,ComponentPad*%
%ADD45O,1.050000X1.500000*%
%TD*%
%TA.AperFunction,ComponentPad*%
%ADD46C,2.400000*%
%TD*%
%TA.AperFunction,ComponentPad*%
%ADD47O,2.400000X2.400000*%
%TD*%
%TA.AperFunction,ComponentPad*%
%ADD48C,5.600000*%
%TD*%
%TA.AperFunction,ComponentPad*%
%ADD49R,2.000000X2.000000*%
%TD*%
%TA.AperFunction,ComponentPad*%
%ADD50R,2.500000X2.500000*%
%TD*%
%TA.AperFunction,ComponentPad*%
%ADD51C,2.000000*%
%TD*%
%TA.AperFunction,Conductor*%
%ADD52C,1.000000*%
%TD*%
%TA.AperFunction,Conductor*%
%ADD53C,1.500000*%
%TD*%
%TA.AperFunction,Conductor*%
%ADD54C,0.500000*%
%TD*%
%TA.AperFunction,Conductor*%
%ADD55C,0.300000*%
%TD*%
G04 APERTURE END LIST*
D10*
%TO.P,J2,RN*%
%TO.N,unconnected-(J2-PadRN)*%
X139115000Y-179665000D03*
%TO.P,J2,TN*%
%TO.N,Net-(J2-PadTN)*%
X139115000Y-174665000D03*
%TO.P,J2,R*%
%TO.N,unconnected-(J2-PadR)*%
X139115000Y-182165000D03*
%TO.P,J2,T*%
%TO.N,Net-(C1-Pad1)*%
X139115000Y-172165000D03*
D11*
%TO.P,J2,S*%
%TO.N,Net-(J2-PadS)*%
X144115000Y-177165000D03*
D12*
%TO.P,J2,*%
%TO.N,*%
X146615000Y-172165000D03*
X146615000Y-182165000D03*
X144115000Y-182165000D03*
X144115000Y-172165000D03*
X139115000Y-177165000D03*
%TD*%
D13*
%TO.P,C7,1*%
%TO.N,Switch1*%
X40005000Y-102235000D03*
%TO.P,C7,2*%
%TO.N,GND*%
X45005000Y-102235000D03*
%TD*%
%TO.P,C6,1*%
%TO.N,Switch2*%
X38735000Y-84455000D03*
%TO.P,C6,2*%
%TO.N,GND*%
X43735000Y-84455000D03*
%TD*%
%TO.P,C5,1*%
%TO.N,Switch3*%
X38735000Y-66675000D03*
%TO.P,C5,2*%
%TO.N,GND*%
X43735000Y-66675000D03*
%TD*%
%TO.P,C9,1*%
%TO.N,+5V*%
X69215000Y-74295000D03*
%TO.P,C9,2*%
%TO.N,GND*%
X74215000Y-74295000D03*
%TD*%
D14*
%TO.P,D5,1,K*%
%TO.N,+5V*%
X95885000Y-62865000D03*
D15*
%TO.P,D5,2,A*%
%TO.N,Net-(D3-Pad1)*%
X106045000Y-62865000D03*
%TD*%
D16*
%TO.P,D4,1,K*%
%TO.N,Net-(D4-Pad1)*%
X85725000Y-67945000D03*
D17*
%TO.P,D4,2,A*%
%TO.N,Net-(D4-Pad2)*%
X83185000Y-67945000D03*
%TD*%
D16*
%TO.P,D3,1,K*%
%TO.N,Net-(D3-Pad1)*%
X112395000Y-67945000D03*
D17*
%TO.P,D3,2,A*%
%TO.N,Net-(D3-Pad2)*%
X109855000Y-67945000D03*
%TD*%
D14*
%TO.P,D6,1,K*%
%TO.N,+5V*%
X69215000Y-62865000D03*
D15*
%TO.P,D6,2,A*%
%TO.N,Net-(D4-Pad1)*%
X79375000Y-62865000D03*
%TD*%
D16*
%TO.P,D13,1,K*%
%TO.N,GND*%
X61595000Y-151765000D03*
D17*
%TO.P,D13,2,A*%
%TO.N,Net-(D13-Pad2)*%
X59055000Y-151765000D03*
%TD*%
D16*
%TO.P,D14,1,K*%
%TO.N,GND*%
X61595000Y-120015000D03*
D17*
%TO.P,D14,2,A*%
%TO.N,Net-(D14-Pad2)*%
X59055000Y-120015000D03*
%TD*%
D14*
%TO.P,D15,1,K*%
%TO.N,Net-(D15-Pad1)*%
X43815000Y-146685000D03*
D15*
%TO.P,D15,2,A*%
%TO.N,Net-(D15-Pad2)*%
X53975000Y-146685000D03*
%TD*%
D14*
%TO.P,D16,1,K*%
%TO.N,Net-(D16-Pad1)*%
X43815000Y-114935000D03*
D15*
%TO.P,D16,2,A*%
%TO.N,Net-(D16-Pad2)*%
X53975000Y-114935000D03*
%TD*%
D18*
%TO.P,D1,1,K*%
%TO.N,+3V3*%
X95885000Y-142875000D03*
D19*
%TO.P,D1,2,A*%
%TO.N,Net-(D1-Pad2)*%
X88265000Y-142875000D03*
%TD*%
D18*
%TO.P,D2,1,K*%
%TO.N,Net-(D1-Pad2)*%
X88265000Y-139065000D03*
D19*
%TO.P,D2,2,A*%
%TO.N,GND*%
X95885000Y-139065000D03*
%TD*%
D18*
%TO.P,D7,1,K*%
%TO.N,+3V3*%
X47625000Y-94615000D03*
D19*
%TO.P,D7,2,A*%
%TO.N,Switch1*%
X40005000Y-94615000D03*
%TD*%
D18*
%TO.P,D8,1,K*%
%TO.N,Switch1*%
X40005000Y-98425000D03*
D19*
%TO.P,D8,2,A*%
%TO.N,GND*%
X47625000Y-98425000D03*
%TD*%
D18*
%TO.P,D9,1,K*%
%TO.N,+3V3*%
X46355000Y-76835000D03*
D19*
%TO.P,D9,2,A*%
%TO.N,Switch2*%
X38735000Y-76835000D03*
%TD*%
D18*
%TO.P,D10,1,K*%
%TO.N,Switch2*%
X38735000Y-80645000D03*
D19*
%TO.P,D10,2,A*%
%TO.N,GND*%
X46355000Y-80645000D03*
%TD*%
D18*
%TO.P,D11,1,K*%
%TO.N,+3V3*%
X46355000Y-59055000D03*
D19*
%TO.P,D11,2,A*%
%TO.N,Switch3*%
X38735000Y-59055000D03*
%TD*%
D18*
%TO.P,D12,1,K*%
%TO.N,Switch3*%
X38735000Y-62865000D03*
D19*
%TO.P,D12,2,A*%
%TO.N,GND*%
X46355000Y-62865000D03*
%TD*%
D16*
%TO.P,D17,1,K*%
%TO.N,Net-(D17-Pad1)*%
X51435000Y-75565000D03*
D17*
%TO.P,D17,2,A*%
%TO.N,Net-(D17-Pad2)*%
X53975000Y-75565000D03*
%TD*%
D14*
%TO.P,D18,1,K*%
%TO.N,+5V*%
X65405000Y-70485000D03*
D15*
%TO.P,D18,2,A*%
%TO.N,Net-(D17-Pad1)*%
X55245000Y-70485000D03*
%TD*%
D20*
%TO.P,J4,1,Pin_1*%
%TO.N,+5V*%
X104775000Y-147955000D03*
D21*
%TO.P,J4,2,Pin_2*%
%TO.N,+3V3*%
X104775000Y-145415000D03*
%TO.P,J4,3,Pin_3*%
%TO.N,GND*%
X104775000Y-142875000D03*
%TO.P,J4,4,Pin_4*%
%TO.N,unconnected-(J4-Pad4)*%
X104775000Y-140335000D03*
%TO.P,J4,5,Pin_5*%
%TO.N,unconnected-(J4-Pad5)*%
X104775000Y-137795000D03*
%TO.P,J4,6,Pin_6*%
%TO.N,unconnected-(J4-Pad6)*%
X104775000Y-135255000D03*
%TO.P,J4,7,Pin_7*%
%TO.N,unconnected-(J4-Pad7)*%
X104775000Y-132715000D03*
%TO.P,J4,8,Pin_8*%
%TO.N,unconnected-(J4-Pad8)*%
X104775000Y-130175000D03*
%TO.P,J4,9,Pin_9*%
%TO.N,unconnected-(J4-Pad9)*%
X104775000Y-127635000D03*
%TO.P,J4,10,Pin_10*%
%TO.N,unconnected-(J4-Pad10)*%
X104775000Y-125095000D03*
%TD*%
D20*
%TO.P,J7,1,Pin_1*%
%TO.N,GPI39*%
X79375000Y-147955000D03*
D21*
%TO.P,J7,2,Pin_2*%
%TO.N,GPI36_U1RXD*%
X79375000Y-145415000D03*
%TO.P,J7,3,Pin_3*%
%TO.N,GPI35*%
X79375000Y-142875000D03*
%TO.P,J7,4,Pin_4*%
%TO.N,GPI34_BUT1*%
X79375000Y-140335000D03*
%TO.P,J7,5,Pin_5*%
%TO.N,GPIO33*%
X79375000Y-137795000D03*
%TO.P,J7,6,Pin_6*%
%TO.N,GPIO32*%
X79375000Y-135255000D03*
%TO.P,J7,7,Pin_7*%
%TO.N,GPIO16_I2C-SCL*%
X79375000Y-132715000D03*
%TO.P,J7,8,Pin_8*%
%TO.N,GPIO15_HS2_CMD*%
X79375000Y-130175000D03*
%TO.P,J7,9,Pin_9*%
%TO.N,GPIO14_HS2_CLK*%
X79375000Y-127635000D03*
%TO.P,J7,10,Pin_10*%
%TO.N,GPIO13_I2C-SDA*%
X79375000Y-125095000D03*
%TD*%
D22*
%TO.P,J1,1,Pin_1*%
%TO.N,Net-(J1-Pad1)*%
X140335000Y-161925000D03*
D23*
%TO.P,J1,2,Pin_2*%
%TO.N,Net-(J1-Pad2)*%
X140335000Y-156845000D03*
%TD*%
D24*
%TO.P,J3,1,Pin_1*%
%TO.N,Net-(J1-Pad2)*%
X131445000Y-155575000D03*
D25*
%TO.P,J3,2,Pin_2*%
%TO.N,Net-(J1-Pad1)*%
X131445000Y-160655000D03*
%TD*%
D14*
%TO.P,J5,1,Pin_1*%
%TO.N,GPIO13_I2C-SDA*%
X126365000Y-180975000D03*
D26*
%TO.P,J5,2,Pin_2*%
%TO.N,GPIO16_I2C-SCL*%
X128905000Y-180975000D03*
%TO.P,J5,3,Pin_3*%
%TO.N,Net-(J5-Pad3)*%
X131445000Y-180975000D03*
%TO.P,J5,4,Pin_4*%
%TO.N,GND*%
X133985000Y-180975000D03*
%TD*%
D14*
%TO.P,J6,1,Pin_1*%
%TO.N,GPIO16_I2C-SCL*%
X113665000Y-180975000D03*
D26*
%TO.P,J6,2,Pin_2*%
%TO.N,GPIO13_I2C-SDA*%
X116205000Y-180975000D03*
%TO.P,J6,3,Pin_3*%
%TO.N,Net-(J5-Pad3)*%
X118745000Y-180975000D03*
%TO.P,J6,4,Pin_4*%
%TO.N,GND*%
X121285000Y-180975000D03*
%TD*%
D20*
%TO.P,J9,1,Pin_1*%
%TO.N,Net-(D4-Pad1)*%
X89535000Y-73025000D03*
D21*
%TO.P,J9,2,Pin_2*%
%TO.N,GND*%
X89535000Y-75565000D03*
%TD*%
D22*
%TO.P,J12,1,Pin_1*%
%TO.N,Net-(J12-Pad1)*%
X140335000Y-97155000D03*
D23*
%TO.P,J12,2,Pin_2*%
%TO.N,Net-(J12-Pad2)*%
X140335000Y-92075000D03*
%TD*%
D27*
%TO.P,J13,1,Pin_1*%
%TO.N,Net-(J13-Pad1)*%
X133985000Y-33655000D03*
D28*
%TO.P,J13,2,Pin_2*%
%TO.N,Net-(J13-Pad2)*%
X128905000Y-33655000D03*
%TO.P,J13,3,Pin_3*%
%TO.N,Net-(J13-Pad3)*%
X123825000Y-33655000D03*
%TD*%
D27*
%TO.P,J14,1,Pin_1*%
%TO.N,Net-(J14-Pad1)*%
X107315000Y-33655000D03*
D28*
%TO.P,J14,2,Pin_2*%
%TO.N,Net-(J14-Pad2)*%
X102235000Y-33655000D03*
%TO.P,J14,3,Pin_3*%
%TO.N,Net-(J14-Pad3)*%
X97155000Y-33655000D03*
%TD*%
D22*
%TO.P,J10,1,Pin_1*%
%TO.N,Net-(J10-Pad1)*%
X140335000Y-140335000D03*
D23*
%TO.P,J10,2,Pin_2*%
%TO.N,Net-(J10-Pad2)*%
X140335000Y-135255000D03*
%TD*%
D22*
%TO.P,J11,1,Pin_1*%
%TO.N,Net-(J11-Pad1)*%
X140335000Y-118745000D03*
D23*
%TO.P,J11,2,Pin_2*%
%TO.N,Net-(J11-Pad2)*%
X140335000Y-113665000D03*
%TD*%
D14*
%TO.P,J17,1,Pin_1*%
%TO.N,Net-(J17-Pad1)*%
X32385000Y-81915000D03*
D26*
%TO.P,J17,2,Pin_2*%
%TO.N,GND*%
X32385000Y-84455000D03*
%TD*%
D14*
%TO.P,J16,1,Pin_1*%
%TO.N,Net-(J16-Pad1)*%
X32385000Y-71755000D03*
D26*
%TO.P,J16,2,Pin_2*%
%TO.N,GND*%
X32385000Y-74295000D03*
%TD*%
D14*
%TO.P,J15,1,Pin_1*%
%TO.N,Net-(J15-Pad1)*%
X32385000Y-61595000D03*
D26*
%TO.P,J15,2,Pin_2*%
%TO.N,GND*%
X32385000Y-64135000D03*
%TD*%
D20*
%TO.P,J18,1,Pin_1*%
%TO.N,Net-(D15-Pad2)*%
X53975000Y-163195000D03*
D21*
%TO.P,J18,2,Pin_2*%
%TO.N,GND*%
X53975000Y-165735000D03*
%TD*%
D20*
%TO.P,J8,1,Pin_1*%
%TO.N,Net-(D3-Pad1)*%
X112395000Y-73025000D03*
D21*
%TO.P,J8,2,Pin_2*%
%TO.N,GND*%
X112395000Y-75565000D03*
%TD*%
D20*
%TO.P,J19,1,Pin_1*%
%TO.N,Net-(D16-Pad2)*%
X45085000Y-132715000D03*
D21*
%TO.P,J19,2,Pin_2*%
%TO.N,GND*%
X45085000Y-135255000D03*
%TD*%
D29*
%TO.P,J20,1,Pin_1*%
%TO.N,Net-(D15-Pad1)*%
X38735000Y-146685000D03*
D23*
%TO.P,J20,2,Pin_2*%
X38735000Y-151765000D03*
%TO.P,J20,3,Pin_3*%
%TO.N,Net-(D15-Pad2)*%
X38735000Y-156845000D03*
%TO.P,J20,4,Pin_4*%
%TO.N,GND*%
X38735000Y-161925000D03*
%TD*%
D29*
%TO.P,J21,1,Pin_1*%
%TO.N,Net-(D16-Pad1)*%
X38735000Y-114935000D03*
D23*
%TO.P,J21,2,Pin_2*%
X38735000Y-120015000D03*
%TO.P,J21,3,Pin_3*%
%TO.N,Net-(D16-Pad2)*%
X38735000Y-125095000D03*
%TO.P,J21,4,Pin_4*%
%TO.N,GND*%
X38735000Y-130175000D03*
%TD*%
D22*
%TO.P,J25,1,Pin_1*%
%TO.N,230VAC-N*%
X140335000Y-62865000D03*
D23*
%TO.P,J25,2,Pin_2*%
%TO.N,230VAC-L*%
X140335000Y-57785000D03*
%TD*%
D30*
%TO.P,J26,1,Pin_1*%
%TO.N,+5V*%
X62230000Y-173355000D03*
D28*
%TO.P,J26,2,Pin_2*%
%TO.N,GND*%
X67310000Y-173355000D03*
%TD*%
D30*
%TO.P,J27,1,Pin_1*%
%TO.N,ExternalDCPower*%
X40640000Y-173355000D03*
D28*
%TO.P,J27,2,Pin_2*%
%TO.N,GND*%
X45720000Y-173355000D03*
%TD*%
D20*
%TO.P,J22,1,Pin_1*%
%TO.N,Net-(D17-Pad1)*%
X57785000Y-84455000D03*
D21*
%TO.P,J22,2,Pin_2*%
%TO.N,GND*%
X60325000Y-84455000D03*
%TD*%
D27*
%TO.P,J23,1,Pin_1*%
%TO.N,Net-(J23-Pad1)*%
X80645000Y-33655000D03*
D28*
%TO.P,J23,2,Pin_2*%
%TO.N,Net-(J23-Pad2)*%
X75565000Y-33655000D03*
%TO.P,J23,3,Pin_3*%
%TO.N,Net-(J23-Pad3)*%
X70485000Y-33655000D03*
%TD*%
D27*
%TO.P,J24,1,Pin_1*%
%TO.N,Net-(J24-Pad1)*%
X53975000Y-33655000D03*
D28*
%TO.P,J24,2,Pin_2*%
%TO.N,Net-(J24-Pad2)*%
X48895000Y-33655000D03*
%TO.P,J24,3,Pin_3*%
%TO.N,Net-(J24-Pad3)*%
X43815000Y-33655000D03*
%TD*%
D31*
%TO.P,JP6,1,A*%
%TO.N,ExternalDCPower*%
X45115000Y-142875000D03*
D32*
%TO.P,JP6,2,B*%
%TO.N,Net-(D15-Pad1)*%
X43815000Y-142875000D03*
%TD*%
D31*
%TO.P,JP7,1,A*%
%TO.N,ExternalDCPower*%
X45085000Y-111125000D03*
D32*
%TO.P,JP7,2,B*%
%TO.N,Net-(D16-Pad1)*%
X43785000Y-111125000D03*
%TD*%
D33*
%TO.P,K1,1*%
%TO.N,Net-(J13-Pad2)*%
X106045000Y-57785000D03*
D34*
%TO.P,K1,2*%
%TO.N,Net-(D3-Pad1)*%
X112095000Y-55835000D03*
D33*
%TO.P,K1,3*%
%TO.N,Net-(J13-Pad1)*%
X112095000Y-43635000D03*
%TO.P,K1,4*%
%TO.N,Net-(J13-Pad3)*%
X100045000Y-43585000D03*
D34*
%TO.P,K1,5*%
%TO.N,+5V*%
X100095000Y-55835000D03*
%TD*%
D33*
%TO.P,K2,1*%
%TO.N,Net-(J14-Pad2)*%
X75565000Y-57785000D03*
D34*
%TO.P,K2,2*%
%TO.N,Net-(D4-Pad1)*%
X81615000Y-55835000D03*
D33*
%TO.P,K2,3*%
%TO.N,Net-(J14-Pad1)*%
X81615000Y-43635000D03*
%TO.P,K2,4*%
%TO.N,Net-(J14-Pad3)*%
X69565000Y-43585000D03*
D34*
%TO.P,K2,5*%
%TO.N,+5V*%
X69615000Y-55835000D03*
%TD*%
D35*
%TO.P,K3,11*%
%TO.N,Net-(J23-Pad2)*%
X59055000Y-43835000D03*
%TO.P,K3,12*%
%TO.N,Net-(J23-Pad1)*%
X59055000Y-48875000D03*
%TO.P,K3,14*%
%TO.N,Net-(J23-Pad3)*%
X59055000Y-38795000D03*
%TO.P,K3,21*%
%TO.N,Net-(J24-Pad2)*%
X51555000Y-43835000D03*
%TO.P,K3,22*%
%TO.N,Net-(J24-Pad3)*%
X51555000Y-48875000D03*
%TO.P,K3,24*%
%TO.N,Net-(J24-Pad1)*%
X51555000Y-38795000D03*
D36*
%TO.P,K3,A1*%
%TO.N,+5V*%
X59055000Y-64135000D03*
D37*
%TO.P,K3,A2*%
%TO.N,Net-(D17-Pad1)*%
X51555000Y-64135000D03*
%TD*%
D38*
%TO.P,L1,1,1*%
%TO.N,Net-(J2-PadTN)*%
X115570000Y-169545000D03*
%TO.P,L1,2,2*%
%TO.N,Net-(J2-PadS)*%
X115570000Y-156845000D03*
%TD*%
D18*
%TO.P,OK1,1,AC1*%
%TO.N,Net-(OK1-Pad1)*%
X125095000Y-149225000D03*
D19*
%TO.P,OK1,2,AC2*%
%TO.N,Net-(OK1-Pad2)*%
X125095000Y-146685000D03*
%TO.P,OK1,3,E*%
%TO.N,GND*%
X117475000Y-146685000D03*
%TO.P,OK1,4,C*%
%TO.N,GPIO32*%
X117475000Y-149225000D03*
%TD*%
D18*
%TO.P,OK2,1,AC1*%
%TO.N,Net-(OK2-Pad1)*%
X125095000Y-127635000D03*
D19*
%TO.P,OK2,2,AC2*%
%TO.N,Net-(OK2-Pad2)*%
X125095000Y-125095000D03*
%TO.P,OK2,3,E*%
%TO.N,GND*%
X117475000Y-125095000D03*
%TO.P,OK2,4,C*%
%TO.N,GPIO33*%
X117475000Y-127635000D03*
%TD*%
D18*
%TO.P,OK3,1,AC1*%
%TO.N,Net-(OK3-Pad1)*%
X125095000Y-106045000D03*
D19*
%TO.P,OK3,2,AC2*%
%TO.N,Net-(OK3-Pad2)*%
X125095000Y-103505000D03*
%TO.P,OK3,3,E*%
%TO.N,GND*%
X117475000Y-103505000D03*
%TO.P,OK3,4,C*%
%TO.N,GPI36_U1RXD*%
X117475000Y-106045000D03*
%TD*%
D39*
%TO.P,PS1,1,AC/L*%
%TO.N,230VAC-L*%
X127635000Y-45720000D03*
D38*
%TO.P,PS1,2,AC/N*%
%TO.N,230VAC-N*%
X122635000Y-45720000D03*
%TO.P,PS1,3,-Vout*%
%TO.N,GND*%
X132835000Y-75120000D03*
%TO.P,PS1,4,+Vout*%
%TO.N,+5V*%
X117435000Y-75120000D03*
%TD*%
D40*
%TO.P,Q2,1,C*%
%TO.N,Net-(D4-Pad1)*%
X84455000Y-73025000D03*
D41*
%TO.P,Q2,2,B*%
%TO.N,Net-(Q2-Pad2)*%
X84455000Y-74295000D03*
%TO.P,Q2,3,E*%
%TO.N,GND*%
X84455000Y-75565000D03*
%TD*%
D40*
%TO.P,Q1,1,C*%
%TO.N,Net-(D3-Pad1)*%
X107315000Y-73025000D03*
D41*
%TO.P,Q1,2,B*%
%TO.N,Net-(Q1-Pad2)*%
X107315000Y-74295000D03*
%TO.P,Q1,3,E*%
%TO.N,GND*%
X107315000Y-75565000D03*
%TD*%
D42*
%TO.P,Q3,1,G*%
%TO.N,Net-(Q3-Pad1)*%
X57785000Y-160655000D03*
D43*
%TO.P,Q3,2,D*%
%TO.N,Net-(D15-Pad2)*%
X57785000Y-163195000D03*
%TO.P,Q3,3,S*%
%TO.N,GND*%
X57785000Y-165735000D03*
%TD*%
D42*
%TO.P,Q4,1,G*%
%TO.N,Net-(Q4-Pad1)*%
X55245000Y-130175000D03*
D43*
%TO.P,Q4,2,D*%
%TO.N,Net-(D16-Pad2)*%
X55245000Y-132715000D03*
%TO.P,Q4,3,S*%
%TO.N,GND*%
X55245000Y-135255000D03*
%TD*%
D44*
%TO.P,Q5,1,C*%
%TO.N,Net-(D17-Pad1)*%
X57785000Y-79375000D03*
D45*
%TO.P,Q5,2,B*%
%TO.N,Net-(Q5-Pad2)*%
X59055000Y-79375000D03*
%TO.P,Q5,3,E*%
%TO.N,GND*%
X60325000Y-79375000D03*
%TD*%
D13*
%TO.P,R1,1*%
%TO.N,Net-(J2-PadS)*%
X130175000Y-166370000D03*
D19*
%TO.P,R1,2*%
%TO.N,Net-(J2-PadTN)*%
X130175000Y-173990000D03*
%TD*%
D13*
%TO.P,R2,1*%
%TO.N,Net-(J5-Pad3)*%
X95885000Y-146685000D03*
D19*
%TO.P,R2,2*%
%TO.N,GPIO13_I2C-SDA*%
X88265000Y-146685000D03*
%TD*%
D13*
%TO.P,R21,1*%
%TO.N,Net-(J17-Pad1)*%
X40005000Y-89535000D03*
D19*
%TO.P,R21,2*%
%TO.N,Switch1*%
X47625000Y-89535000D03*
%TD*%
D13*
%TO.P,R4,1*%
%TO.N,Net-(J5-Pad3)*%
X95885000Y-150495000D03*
D19*
%TO.P,R4,2*%
%TO.N,GPIO16_I2C-SCL*%
X88265000Y-150495000D03*
%TD*%
D13*
%TO.P,R5,1*%
%TO.N,+3V3*%
X88265000Y-154305000D03*
D19*
%TO.P,R5,2*%
%TO.N,Net-(C1-Pad1)*%
X95885000Y-154305000D03*
%TD*%
D46*
%TO.P,R14,1*%
%TO.N,Net-(J10-Pad2)*%
X135255000Y-133985000D03*
D47*
%TO.P,R14,2*%
%TO.N,Net-(OK1-Pad2)*%
X114935000Y-133985000D03*
%TD*%
D46*
%TO.P,R13,1*%
%TO.N,Net-(J10-Pad1)*%
X135255000Y-140335000D03*
D47*
%TO.P,R13,2*%
%TO.N,Net-(OK1-Pad1)*%
X114935000Y-140335000D03*
%TD*%
D46*
%TO.P,R16,1*%
%TO.N,Net-(J11-Pad2)*%
X135255000Y-112395000D03*
D47*
%TO.P,R16,2*%
%TO.N,Net-(OK2-Pad2)*%
X114935000Y-112395000D03*
%TD*%
D46*
%TO.P,R15,1*%
%TO.N,Net-(J11-Pad1)*%
X135255000Y-118745000D03*
D47*
%TO.P,R15,2*%
%TO.N,Net-(OK2-Pad1)*%
X114935000Y-118745000D03*
%TD*%
D13*
%TO.P,R11,1*%
%TO.N,+5V*%
X95885000Y-67945000D03*
D19*
%TO.P,R11,2*%
%TO.N,Net-(D3-Pad2)*%
X103505000Y-67945000D03*
%TD*%
D13*
%TO.P,R9,1*%
%TO.N,Net-(Q1-Pad2)*%
X102235000Y-74295000D03*
D19*
%TO.P,R9,2*%
%TO.N,Relay1*%
X94615000Y-74295000D03*
%TD*%
D13*
%TO.P,R6,1*%
%TO.N,Net-(C1-Pad1)*%
X133985000Y-166370000D03*
D19*
%TO.P,R6,2*%
%TO.N,GND*%
X133985000Y-173990000D03*
%TD*%
D13*
%TO.P,R10,1*%
%TO.N,Net-(Q2-Pad2)*%
X79375000Y-74295000D03*
D19*
%TO.P,R10,2*%
%TO.N,Relay2*%
X79375000Y-81915000D03*
%TD*%
D13*
%TO.P,R12,1*%
%TO.N,+5V*%
X69215000Y-67945000D03*
D19*
%TO.P,R12,2*%
%TO.N,Net-(D4-Pad2)*%
X76835000Y-67945000D03*
%TD*%
D46*
%TO.P,R17,1*%
%TO.N,Net-(J12-Pad1)*%
X135255000Y-97155000D03*
D47*
%TO.P,R17,2*%
%TO.N,Net-(OK3-Pad1)*%
X114935000Y-97155000D03*
%TD*%
D46*
%TO.P,R18,1*%
%TO.N,Net-(J12-Pad2)*%
X135255000Y-90805000D03*
D47*
%TO.P,R18,2*%
%TO.N,Net-(OK3-Pad2)*%
X114935000Y-90805000D03*
%TD*%
D13*
%TO.P,R22,1*%
%TO.N,FET1*%
X43815000Y-153035000D03*
D19*
%TO.P,R22,2*%
%TO.N,Net-(D13-Pad2)*%
X51435000Y-153035000D03*
%TD*%
D13*
%TO.P,R23,1*%
%TO.N,FET2*%
X43815000Y-121285000D03*
D19*
%TO.P,R23,2*%
%TO.N,Net-(D14-Pad2)*%
X51435000Y-121285000D03*
%TD*%
D13*
%TO.P,R20,1*%
%TO.N,Net-(J16-Pad1)*%
X38735000Y-71755000D03*
D19*
%TO.P,R20,2*%
%TO.N,Switch2*%
X46355000Y-71755000D03*
%TD*%
D13*
%TO.P,R19,1*%
%TO.N,Net-(J15-Pad1)*%
X31115000Y-55245000D03*
D19*
%TO.P,R19,2*%
%TO.N,Switch3*%
X38735000Y-55245000D03*
%TD*%
D13*
%TO.P,R24,1*%
%TO.N,Net-(Q3-Pad1)*%
X51435000Y-156845000D03*
D19*
%TO.P,R24,2*%
%TO.N,FET1*%
X43815000Y-156845000D03*
%TD*%
D13*
%TO.P,R25,1*%
%TO.N,Net-(Q4-Pad1)*%
X43815000Y-125095000D03*
D19*
%TO.P,R25,2*%
%TO.N,FET2*%
X51435000Y-125095000D03*
%TD*%
D13*
%TO.P,R26,1*%
%TO.N,Net-(Q3-Pad1)*%
X59055000Y-146685000D03*
D19*
%TO.P,R26,2*%
%TO.N,GND*%
X66675000Y-146685000D03*
%TD*%
D13*
%TO.P,R27,1*%
%TO.N,Net-(Q4-Pad1)*%
X59055000Y-114935000D03*
D19*
%TO.P,R27,2*%
%TO.N,GND*%
X66675000Y-114935000D03*
%TD*%
D13*
%TO.P,R3,1*%
%TO.N,Net-(D1-Pad2)*%
X88265000Y-164465000D03*
D19*
%TO.P,R3,2*%
%TO.N,Net-(J2-PadS)*%
X95885000Y-164465000D03*
%TD*%
D13*
%TO.P,R7,1*%
%TO.N,+3V3*%
X111125000Y-141605000D03*
D19*
%TO.P,R7,2*%
%TO.N,GPIO32*%
X111125000Y-149225000D03*
%TD*%
D13*
%TO.P,R8,1*%
%TO.N,+3V3*%
X111125000Y-130175000D03*
D19*
%TO.P,R8,2*%
%TO.N,GPIO33*%
X111125000Y-122555000D03*
%TD*%
D13*
%TO.P,R28,1*%
%TO.N,Net-(Q5-Pad2)*%
X65405000Y-79375000D03*
D19*
%TO.P,R28,2*%
%TO.N,Relay3*%
X65405000Y-86995000D03*
%TD*%
D13*
%TO.P,R29,1*%
%TO.N,+5V*%
X65405000Y-74295000D03*
D19*
%TO.P,R29,2*%
%TO.N,Net-(D17-Pad2)*%
X57785000Y-74295000D03*
%TD*%
D18*
%TO.P,U1,1,GPB0*%
%TO.N,Relay1*%
X83185000Y-102235000D03*
D19*
%TO.P,U1,2,GPB1*%
%TO.N,Relay2*%
X80645000Y-102235000D03*
%TO.P,U1,3,GPB2*%
%TO.N,Relay3*%
X78105000Y-102235000D03*
%TO.P,U1,4,GPB3*%
%TO.N,FET1*%
X75565000Y-102235000D03*
%TO.P,U1,5,GPB4*%
%TO.N,FET2*%
X73025000Y-102235000D03*
%TO.P,U1,6,GPB5*%
%TO.N,Net-(J30-Pad3)*%
X70485000Y-102235000D03*
%TO.P,U1,7,GPB6*%
%TO.N,Net-(J30-Pad5)*%
X67945000Y-102235000D03*
%TO.P,U1,8,GPB7*%
%TO.N,Net-(J30-Pad7)*%
X65405000Y-102235000D03*
%TO.P,U1,9,VDD*%
%TO.N,+3V3*%
X62865000Y-102235000D03*
%TO.P,U1,10,VSS*%
%TO.N,GND*%
X60325000Y-102235000D03*
%TO.P,U1,11,NC*%
%TO.N,unconnected-(U1-Pad11)*%
X57785000Y-102235000D03*
%TO.P,U1,12,SCK*%
%TO.N,GPIO16_I2C-SCL*%
X55245000Y-102235000D03*
%TO.P,U1,13,SDA*%
%TO.N,GPIO13_I2C-SDA*%
X52705000Y-102235000D03*
%TO.P,U1,14,NC*%
%TO.N,unconnected-(U1-Pad14)*%
X50165000Y-102235000D03*
%TO.P,U1,15,A0*%
%TO.N,GND*%
X50165000Y-109855000D03*
%TO.P,U1,16,A1*%
X52705000Y-109855000D03*
%TO.P,U1,17,A2*%
X55245000Y-109855000D03*
%TO.P,U1,18,~{RESET}*%
%TO.N,+3V3*%
X57785000Y-109855000D03*
%TO.P,U1,19,INTB*%
%TO.N,unconnected-(U1-Pad19)*%
X60325000Y-109855000D03*
%TO.P,U1,20,INTA*%
%TO.N,unconnected-(U1-Pad20)*%
X62865000Y-109855000D03*
%TO.P,U1,21,GPA0*%
%TO.N,Switch1*%
X65405000Y-109855000D03*
%TO.P,U1,22,GPA1*%
%TO.N,Switch2*%
X67945000Y-109855000D03*
%TO.P,U1,23,GPA2*%
%TO.N,Switch3*%
X70485000Y-109855000D03*
%TO.P,U1,24,GPA3*%
%TO.N,Net-(J30-Pad9)*%
X73025000Y-109855000D03*
%TO.P,U1,25,GPA4*%
%TO.N,Net-(J30-Pad10)*%
X75565000Y-109855000D03*
%TO.P,U1,26,GPA5*%
%TO.N,Net-(J30-Pad8)*%
X78105000Y-109855000D03*
%TO.P,U1,27,GPA6*%
%TO.N,Net-(J30-Pad6)*%
X80645000Y-109855000D03*
%TO.P,U1,28,GPA7*%
%TO.N,Net-(J30-Pad4)*%
X83185000Y-109855000D03*
%TD*%
D14*
%TO.P,J28,1,Pin_1*%
%TO.N,+3V3*%
X32385000Y-97155000D03*
D26*
%TO.P,J28,2,Pin_2*%
%TO.N,GND*%
X32385000Y-99695000D03*
%TO.P,J28,3,Pin_3*%
%TO.N,Net-(J28-Pad3)*%
X32385000Y-102235000D03*
%TD*%
D20*
%TO.P,J29,1,Pin_1*%
%TO.N,Net-(J28-Pad3)*%
X69215000Y-130175000D03*
D21*
%TO.P,J29,2,Pin_2*%
%TO.N,GPI35*%
X69215000Y-132715000D03*
%TO.P,J29,3,Pin_3*%
%TO.N,Net-(D1-Pad2)*%
X69215000Y-135255000D03*
%TD*%
D48*
%TO.P,REF\u002A\u002A,1*%
%TO.N,N/C*%
X29591000Y-25400000D03*
%TD*%
%TO.P,REF\u002A\u002A,1*%
%TO.N,N/C*%
X150812500Y-25400000D03*
%TD*%
%TO.P,REF\u002A\u002A,1*%
%TO.N,N/C*%
X29591000Y-188341000D03*
%TD*%
%TO.P,REF\u002A\u002A,1*%
%TO.N,N/C*%
X150812500Y-188341000D03*
%TD*%
D44*
%TO.P,Q6,1,E*%
%TO.N,+3V3*%
X94615000Y-126365000D03*
D45*
%TO.P,Q6,2,B*%
%TO.N,Net-(Q6-Pad2)*%
X95885000Y-126365000D03*
%TO.P,Q6,3,C*%
%TO.N,Net-(J5-Pad3)*%
X97155000Y-126365000D03*
%TD*%
D13*
%TO.P,R30,1*%
%TO.N,GPIO15_HS2_CMD*%
X88265000Y-133985000D03*
D19*
%TO.P,R30,2*%
%TO.N,Net-(Q6-Pad2)*%
X95885000Y-133985000D03*
%TD*%
D49*
%TO.P,LM2596IN+1,1,1*%
%TO.N,230VAC-L*%
X134086000Y-44831000D03*
%TD*%
%TO.P,LM2596IN-1,1,1*%
%TO.N,230VAC-N*%
X116586000Y-44831000D03*
%TD*%
%TO.P,LM2596Out+1,1,1*%
%TO.N,+5V*%
X134086000Y-84831000D03*
%TD*%
%TO.P,LM2596Out-1,1,1*%
%TO.N,GND*%
X116713000Y-84831000D03*
%TD*%
D50*
%TO.P,TP5,1,1*%
%TO.N,Net-(J2-PadTN)*%
X122380000Y-170375000D03*
%TD*%
%TO.P,TP6,1,1*%
%TO.N,Net-(J2-PadS)*%
X122380000Y-155575000D03*
%TD*%
D51*
%TO.P,REF\u002A\u002A,1*%
%TO.N,N/C*%
X111380000Y-153615000D03*
%TD*%
%TO.P,REF\u002A\u002A,1*%
%TO.N,N/C*%
X111380000Y-172375000D03*
%TD*%
D18*
%TO.P,C3,1*%
%TO.N,GPIO33*%
X132740400Y-127623580D03*
D13*
%TO.P,C3,2*%
%TO.N,GND*%
X132740400Y-125123580D03*
%TD*%
D18*
%TO.P,C8,1*%
%TO.N,+5V*%
X140360400Y-75576421D03*
D13*
%TO.P,C8,2*%
%TO.N,GND*%
X140360400Y-78076421D03*
%TD*%
D18*
%TO.P,C4,1*%
%TO.N,GPI36_U1RXD*%
X132080000Y-106033580D03*
D13*
%TO.P,C4,2*%
%TO.N,GND*%
X132080000Y-103533580D03*
%TD*%
D18*
%TO.P,C2,1*%
%TO.N,GPIO32*%
X132715000Y-149213580D03*
D13*
%TO.P,C2,2*%
%TO.N,GND*%
X132715000Y-146713580D03*
%TD*%
D18*
%TO.P,C1,1*%
%TO.N,Net-(C1-Pad1)*%
X109866421Y-104775000D03*
D13*
%TO.P,C1,2*%
%TO.N,GND*%
X112366421Y-104775000D03*
%TD*%
D20*
%TO.P,J30,1,Pin_1*%
%TO.N,+3V3*%
X74061400Y-93263800D03*
D21*
%TO.P,J30,2,Pin_2*%
%TO.N,GND*%
X74061400Y-95803800D03*
%TO.P,J30,3,Pin_3*%
%TO.N,Net-(J30-Pad3)*%
X71521400Y-93263800D03*
%TO.P,J30,4,Pin_4*%
%TO.N,Net-(J30-Pad4)*%
X71521400Y-95803800D03*
%TO.P,J30,5,Pin_5*%
%TO.N,Net-(J30-Pad5)*%
X68981400Y-93263800D03*
%TO.P,J30,6,Pin_6*%
%TO.N,Net-(J30-Pad6)*%
X68981400Y-95803800D03*
%TO.P,J30,7,Pin_7*%
%TO.N,Net-(J30-Pad7)*%
X66441400Y-93263800D03*
%TO.P,J30,8,Pin_8*%
%TO.N,Net-(J30-Pad8)*%
X66441400Y-95803800D03*
%TO.P,J30,9,Pin_9*%
%TO.N,Net-(J30-Pad9)*%
X63901400Y-93263800D03*
%TO.P,J30,10,Pin_10*%
%TO.N,Net-(J30-Pad10)*%
X63901400Y-95803800D03*
%TD*%
D52*
%TO.N,GND*%
X74061400Y-95803800D02*
X75490000Y-95803800D01*
X62865000Y-88597600D02*
X62865000Y-84455000D01*
X75490000Y-95803800D02*
X76315600Y-94978200D01*
X76315600Y-94978200D02*
X76315600Y-91468200D01*
X76315600Y-91468200D02*
X75125600Y-90278200D01*
X75125600Y-90278200D02*
X64545600Y-90278200D01*
X64545600Y-90278200D02*
X62865000Y-88597600D01*
D53*
X27635600Y-75995600D02*
X27635600Y-86055600D01*
D52*
X60325000Y-103505000D02*
X60325000Y-102235000D01*
D53*
X45005000Y-98505000D02*
X45085000Y-98425000D01*
X71795000Y-78065000D02*
X88225000Y-78065000D01*
X88225000Y-78065000D02*
X89535000Y-76755000D01*
X40005000Y-161925000D02*
X45720000Y-167640000D01*
D52*
X111125000Y-146685000D02*
X107315000Y-142875000D01*
D53*
X45085000Y-98425000D02*
X47625000Y-98425000D01*
X45005000Y-102235000D02*
X45005000Y-98505000D01*
X27685600Y-76835000D02*
X32385000Y-76835000D01*
X89535000Y-76755000D02*
X89535000Y-75565000D01*
X39687500Y-52705000D02*
X36195000Y-52705000D01*
X48895000Y-173355000D02*
X53975000Y-168275000D01*
X118606370Y-146685000D02*
X121146370Y-144145000D01*
X67310000Y-167640000D02*
X67310000Y-173355000D01*
D52*
X55245000Y-109855000D02*
X55245000Y-108585000D01*
D53*
X132835000Y-75120000D02*
X135947000Y-78232000D01*
D52*
X52705000Y-109855000D02*
X50165000Y-109855000D01*
X43815000Y-86995000D02*
X43815000Y-89535000D01*
D53*
X32385000Y-76835000D02*
X32385000Y-74295000D01*
X43815000Y-84535000D02*
X43735000Y-84455000D01*
X130175000Y-144185000D02*
X132715000Y-146725000D01*
X111125000Y-88265000D02*
X112355000Y-89495000D01*
X117475000Y-102315000D02*
X117475000Y-103505000D01*
D52*
X37465000Y-104775000D02*
X42465000Y-104775000D01*
D53*
X111125000Y-78105000D02*
X111125000Y-84328000D01*
D52*
X106045000Y-142875000D02*
X104775000Y-142875000D01*
D53*
X116586000Y-84831000D02*
X111628000Y-84831000D01*
D52*
X36195000Y-98425000D02*
X34925000Y-99695000D01*
D53*
X43735000Y-84455000D02*
X43735000Y-80725000D01*
X43815000Y-86995000D02*
X43815000Y-84535000D01*
X61595000Y-151765000D02*
X64135000Y-151765000D01*
X43735000Y-58340000D02*
X41910000Y-56515000D01*
D52*
X84455000Y-75565000D02*
X89535000Y-75565000D01*
D53*
X131890000Y-75120000D02*
X132835000Y-75120000D01*
X41910000Y-56515000D02*
X41910000Y-54927500D01*
X111125000Y-78105000D02*
X111125000Y-76835000D01*
X112355000Y-94615000D02*
X112355000Y-104775000D01*
X111125000Y-84328000D02*
X111125000Y-88265000D01*
X38735000Y-130175000D02*
X38735000Y-132715000D01*
D52*
X45085000Y-102235000D02*
X50165000Y-107315000D01*
D53*
X57785000Y-165735000D02*
X61595000Y-165735000D01*
X111628000Y-84831000D02*
X111125000Y-84328000D01*
D52*
X50165000Y-107315000D02*
X50165000Y-109855000D01*
D53*
X71795000Y-83185000D02*
X71795000Y-78065000D01*
X43735000Y-62945000D02*
X43735000Y-58340000D01*
X130175000Y-144145000D02*
X130175000Y-144185000D01*
X118785000Y-101005000D02*
X129540000Y-101005000D01*
X61595000Y-151765000D02*
X61595000Y-165735000D01*
X41910000Y-54927500D02*
X39687500Y-52705000D01*
X43815000Y-80645000D02*
X46355000Y-80645000D01*
X53975000Y-168275000D02*
X53975000Y-165735000D01*
X99695000Y-78105000D02*
X99695000Y-71755000D01*
X111125000Y-76835000D02*
X112395000Y-75565000D01*
X53975000Y-165735000D02*
X57785000Y-165735000D01*
X129580000Y-101005000D02*
X128905000Y-100330000D01*
X46355000Y-62865000D02*
X43815000Y-62865000D01*
D52*
X107315000Y-142875000D02*
X106045000Y-142875000D01*
X55245000Y-109855000D02*
X55245000Y-111125000D01*
D53*
X28575000Y-86995000D02*
X32385000Y-86995000D01*
D52*
X95885000Y-139065000D02*
X97155000Y-139065000D01*
D53*
X62865000Y-84455000D02*
X64135000Y-83185000D01*
X117475000Y-146685000D02*
X118606370Y-146685000D01*
X45720000Y-167640000D02*
X45720000Y-173355000D01*
D52*
X61595000Y-114935000D02*
X61595000Y-120015000D01*
D53*
X111125000Y-78105000D02*
X99695000Y-78105000D01*
X128905000Y-100330000D02*
X128905000Y-78105000D01*
X128905000Y-78105000D02*
X131890000Y-75120000D01*
X135947000Y-78232000D02*
X140168000Y-78232000D01*
X27635600Y-86055600D02*
X28575000Y-86995000D01*
X93345000Y-71755000D02*
X92075000Y-73025000D01*
X36195000Y-52705000D02*
X36195000Y-64135000D01*
X36195000Y-64135000D02*
X32385000Y-64135000D01*
X64135000Y-151765000D02*
X66675000Y-149225000D01*
X32385000Y-64135000D02*
X27685600Y-68834400D01*
X66675000Y-149225000D02*
X66675000Y-146685000D01*
X140168000Y-78232000D02*
X140335000Y-78065000D01*
X117475000Y-125095000D02*
X117475000Y-123825000D01*
D52*
X61595000Y-113665000D02*
X61595000Y-114935000D01*
D53*
X129540000Y-101005000D02*
X132080000Y-103545000D01*
D52*
X41275000Y-92075000D02*
X37465000Y-92075000D01*
X100965000Y-142875000D02*
X106045000Y-142875000D01*
D53*
X60325000Y-84455000D02*
X62865000Y-84455000D01*
X45720000Y-173355000D02*
X48895000Y-173355000D01*
X92075000Y-73025000D02*
X92075000Y-74295000D01*
D52*
X56515000Y-112395000D02*
X60325000Y-112395000D01*
D53*
X133985000Y-173948200D02*
X133985000Y-181568200D01*
X118745000Y-122555000D02*
X130135000Y-122555000D01*
X43815000Y-62865000D02*
X43735000Y-62945000D01*
X71795000Y-76715000D02*
X74215000Y-74295000D01*
X112355000Y-101005000D02*
X118785000Y-101005000D01*
X64135000Y-83185000D02*
X71795000Y-83185000D01*
D52*
X43815000Y-89535000D02*
X41275000Y-92075000D01*
X60325000Y-112395000D02*
X61595000Y-113665000D01*
X45005000Y-102235000D02*
X45085000Y-102235000D01*
X36195000Y-98425000D02*
X36195000Y-103505000D01*
D53*
X92075000Y-74295000D02*
X90805000Y-75565000D01*
X112355000Y-89495000D02*
X112355000Y-94615000D01*
X65405000Y-165735000D02*
X67310000Y-167640000D01*
X38735000Y-132715000D02*
X41275000Y-135255000D01*
D52*
X36195000Y-103505000D02*
X37465000Y-104775000D01*
X37465000Y-92075000D02*
X36195000Y-93345000D01*
D53*
X45085000Y-135255000D02*
X55245000Y-135255000D01*
X38735000Y-161925000D02*
X40005000Y-161925000D01*
X32385000Y-86995000D02*
X32385000Y-84455000D01*
X43735000Y-80725000D02*
X43815000Y-80645000D01*
X121146370Y-144145000D02*
X130175000Y-144145000D01*
X43735000Y-66675000D02*
X43735000Y-62945000D01*
X117475000Y-123825000D02*
X118745000Y-122555000D01*
D52*
X107315000Y-75565000D02*
X112395000Y-75565000D01*
D53*
X99695000Y-71755000D02*
X93345000Y-71755000D01*
X61595000Y-165735000D02*
X65405000Y-165735000D01*
D52*
X55245000Y-108585000D02*
X60325000Y-103505000D01*
D53*
X71795000Y-78065000D02*
X71795000Y-76715000D01*
D52*
X42465000Y-104775000D02*
X45005000Y-102235000D01*
X61595000Y-114935000D02*
X66675000Y-114935000D01*
D53*
X90805000Y-75565000D02*
X89535000Y-75565000D01*
X27685600Y-68834400D02*
X27685600Y-75945600D01*
X118785000Y-101005000D02*
X117475000Y-102315000D01*
X27685600Y-75945600D02*
X27635600Y-75995600D01*
X41275000Y-135255000D02*
X45085000Y-135255000D01*
D52*
X55245000Y-111125000D02*
X56515000Y-112395000D01*
X34925000Y-99695000D02*
X32385000Y-99695000D01*
X97155000Y-139065000D02*
X100965000Y-142875000D01*
X60325000Y-79375000D02*
X60325000Y-84455000D01*
X117475000Y-146685000D02*
X111125000Y-146685000D01*
D53*
X32385000Y-86995000D02*
X43815000Y-86995000D01*
D52*
X36195000Y-93345000D02*
X36195000Y-98425000D01*
X55245000Y-109855000D02*
X52705000Y-109855000D01*
D53*
X130135000Y-122555000D02*
X132715000Y-125135000D01*
%TO.N,Switch1*%
X40005000Y-94615000D02*
X42545000Y-94615000D01*
X42545000Y-94615000D02*
X46355000Y-90805000D01*
X40005000Y-98425000D02*
X40005000Y-102235000D01*
X46355000Y-90805000D02*
X47625000Y-89535000D01*
X40005000Y-94615000D02*
X40005000Y-98425000D01*
D52*
%TO.N,Switch2*%
X38735000Y-80645000D02*
X38735000Y-84455000D01*
X42545000Y-71755000D02*
X38735000Y-75565000D01*
X46355000Y-71755000D02*
X42545000Y-71755000D01*
X38735000Y-75565000D02*
X38735000Y-76835000D01*
X38735000Y-76835000D02*
X38735000Y-80645000D01*
%TO.N,Switch3*%
X38735000Y-59055000D02*
X38735000Y-62865000D01*
X38735000Y-55245000D02*
X38735000Y-59055000D01*
X38735000Y-62865000D02*
X38735000Y-66675000D01*
D53*
%TO.N,GPIO32*%
X118745000Y-149225000D02*
X121285000Y-151765000D01*
X117475000Y-149225000D02*
X118745000Y-149225000D01*
X121285000Y-151765000D02*
X130175000Y-151765000D01*
X111125000Y-149225000D02*
X117475000Y-149225000D01*
X130175000Y-151765000D02*
X132715000Y-149225000D01*
%TO.N,GPIO33*%
X111125000Y-125095000D02*
X111125000Y-122555000D01*
X111125000Y-122555000D02*
X108585000Y-120015000D01*
X113665000Y-127635000D02*
X111125000Y-125095000D01*
X120015000Y-130175000D02*
X130175000Y-130175000D01*
X78740000Y-137795000D02*
X79375000Y-137795000D01*
X76454000Y-135509000D02*
X78740000Y-137795000D01*
X79375000Y-120015000D02*
X76454000Y-122936000D01*
X117475000Y-127635000D02*
X113665000Y-127635000D01*
X108585000Y-120015000D02*
X79375000Y-120015000D01*
X76454000Y-122936000D02*
X76454000Y-135509000D01*
X117475000Y-127635000D02*
X120015000Y-130175000D01*
X130175000Y-130175000D02*
X132715000Y-127635000D01*
D52*
%TO.N,GPI36_U1RXD*%
X111125000Y-109855000D02*
X113665000Y-109855000D01*
X72453500Y-123126500D02*
X78105000Y-117475000D01*
D53*
X117475000Y-106045000D02*
X117475000Y-107315000D01*
D52*
X74676000Y-145415000D02*
X69977000Y-140716000D01*
X79375000Y-145415000D02*
X74676000Y-145415000D01*
D53*
X128905000Y-109220000D02*
X132080000Y-106045000D01*
X119380000Y-109220000D02*
X128905000Y-109220000D01*
D52*
X113665000Y-109855000D02*
X117475000Y-106045000D01*
X69977000Y-140716000D02*
X69977000Y-137477500D01*
X103505000Y-117475000D02*
X111125000Y-109855000D01*
X72453500Y-135001000D02*
X72453500Y-123126500D01*
X78105000Y-117475000D02*
X103505000Y-117475000D01*
X69977000Y-137477500D02*
X72453500Y-135001000D01*
D53*
X117475000Y-107315000D02*
X119380000Y-109220000D01*
%TO.N,+5V*%
X144780000Y-82169000D02*
X142118000Y-84831000D01*
X65405000Y-70485000D02*
X69215000Y-70485000D01*
X113665000Y-51435000D02*
X102235000Y-51435000D01*
X69215000Y-56235000D02*
X69615000Y-55835000D01*
X95885000Y-62865000D02*
X95885000Y-60045000D01*
X117435000Y-51435000D02*
X113665000Y-51435000D01*
X143002000Y-75565000D02*
X144780000Y-77343000D01*
X117435000Y-69175000D02*
X117435000Y-51435000D01*
X140335000Y-75565000D02*
X143002000Y-75565000D01*
X117435000Y-75120000D02*
X117435000Y-69175000D01*
X69215000Y-70485000D02*
X69215000Y-74295000D01*
X140335000Y-70231000D02*
X117435000Y-70231000D01*
X100095000Y-55835000D02*
X100095000Y-53575000D01*
X65405000Y-74295000D02*
X69215000Y-74295000D01*
X140335000Y-75565000D02*
X140335000Y-70231000D01*
X69215000Y-62865000D02*
X69215000Y-64135000D01*
X117435000Y-70231000D02*
X117435000Y-69175000D01*
X69215000Y-67945000D02*
X69215000Y-70485000D01*
X69215000Y-62865000D02*
X69215000Y-56235000D01*
X69215000Y-64135000D02*
X69215000Y-67945000D01*
X95885000Y-60045000D02*
X100095000Y-55835000D01*
X144780000Y-77343000D02*
X144780000Y-82169000D01*
X59055000Y-64135000D02*
X69215000Y-64135000D01*
X69615000Y-55835000D02*
X74015000Y-51435000D01*
X142118000Y-84831000D02*
X134086000Y-84831000D01*
X95885000Y-67945000D02*
X95885000Y-62865000D01*
X100095000Y-53575000D02*
X102235000Y-51435000D01*
X74015000Y-51435000D02*
X102235000Y-51435000D01*
%TO.N,Net-(D3-Pad2)*%
X103505000Y-67945000D02*
X109855000Y-67945000D01*
%TO.N,+3V3*%
X113347500Y-143827500D02*
X111125000Y-141605000D01*
D52*
X60553600Y-99060000D02*
X62865000Y-101371400D01*
D53*
X116649500Y-143827500D02*
X113347500Y-143827500D01*
D52*
X90170000Y-152400000D02*
X88265000Y-154305000D01*
X50165000Y-94615000D02*
X47625000Y-94615000D01*
X62865000Y-101371400D02*
X62865000Y-102235000D01*
X55880000Y-99060000D02*
X60553600Y-99060000D01*
X46355000Y-75565000D02*
X46355000Y-76835000D01*
X46355000Y-76835000D02*
X48895000Y-79375000D01*
X46355000Y-59055000D02*
X48895000Y-61595000D01*
X57785000Y-109855000D02*
X62865000Y-104775000D01*
D53*
X119134999Y-133866999D02*
X119134999Y-141080999D01*
D52*
X50165000Y-88584998D02*
X50165000Y-94615000D01*
X100330000Y-145415000D02*
X104775000Y-145415000D01*
X97790000Y-142875000D02*
X100330000Y-145415000D01*
D53*
X118999000Y-141216998D02*
X118999000Y-141478000D01*
D52*
X90170000Y-148590000D02*
X90170000Y-152400000D01*
X47625000Y-94615000D02*
X51435000Y-94615000D01*
X48895000Y-87314998D02*
X50165000Y-88584998D01*
X48895000Y-73025000D02*
X46355000Y-75565000D01*
X48895000Y-79375000D02*
X48895000Y-87314998D01*
D53*
X119134999Y-141080999D02*
X118999000Y-141216998D01*
X115443000Y-130175000D02*
X119134999Y-133866999D01*
D52*
X51435000Y-94615000D02*
X55880000Y-99060000D01*
D53*
X111125000Y-130175000D02*
X115443000Y-130175000D01*
D52*
X48895000Y-61595000D02*
X48895000Y-73025000D01*
X62865000Y-104775000D02*
X62865000Y-102235000D01*
X95885000Y-142875000D02*
X97790000Y-142875000D01*
X95885000Y-142875000D02*
X90170000Y-148590000D01*
D53*
X118999000Y-141478000D02*
X116649500Y-143827500D01*
%TO.N,Net-(D17-Pad2)*%
X56515000Y-74295000D02*
X57785000Y-74295000D01*
X55245000Y-75565000D02*
X56515000Y-74295000D01*
X53975000Y-75565000D02*
X55245000Y-75565000D01*
D52*
%TO.N,Net-(D17-Pad1)*%
X60325000Y-74295000D02*
X57785000Y-76835000D01*
D53*
X51555000Y-66795000D02*
X53340000Y-68580000D01*
X51435000Y-75565000D02*
X51435000Y-70485000D01*
D52*
X60325000Y-71755000D02*
X60325000Y-74295000D01*
X59055000Y-70485000D02*
X60325000Y-71755000D01*
D53*
X51435000Y-70485000D02*
X53340000Y-68580000D01*
X51555000Y-64135000D02*
X51555000Y-66795000D01*
D52*
X55245000Y-70485000D02*
X59055000Y-70485000D01*
X57785000Y-76835000D02*
X57785000Y-79375000D01*
X57785000Y-79375000D02*
X57785000Y-84455000D01*
D53*
X53340000Y-68580000D02*
X55245000Y-70485000D01*
%TO.N,GPIO13_I2C-SDA*%
X116205000Y-179197000D02*
X116991978Y-178410022D01*
X116991978Y-178410022D02*
X123800022Y-178410022D01*
X90805000Y-132080000D02*
X83820000Y-125095000D01*
X123800022Y-178410022D02*
X126365000Y-180975000D01*
X84455000Y-184785000D02*
X114935000Y-184785000D01*
X116205000Y-183515000D02*
X116205000Y-180975000D01*
X90805000Y-144145000D02*
X90805000Y-132080000D01*
X83820000Y-125095000D02*
X79375000Y-125095000D01*
X88265000Y-146685000D02*
X79375000Y-155575000D01*
X116205000Y-180975000D02*
X116205000Y-179197000D01*
X114935000Y-184785000D02*
X116205000Y-183515000D01*
X88265000Y-146685000D02*
X90805000Y-144145000D01*
X79375000Y-155575000D02*
X79375000Y-179705000D01*
X79375000Y-179705000D02*
X84455000Y-184785000D01*
%TO.N,GPIO15_HS2_CMD*%
X79375000Y-130175000D02*
X84455000Y-130175000D01*
X84455000Y-130175000D02*
X88265000Y-133985000D01*
%TO.N,GPIO16_I2C-SCL*%
X113665000Y-178435000D02*
X106045000Y-178435000D01*
X128905000Y-178943000D02*
X126492000Y-176530000D01*
X106045000Y-178435000D02*
X104775000Y-179705000D01*
X86995000Y-179705000D02*
X83185000Y-175895000D01*
X113665000Y-180975000D02*
X113665000Y-178435000D01*
X115570000Y-176530000D02*
X113665000Y-178435000D01*
X83185000Y-155575000D02*
X88265000Y-150495000D01*
X128905000Y-180975000D02*
X128905000Y-178943000D01*
X86995000Y-179705000D02*
X104775000Y-179705000D01*
X126492000Y-176530000D02*
X115570000Y-176530000D01*
X83185000Y-175895000D02*
X83185000Y-155575000D01*
%TO.N,Net-(J13-Pad3)*%
X120269000Y-37973000D02*
X123825000Y-34417000D01*
X100045000Y-43585000D02*
X106402000Y-43585000D01*
X112014000Y-37973000D02*
X120269000Y-37973000D01*
X123825000Y-34417000D02*
X123825000Y-33655000D01*
X106402000Y-43585000D02*
X112014000Y-37973000D01*
%TO.N,Net-(J14-Pad1)*%
X104457500Y-39370000D02*
X107315000Y-36512500D01*
X93345000Y-39370000D02*
X104457500Y-39370000D01*
X107315000Y-36512500D02*
X107315000Y-33655000D01*
X91620000Y-41095000D02*
X93345000Y-39370000D01*
X81615000Y-43635000D02*
X91620000Y-43635000D01*
X91620000Y-43635000D02*
X91620000Y-41095000D01*
D52*
%TO.N,Net-(J15-Pad1)*%
X32385000Y-61595000D02*
X32385000Y-56515000D01*
X32385000Y-56515000D02*
X31115000Y-55245000D01*
D53*
%TO.N,230VAC-N*%
X116586000Y-44831000D02*
X121746000Y-44831000D01*
X121746000Y-44831000D02*
X122635000Y-45720000D01*
D52*
%TO.N,ExternalDCPower*%
X33655000Y-142875000D02*
X36195000Y-140335000D01*
X47307500Y-142875000D02*
X47307500Y-140652500D01*
X59690000Y-128270000D02*
X59690000Y-136525000D01*
X47625000Y-140335000D02*
X50165000Y-140335000D01*
X55880000Y-140335000D02*
X50165000Y-140335000D01*
X33655000Y-170180000D02*
X33655000Y-142875000D01*
X40640000Y-173355000D02*
X36830000Y-173355000D01*
X55245000Y-121285000D02*
X55245000Y-123825000D01*
X55245000Y-123825000D02*
X59690000Y-128270000D01*
X59690000Y-136525000D02*
X55880000Y-140335000D01*
X47307500Y-142875000D02*
X45115000Y-142875000D01*
X47307500Y-140652500D02*
X47625000Y-140335000D01*
X36830000Y-173355000D02*
X33655000Y-170180000D01*
X45085000Y-111125000D02*
X55245000Y-121285000D01*
X36195000Y-140335000D02*
X47625000Y-140335000D01*
%TO.N,Net-(Q1-Pad2)*%
X102235000Y-74295000D02*
X107315000Y-74295000D01*
%TO.N,Net-(Q2-Pad2)*%
X79375000Y-74295000D02*
X84455000Y-74295000D01*
%TO.N,Net-(Q3-Pad1)*%
X56515000Y-156845000D02*
X57785000Y-158115000D01*
X51435000Y-156845000D02*
X56515000Y-156845000D01*
X57785000Y-158115000D02*
X57785000Y-160655000D01*
D53*
%TO.N,Net-(Q4-Pad1)*%
X48895000Y-130175000D02*
X55245000Y-130175000D01*
X43815000Y-125095000D02*
X48895000Y-130175000D01*
D52*
%TO.N,Net-(Q5-Pad2)*%
X59055000Y-78105000D02*
X60325000Y-76835000D01*
X62865000Y-76835000D02*
X65405000Y-79375000D01*
X59055000Y-79375000D02*
X59055000Y-78105000D01*
X60325000Y-76835000D02*
X62865000Y-76835000D01*
%TO.N,Relay1*%
X83185000Y-102235000D02*
X83185000Y-94615000D01*
X83185000Y-94615000D02*
X94615000Y-83185000D01*
X94615000Y-83185000D02*
X94615000Y-74295000D01*
%TO.N,Relay2*%
X80645000Y-92075000D02*
X80645000Y-102235000D01*
X79375000Y-81915000D02*
X79375000Y-83185000D01*
X80645000Y-84455000D02*
X80645000Y-92075000D01*
X79375000Y-83185000D02*
X80645000Y-84455000D01*
%TO.N,FET1*%
X77266800Y-104775000D02*
X75565000Y-103073200D01*
X59055000Y-144145000D02*
X63500000Y-139700000D01*
X86360000Y-114935000D02*
X88265000Y-113030000D01*
X43815000Y-153035000D02*
X52705000Y-144145000D01*
X63500000Y-139700000D02*
X63500000Y-128905000D01*
X52705000Y-144145000D02*
X59055000Y-144145000D01*
X77470000Y-114935000D02*
X86360000Y-114935000D01*
X88265000Y-106045000D02*
X86995000Y-104775000D01*
X86995000Y-104775000D02*
X77266800Y-104775000D01*
X75565000Y-103073200D02*
X75565000Y-102235000D01*
X88265000Y-113030000D02*
X88265000Y-106045000D01*
D53*
X43815000Y-156845000D02*
X43815000Y-153035000D01*
D52*
X63500000Y-128905000D02*
X77470000Y-114935000D01*
%TO.N,FET2*%
X57785000Y-128476249D02*
X54403751Y-125095000D01*
X35560000Y-163195000D02*
X43180000Y-170815000D01*
X41910000Y-153759997D02*
X41364997Y-154305000D01*
X41910000Y-176530000D02*
X34925000Y-176530000D01*
X30480000Y-172085000D02*
X30480000Y-142875000D01*
X54403751Y-125095000D02*
X51435000Y-125095000D01*
X73025000Y-104140000D02*
X73025000Y-102235000D01*
X86360000Y-107950000D02*
X85090000Y-106680000D01*
X35560000Y-155575000D02*
X35560000Y-163195000D01*
X61595000Y-125730000D02*
X61595000Y-137160000D01*
X41910000Y-151130000D02*
X41910000Y-153759997D01*
X61595000Y-137160000D02*
X56515000Y-142240000D01*
X75031600Y-112293400D02*
X61595000Y-125730000D01*
X55208242Y-138430000D02*
X57785000Y-135853242D01*
D53*
X47625000Y-121285000D02*
X51435000Y-125095000D01*
D52*
X34925000Y-176530000D02*
X30480000Y-172085000D01*
X43180000Y-175260000D02*
X41910000Y-176530000D01*
X43180000Y-170815000D02*
X43180000Y-175260000D01*
X86360000Y-111125000D02*
X86360000Y-107950000D01*
X57785000Y-135853242D02*
X57785000Y-128476249D01*
X85090000Y-106680000D02*
X75565000Y-106680000D01*
X43180000Y-151130000D02*
X41910000Y-151130000D01*
X30480000Y-142875000D02*
X34925000Y-138430000D01*
X81762600Y-112293400D02*
X75031600Y-112293400D01*
D53*
X43815000Y-121285000D02*
X47625000Y-121285000D01*
D52*
X34925000Y-138430000D02*
X55208242Y-138430000D01*
X85191600Y-112293400D02*
X86360000Y-111125000D01*
X41364997Y-154305000D02*
X36830000Y-154305000D01*
X56515000Y-142240000D02*
X52070000Y-142240000D01*
X83362800Y-112293400D02*
X81762600Y-112293400D01*
X81762600Y-112293400D02*
X85191600Y-112293400D01*
D54*
X83464400Y-112395000D02*
X83185000Y-112395000D01*
D52*
X75565000Y-106680000D02*
X73025000Y-104140000D01*
X52070000Y-142240000D02*
X43180000Y-151130000D01*
X36830000Y-154305000D02*
X35560000Y-155575000D01*
%TO.N,Relay3*%
X75565000Y-88265000D02*
X78105000Y-90805000D01*
X78105000Y-90805000D02*
X78105000Y-102235000D01*
X66675000Y-88265000D02*
X75565000Y-88265000D01*
X65405000Y-86995000D02*
X66675000Y-88265000D01*
%TO.N,Net-(C1-Pad1)*%
X99695000Y-154305000D02*
X109855000Y-164465000D01*
X95885000Y-154305000D02*
X99695000Y-154305000D01*
X109855000Y-164465000D02*
X123825000Y-164465000D01*
X130810000Y-169545000D02*
X133985000Y-166370000D01*
X123825000Y-164465000D02*
X128905000Y-169545000D01*
X128905000Y-169545000D02*
X130810000Y-169545000D01*
D53*
%TO.N,Net-(D3-Pad1)*%
X112395000Y-67945000D02*
X112395000Y-73025000D01*
X112095000Y-61895000D02*
X112095000Y-55835000D01*
X106045000Y-62865000D02*
X111125000Y-62865000D01*
X112395000Y-67945000D02*
X112395000Y-62865000D01*
X111760000Y-62230000D02*
X112095000Y-61895000D01*
D52*
X107315000Y-73025000D02*
X112395000Y-73025000D01*
D53*
X111125000Y-62865000D02*
X111760000Y-62230000D01*
X112395000Y-62865000D02*
X111760000Y-62230000D01*
%TO.N,Net-(D4-Pad2)*%
X76835000Y-67945000D02*
X83185000Y-67945000D01*
D52*
%TO.N,Net-(D4-Pad1)*%
X85725000Y-70485000D02*
X85725000Y-67945000D01*
D53*
X79375000Y-62865000D02*
X80645000Y-61595000D01*
D52*
X84455000Y-71755000D02*
X85725000Y-70485000D01*
D53*
X79375000Y-62865000D02*
X83185000Y-62865000D01*
D52*
X84455000Y-73025000D02*
X89535000Y-73025000D01*
D53*
X85725000Y-65405000D02*
X85725000Y-67945000D01*
X80645000Y-61595000D02*
X80645000Y-56805000D01*
X80645000Y-56805000D02*
X81615000Y-55835000D01*
D52*
X84455000Y-73025000D02*
X84455000Y-71755000D01*
D53*
X83185000Y-62865000D02*
X85725000Y-65405000D01*
%TO.N,Net-(D13-Pad2)*%
X51435000Y-153035000D02*
X57785000Y-153035000D01*
X57785000Y-153035000D02*
X59055000Y-151765000D01*
%TO.N,Net-(D15-Pad2)*%
X42545000Y-160655000D02*
X48895000Y-160655000D01*
X38735000Y-156845000D02*
X42545000Y-160655000D01*
X53975000Y-163195000D02*
X57785000Y-163195000D01*
D52*
X48895000Y-151130000D02*
X48895000Y-160655000D01*
D53*
X48895000Y-160655000D02*
X51435000Y-160655000D01*
X51435000Y-160655000D02*
X53975000Y-163195000D01*
D52*
X53975000Y-146685000D02*
X53340000Y-146685000D01*
X53340000Y-146685000D02*
X48895000Y-151130000D01*
D53*
%TO.N,Net-(D15-Pad1)*%
X38735000Y-151765000D02*
X38735000Y-146685000D01*
X38735000Y-146685000D02*
X43815000Y-146685000D01*
D52*
X43815000Y-146685000D02*
X43815000Y-142875000D01*
%TO.N,Net-(D16-Pad2)*%
X53975000Y-114935000D02*
X51435000Y-114935000D01*
X34925000Y-107315000D02*
X33655000Y-108585000D01*
D53*
X38735000Y-125095000D02*
X45085000Y-131445000D01*
D52*
X47625000Y-111125000D02*
X47625000Y-108585000D01*
X47625000Y-108585000D02*
X46355000Y-107315000D01*
X46355000Y-107315000D02*
X34925000Y-107315000D01*
X33655000Y-108585000D02*
X33655000Y-123825000D01*
X34925000Y-125095000D02*
X38735000Y-125095000D01*
X51435000Y-114935000D02*
X47625000Y-111125000D01*
D53*
X45085000Y-132715000D02*
X55245000Y-132715000D01*
X45085000Y-131445000D02*
X45085000Y-132715000D01*
D52*
X33655000Y-123825000D02*
X34925000Y-125095000D01*
D53*
%TO.N,Net-(D16-Pad1)*%
X38735000Y-120015000D02*
X38735000Y-114935000D01*
X38735000Y-114935000D02*
X43815000Y-114935000D01*
D52*
X43815000Y-114935000D02*
X43815000Y-111155000D01*
X43815000Y-111155000D02*
X43785000Y-111125000D01*
D53*
%TO.N,Net-(J2-PadTN)*%
X122380000Y-170375000D02*
X121550000Y-169545000D01*
D52*
X122380000Y-170375000D02*
X126560000Y-170375000D01*
X122185000Y-170180000D02*
X122380000Y-170375000D01*
D53*
X121550000Y-169545000D02*
X115570000Y-169545000D01*
D52*
X126560000Y-170375000D02*
X130175000Y-173990000D01*
D53*
%TO.N,Net-(J14-Pad3)*%
X85471000Y-38862000D02*
X78359000Y-38862000D01*
X97155000Y-33655000D02*
X90678000Y-33655000D01*
X69843000Y-43307000D02*
X69565000Y-43585000D01*
X78359000Y-38862000D02*
X73914000Y-43307000D01*
X90678000Y-33655000D02*
X85471000Y-38862000D01*
X73914000Y-43307000D02*
X69843000Y-43307000D01*
D52*
%TO.N,Net-(J16-Pad1)*%
X32385000Y-71755000D02*
X38735000Y-71755000D01*
D53*
%TO.N,Net-(J23-Pad2)*%
X63480000Y-43835000D02*
X64135000Y-43180000D01*
X64135000Y-43180000D02*
X64135000Y-41275000D01*
X66675000Y-38735000D02*
X73025000Y-38735000D01*
X73025000Y-38735000D02*
X75565000Y-36195000D01*
X64135000Y-41275000D02*
X66675000Y-38735000D01*
X75565000Y-36195000D02*
X75565000Y-33655000D01*
X59055000Y-43835000D02*
X63480000Y-43835000D01*
%TO.N,Net-(J24-Pad2)*%
X48260000Y-36195000D02*
X48260000Y-34290000D01*
X48260000Y-34290000D02*
X48895000Y-33655000D01*
X51555000Y-43835000D02*
X49550000Y-43835000D01*
X46355000Y-38100000D02*
X48260000Y-36195000D01*
X49550000Y-43835000D02*
X46355000Y-40640000D01*
X46355000Y-40640000D02*
X46355000Y-38100000D01*
%TO.N,Net-(D1-Pad2)*%
X88265000Y-142875000D02*
X88265000Y-139065000D01*
D52*
X65786000Y-138684000D02*
X65786000Y-140652500D01*
X80645000Y-150495000D02*
X88265000Y-142875000D01*
X69215000Y-135255000D02*
X65786000Y-138684000D01*
X75628500Y-150495000D02*
X80645000Y-150495000D01*
X65786000Y-140652500D02*
X75628500Y-150495000D01*
%TO.N,Net-(J5-Pad3)*%
X98425000Y-171450000D02*
X102870000Y-175895000D01*
X102870000Y-175895000D02*
X112395000Y-175895000D01*
X113665000Y-174625000D02*
X127635000Y-174625000D01*
X95885000Y-146685000D02*
X95885000Y-150495000D01*
X93345000Y-155098750D02*
X98425000Y-160178750D01*
X127635000Y-174625000D02*
X131445000Y-178435000D01*
X95885000Y-150495000D02*
X94615000Y-150495000D01*
X94615000Y-150495000D02*
X93345000Y-151765000D01*
D53*
X120015000Y-184785000D02*
X130175000Y-184785000D01*
X118745000Y-180975000D02*
X118745000Y-183515000D01*
D52*
X131445000Y-178435000D02*
X131445000Y-180975000D01*
X98425000Y-160178750D02*
X98425000Y-171450000D01*
X112395000Y-175895000D02*
X113665000Y-174625000D01*
D53*
X130175000Y-184785000D02*
X131445000Y-183515000D01*
D52*
X93345000Y-151765000D02*
X93345000Y-155098750D01*
D53*
X118745000Y-183515000D02*
X120015000Y-184785000D01*
X131445000Y-183515000D02*
X131445000Y-180975000D01*
D55*
%TO.N,Net-(J30-Pad3)*%
X70256400Y-102006400D02*
X70256400Y-94528800D01*
X70485000Y-102235000D02*
X70256400Y-102006400D01*
X70256400Y-94528800D02*
X71521400Y-93263800D01*
%TO.N,Net-(J30-Pad5)*%
X67945000Y-102235000D02*
X67716400Y-102006400D01*
X67716400Y-102006400D02*
X67716400Y-94528800D01*
X67716400Y-94528800D02*
X68981400Y-93263800D01*
D54*
%TO.N,Net-(J30-Pad7)*%
X62687200Y-91440000D02*
X65176400Y-91440000D01*
X61722000Y-97637600D02*
X61722000Y-92405200D01*
X61722000Y-92405200D02*
X62687200Y-91440000D01*
X65176400Y-91440000D02*
X66441400Y-92705000D01*
X66441400Y-92705000D02*
X66441400Y-93263800D01*
X65405000Y-102235000D02*
X65405000Y-101320600D01*
X65405000Y-101320600D02*
X61722000Y-97637600D01*
%TO.N,Net-(J30-Pad10)*%
X67818000Y-105511600D02*
X71221600Y-105511600D01*
X71221600Y-105511600D02*
X75565000Y-109855000D01*
X63901400Y-95803800D02*
X63901400Y-98242200D01*
X66675600Y-104369200D02*
X67818000Y-105511600D01*
X66675600Y-101016400D02*
X66675600Y-104369200D01*
X63901400Y-98242200D02*
X66675600Y-101016400D01*
%TD*%
M02*
