%TF.GenerationSoftware,KiCad,Pcbnew,6.0.1-79c1e3a40b~116~ubuntu20.04.1*%
%TF.CreationDate,2022-01-16T20:57:59+01:00*%
%TF.ProjectId,NodeStandard,4e6f6465-5374-4616-9e64-6172642e6b69,V3.0*%
%TF.SameCoordinates,Original*%
%TF.FileFunction,Soldermask,Bot*%
%TF.FilePolarity,Negative*%
%FSLAX46Y46*%
G04 Gerber Fmt 4.6, Leading zero omitted, Abs format (unit mm)*
G04 Created by KiCad (PCBNEW 6.0.1-79c1e3a40b~116~ubuntu20.04.1) date 2022-01-16 20:57:59*
%MOMM*%
%LPD*%
G01*
G04 APERTURE LIST*
G04 Aperture macros list*
%AMRoundRect*
0 Rectangle with rounded corners*
0 $1 Rounding radius*
0 $2 $3 $4 $5 $6 $7 $8 $9 X,Y pos of 4 corners*
0 Add a 4 corners polygon primitive as box body*
4,1,4,$2,$3,$4,$5,$6,$7,$8,$9,$2,$3,0*
0 Add four circle primitives for the rounded corners*
1,1,$1+$1,$2,$3*
1,1,$1+$1,$4,$5*
1,1,$1+$1,$6,$7*
1,1,$1+$1,$8,$9*
0 Add four rect primitives between the rounded corners*
20,1,$1+$1,$2,$3,$4,$5,0*
20,1,$1+$1,$4,$5,$6,$7,0*
20,1,$1+$1,$6,$7,$8,$9,0*
20,1,$1+$1,$8,$9,$2,$3,0*%
%AMFreePoly0*
4,1,5,1.000000,-1.000000,-1.000000,-1.000000,-1.000000,1.000000,1.000000,1.000000,1.000000,-1.000000,1.000000,-1.000000,$1*%
G04 Aperture macros list end*
%ADD10R,2.800000X1.800000*%
%ADD11R,1.800000X2.800000*%
%ADD12C,1.500000*%
%ADD13C,1.600000*%
%ADD14R,2.200000X2.200000*%
%ADD15O,2.200000X2.200000*%
%ADD16R,1.800000X1.800000*%
%ADD17C,1.800000*%
%ADD18R,1.600000X1.600000*%
%ADD19O,1.600000X1.600000*%
%ADD20R,1.700000X1.700000*%
%ADD21O,1.700000X1.700000*%
%ADD22RoundRect,0.249999X1.550001X-0.790001X1.550001X0.790001X-1.550001X0.790001X-1.550001X-0.790001X0*%
%ADD23O,3.600000X2.080000*%
%ADD24R,2.600000X2.600000*%
%ADD25C,2.600000*%
%ADD26C,2.200000*%
%ADD27RoundRect,0.249999X0.790001X1.550001X-0.790001X1.550001X-0.790001X-1.550001X0.790001X-1.550001X0*%
%ADD28O,2.080000X3.600000*%
%ADD29C,1.100000*%
%ADD30RoundRect,0.249999X-1.550001X0.790001X-1.550001X-0.790001X1.550001X-0.790001X1.550001X0.790001X0*%
%ADD31RoundRect,0.249999X-0.790001X-1.550001X0.790001X-1.550001X0.790001X1.550001X-0.790001X1.550001X0*%
%ADD32C,3.000000*%
%ADD33C,2.500000*%
%ADD34O,3.000000X2.000000*%
%ADD35R,2.000000X3.000000*%
%ADD36O,2.000000X3.000000*%
%ADD37C,2.300000*%
%ADD38R,2.000000X2.300000*%
%ADD39R,1.500000X1.050000*%
%ADD40O,1.500000X1.050000*%
%ADD41R,2.000000X1.905000*%
%ADD42O,2.000000X1.905000*%
%ADD43R,1.050000X1.500000*%
%ADD44O,1.050000X1.500000*%
%ADD45C,2.400000*%
%ADD46O,2.400000X2.400000*%
%ADD47C,5.600000*%
%ADD48R,2.000000X2.000000*%
%ADD49R,2.500000X2.500000*%
%ADD50C,2.000000*%
%ADD51FreePoly0,0.000000*%
%ADD52FreePoly0,90.000000*%
G04 APERTURE END LIST*
D10*
%TO.C,J2*%
X139115000Y-179665000D03*
X139115000Y-174665000D03*
X139115000Y-182165000D03*
X139115000Y-172165000D03*
D11*
X144115000Y-177165000D03*
D12*
X146615000Y-172165000D03*
X146615000Y-182165000D03*
X144115000Y-182165000D03*
X144115000Y-172165000D03*
X139115000Y-177165000D03*
%TD*%
D13*
%TO.C,C7*%
X40005000Y-102235000D03*
X45005000Y-102235000D03*
%TD*%
%TO.C,C6*%
X38735000Y-84455000D03*
X43735000Y-84455000D03*
%TD*%
%TO.C,C5*%
X38735000Y-66675000D03*
X43735000Y-66675000D03*
%TD*%
%TO.C,C9*%
X69215000Y-74295000D03*
X74215000Y-74295000D03*
%TD*%
D14*
%TO.C,D5*%
X95885000Y-62865000D03*
D15*
X106045000Y-62865000D03*
%TD*%
D16*
%TO.C,D4*%
X85725000Y-67945000D03*
D17*
X83185000Y-67945000D03*
%TD*%
D16*
%TO.C,D3*%
X112395000Y-67945000D03*
D17*
X109855000Y-67945000D03*
%TD*%
D14*
%TO.C,D6*%
X69215000Y-62865000D03*
D15*
X79375000Y-62865000D03*
%TD*%
D16*
%TO.C,D13*%
X61595000Y-151765000D03*
D17*
X59055000Y-151765000D03*
%TD*%
D16*
%TO.C,D14*%
X61595000Y-120015000D03*
D17*
X59055000Y-120015000D03*
%TD*%
D14*
%TO.C,D15*%
X43815000Y-146685000D03*
D15*
X53975000Y-146685000D03*
%TD*%
D14*
%TO.C,D16*%
X43815000Y-114935000D03*
D15*
X53975000Y-114935000D03*
%TD*%
D18*
%TO.C,D1*%
X95885000Y-142875000D03*
D19*
X88265000Y-142875000D03*
%TD*%
D18*
%TO.C,D2*%
X88265000Y-139065000D03*
D19*
X95885000Y-139065000D03*
%TD*%
D18*
%TO.C,D7*%
X47625000Y-94615000D03*
D19*
X40005000Y-94615000D03*
%TD*%
D18*
%TO.C,D8*%
X40005000Y-98425000D03*
D19*
X47625000Y-98425000D03*
%TD*%
D18*
%TO.C,D9*%
X46355000Y-76835000D03*
D19*
X38735000Y-76835000D03*
%TD*%
D18*
%TO.C,D10*%
X38735000Y-80645000D03*
D19*
X46355000Y-80645000D03*
%TD*%
D18*
%TO.C,D11*%
X46355000Y-59055000D03*
D19*
X38735000Y-59055000D03*
%TD*%
D18*
%TO.C,D12*%
X38735000Y-62865000D03*
D19*
X46355000Y-62865000D03*
%TD*%
D16*
%TO.C,D17*%
X51435000Y-75565000D03*
D17*
X53975000Y-75565000D03*
%TD*%
D14*
%TO.C,D18*%
X65405000Y-70485000D03*
D15*
X55245000Y-70485000D03*
%TD*%
D20*
%TO.C,J4*%
X104775000Y-147955000D03*
D21*
X104775000Y-145415000D03*
X104775000Y-142875000D03*
X104775000Y-140335000D03*
X104775000Y-137795000D03*
X104775000Y-135255000D03*
X104775000Y-132715000D03*
X104775000Y-130175000D03*
X104775000Y-127635000D03*
X104775000Y-125095000D03*
%TD*%
D20*
%TO.C,J7*%
X79375000Y-147955000D03*
D21*
X79375000Y-145415000D03*
X79375000Y-142875000D03*
X79375000Y-140335000D03*
X79375000Y-137795000D03*
X79375000Y-135255000D03*
X79375000Y-132715000D03*
X79375000Y-130175000D03*
X79375000Y-127635000D03*
X79375000Y-125095000D03*
%TD*%
D22*
%TO.C,J1*%
X140335000Y-161925000D03*
D23*
X140335000Y-156845000D03*
%TD*%
D24*
%TO.C,J3*%
X131445000Y-155575000D03*
D25*
X131445000Y-160655000D03*
%TD*%
D14*
%TO.C,J5*%
X126365000Y-180975000D03*
D26*
X128905000Y-180975000D03*
X131445000Y-180975000D03*
X133985000Y-180975000D03*
%TD*%
D14*
%TO.C,J6*%
X113665000Y-180975000D03*
D26*
X116205000Y-180975000D03*
X118745000Y-180975000D03*
X121285000Y-180975000D03*
%TD*%
D20*
%TO.C,J9*%
X89535000Y-73025000D03*
D21*
X89535000Y-75565000D03*
%TD*%
D22*
%TO.C,J12*%
X140335000Y-97155000D03*
D23*
X140335000Y-92075000D03*
%TD*%
D27*
%TO.C,J13*%
X133985000Y-33655000D03*
D28*
X128905000Y-33655000D03*
X123825000Y-33655000D03*
%TD*%
D27*
%TO.C,J14*%
X107315000Y-33655000D03*
D28*
X102235000Y-33655000D03*
X97155000Y-33655000D03*
%TD*%
D22*
%TO.C,J10*%
X140335000Y-140335000D03*
D23*
X140335000Y-135255000D03*
%TD*%
D22*
%TO.C,J11*%
X140335000Y-118745000D03*
D23*
X140335000Y-113665000D03*
%TD*%
D29*
%TO.C,J17*%
X29845000Y-81915000D03*
X29845000Y-84455000D03*
D14*
X32385000Y-81915000D03*
D26*
X32385000Y-84455000D03*
%TD*%
D29*
%TO.C,J16*%
X29845000Y-74295000D03*
X29845000Y-71755000D03*
D14*
X32385000Y-71755000D03*
D26*
X32385000Y-74295000D03*
%TD*%
D29*
%TO.C,J15*%
X29845000Y-64135000D03*
X29845000Y-61595000D03*
D14*
X32385000Y-61595000D03*
D26*
X32385000Y-64135000D03*
%TD*%
D20*
%TO.C,J18*%
X53975000Y-163195000D03*
D21*
X53975000Y-165735000D03*
%TD*%
D20*
%TO.C,J8*%
X112395000Y-73025000D03*
D21*
X112395000Y-75565000D03*
%TD*%
D20*
%TO.C,J19*%
X45085000Y-132715000D03*
D21*
X45085000Y-135255000D03*
%TD*%
D30*
%TO.C,J20*%
X38735000Y-146685000D03*
D23*
X38735000Y-151765000D03*
X38735000Y-156845000D03*
X38735000Y-161925000D03*
%TD*%
D30*
%TO.C,J21*%
X38735000Y-114935000D03*
D23*
X38735000Y-120015000D03*
X38735000Y-125095000D03*
X38735000Y-130175000D03*
%TD*%
D22*
%TO.C,J25*%
X140335000Y-62865000D03*
D23*
X140335000Y-57785000D03*
%TD*%
D31*
%TO.C,J26*%
X62230000Y-173355000D03*
D28*
X67310000Y-173355000D03*
%TD*%
D31*
%TO.C,J27*%
X40640000Y-173355000D03*
D28*
X45720000Y-173355000D03*
%TD*%
D20*
%TO.C,J22*%
X57785000Y-84455000D03*
D21*
X60325000Y-84455000D03*
%TD*%
D27*
%TO.C,J23*%
X80645000Y-33655000D03*
D28*
X75565000Y-33655000D03*
X70485000Y-33655000D03*
%TD*%
D27*
%TO.C,J24*%
X53975000Y-33655000D03*
D28*
X48895000Y-33655000D03*
X43815000Y-33655000D03*
%TD*%
D32*
%TO.C,K1*%
X106045000Y-57785000D03*
D33*
X112095000Y-55835000D03*
D32*
X112095000Y-43635000D03*
X100045000Y-43585000D03*
D33*
X100095000Y-55835000D03*
%TD*%
D32*
%TO.C,K2*%
X75565000Y-57785000D03*
D33*
X81615000Y-55835000D03*
D32*
X81615000Y-43635000D03*
X69565000Y-43585000D03*
D33*
X69615000Y-55835000D03*
%TD*%
D34*
%TO.C,K3*%
X59055000Y-43835000D03*
X59055000Y-48875000D03*
X59055000Y-38795000D03*
X51555000Y-43835000D03*
X51555000Y-48875000D03*
X51555000Y-38795000D03*
D35*
X59055000Y-64135000D03*
D36*
X51555000Y-64135000D03*
%TD*%
D37*
%TO.C,L1*%
X115570000Y-169545000D03*
X115570000Y-156845000D03*
%TD*%
D18*
%TO.C,OK1*%
X125095000Y-149225000D03*
D19*
X125095000Y-146685000D03*
X117475000Y-146685000D03*
X117475000Y-149225000D03*
%TD*%
D18*
%TO.C,OK2*%
X125095000Y-127635000D03*
D19*
X125095000Y-125095000D03*
X117475000Y-125095000D03*
X117475000Y-127635000D03*
%TD*%
D18*
%TO.C,OK3*%
X125095000Y-106045000D03*
D19*
X125095000Y-103505000D03*
X117475000Y-103505000D03*
X117475000Y-106045000D03*
%TD*%
D38*
%TO.C,PS1*%
X127635000Y-45720000D03*
D37*
X122635000Y-45720000D03*
X132835000Y-75120000D03*
X117435000Y-75120000D03*
%TD*%
D39*
%TO.C,Q2*%
X84455000Y-73025000D03*
D40*
X84455000Y-74295000D03*
X84455000Y-75565000D03*
%TD*%
D39*
%TO.C,Q1*%
X107315000Y-73025000D03*
D40*
X107315000Y-74295000D03*
X107315000Y-75565000D03*
%TD*%
D41*
%TO.C,Q3*%
X57785000Y-160655000D03*
D42*
X57785000Y-163195000D03*
X57785000Y-165735000D03*
%TD*%
D41*
%TO.C,Q4*%
X55245000Y-130175000D03*
D42*
X55245000Y-132715000D03*
X55245000Y-135255000D03*
%TD*%
D43*
%TO.C,Q5*%
X57785000Y-79375000D03*
D44*
X59055000Y-79375000D03*
X60325000Y-79375000D03*
%TD*%
D13*
%TO.C,R1*%
X130175000Y-166370000D03*
D19*
X130175000Y-173990000D03*
%TD*%
D13*
%TO.C,R2*%
X95885000Y-146685000D03*
D19*
X88265000Y-146685000D03*
%TD*%
D13*
%TO.C,R21*%
X40005000Y-89535000D03*
D19*
X47625000Y-89535000D03*
%TD*%
D13*
%TO.C,R4*%
X95885000Y-150495000D03*
D19*
X88265000Y-150495000D03*
%TD*%
D13*
%TO.C,R5*%
X88265000Y-154305000D03*
D19*
X95885000Y-154305000D03*
%TD*%
D45*
%TO.C,R14*%
X135255000Y-133985000D03*
D46*
X114935000Y-133985000D03*
%TD*%
D45*
%TO.C,R13*%
X135255000Y-140335000D03*
D46*
X114935000Y-140335000D03*
%TD*%
D45*
%TO.C,R16*%
X135255000Y-112395000D03*
D46*
X114935000Y-112395000D03*
%TD*%
D45*
%TO.C,R15*%
X135255000Y-118745000D03*
D46*
X114935000Y-118745000D03*
%TD*%
D13*
%TO.C,R11*%
X95885000Y-67945000D03*
D19*
X103505000Y-67945000D03*
%TD*%
D13*
%TO.C,R9*%
X102235000Y-74295000D03*
D19*
X94615000Y-74295000D03*
%TD*%
D13*
%TO.C,R6*%
X133985000Y-166370000D03*
D19*
X133985000Y-173990000D03*
%TD*%
D13*
%TO.C,R10*%
X79375000Y-74295000D03*
D19*
X79375000Y-81915000D03*
%TD*%
D13*
%TO.C,R12*%
X69215000Y-67945000D03*
D19*
X76835000Y-67945000D03*
%TD*%
D45*
%TO.C,R17*%
X135255000Y-97155000D03*
D46*
X114935000Y-97155000D03*
%TD*%
D45*
%TO.C,R18*%
X135255000Y-90805000D03*
D46*
X114935000Y-90805000D03*
%TD*%
D13*
%TO.C,R22*%
X43815000Y-153035000D03*
D19*
X51435000Y-153035000D03*
%TD*%
D13*
%TO.C,R23*%
X43815000Y-121285000D03*
D19*
X51435000Y-121285000D03*
%TD*%
D13*
%TO.C,R20*%
X38735000Y-71755000D03*
D19*
X46355000Y-71755000D03*
%TD*%
D13*
%TO.C,R19*%
X31115000Y-55245000D03*
D19*
X38735000Y-55245000D03*
%TD*%
D13*
%TO.C,R24*%
X51435000Y-156845000D03*
D19*
X43815000Y-156845000D03*
%TD*%
D13*
%TO.C,R25*%
X43815000Y-125095000D03*
D19*
X51435000Y-125095000D03*
%TD*%
D13*
%TO.C,R26*%
X59055000Y-146685000D03*
D19*
X66675000Y-146685000D03*
%TD*%
D13*
%TO.C,R27*%
X59055000Y-114935000D03*
D19*
X66675000Y-114935000D03*
%TD*%
D13*
%TO.C,R3*%
X88265000Y-164465000D03*
D19*
X95885000Y-164465000D03*
%TD*%
D13*
%TO.C,R7*%
X111125000Y-141605000D03*
D19*
X111125000Y-149225000D03*
%TD*%
D13*
%TO.C,R8*%
X111125000Y-130175000D03*
D19*
X111125000Y-122555000D03*
%TD*%
D13*
%TO.C,R28*%
X65405000Y-79375000D03*
D19*
X65405000Y-86995000D03*
%TD*%
D13*
%TO.C,R29*%
X65405000Y-74295000D03*
D19*
X57785000Y-74295000D03*
%TD*%
D18*
%TO.C,U1*%
X83185000Y-102235000D03*
D19*
X80645000Y-102235000D03*
X78105000Y-102235000D03*
X75565000Y-102235000D03*
X73025000Y-102235000D03*
X70485000Y-102235000D03*
X67945000Y-102235000D03*
X65405000Y-102235000D03*
X62865000Y-102235000D03*
X60325000Y-102235000D03*
X57785000Y-102235000D03*
X55245000Y-102235000D03*
X52705000Y-102235000D03*
X50165000Y-102235000D03*
X50165000Y-109855000D03*
X52705000Y-109855000D03*
X55245000Y-109855000D03*
X57785000Y-109855000D03*
X60325000Y-109855000D03*
X62865000Y-109855000D03*
X65405000Y-109855000D03*
X67945000Y-109855000D03*
X70485000Y-109855000D03*
X73025000Y-109855000D03*
X75565000Y-109855000D03*
X78105000Y-109855000D03*
X80645000Y-109855000D03*
X83185000Y-109855000D03*
%TD*%
D29*
%TO.C,J28*%
X29845000Y-97155000D03*
X29845000Y-99695000D03*
X29845000Y-102235000D03*
D14*
X32385000Y-97155000D03*
D26*
X32385000Y-99695000D03*
X32385000Y-102235000D03*
%TD*%
D20*
%TO.C,J29*%
X69215000Y-130175000D03*
D21*
X69215000Y-132715000D03*
X69215000Y-135255000D03*
%TD*%
D47*
%TO.C,REF\u002A\u002A*%
X29591000Y-25400000D03*
%TD*%
%TO.C,REF\u002A\u002A*%
X150812500Y-25400000D03*
%TD*%
%TO.C,REF\u002A\u002A*%
X29591000Y-188341000D03*
%TD*%
%TO.C,REF\u002A\u002A*%
X150812500Y-188341000D03*
%TD*%
D26*
%TO.C,REF\u002A\u002A*%
X74168000Y-137858500D03*
%TD*%
%TO.C,REF\u002A\u002A*%
X110109000Y-137795000D03*
%TD*%
D43*
%TO.C,Q6*%
X94615000Y-126365000D03*
D44*
X95885000Y-126365000D03*
X97155000Y-126365000D03*
%TD*%
D13*
%TO.C,R30*%
X88265000Y-133985000D03*
D19*
X95885000Y-133985000D03*
%TD*%
D48*
%TO.C,LM2596IN+1*%
X134086000Y-44831000D03*
%TD*%
%TO.C,LM2596IN-1*%
X116586000Y-44831000D03*
%TD*%
%TO.C,LM2596Out+1*%
X134086000Y-84831000D03*
%TD*%
%TO.C,LM2596Out-1*%
X116713000Y-84831000D03*
%TD*%
D49*
%TO.C,TP5*%
X122380000Y-170375000D03*
%TD*%
%TO.C,TP6*%
X122380000Y-155575000D03*
%TD*%
D50*
%TO.C,REF\u002A\u002A*%
X111380000Y-153615000D03*
%TD*%
%TO.C,REF\u002A\u002A*%
X111380000Y-172375000D03*
%TD*%
D18*
%TO.C,C3*%
X132740400Y-127623580D03*
D13*
X132740400Y-125123580D03*
%TD*%
D18*
%TO.C,C8*%
X140360400Y-75576421D03*
D13*
X140360400Y-78076421D03*
%TD*%
D18*
%TO.C,C4*%
X132080000Y-106033580D03*
D13*
X132080000Y-103533580D03*
%TD*%
D18*
%TO.C,C2*%
X132715000Y-149213580D03*
D13*
X132715000Y-146713580D03*
%TD*%
D18*
%TO.C,C1*%
X109866421Y-104775000D03*
D13*
X112366421Y-104775000D03*
%TD*%
D20*
%TO.C,J30*%
X74061400Y-93263800D03*
D21*
X74061400Y-95803800D03*
X71521400Y-93263800D03*
X71521400Y-95803800D03*
X68981400Y-93263800D03*
X68981400Y-95803800D03*
X66441400Y-93263800D03*
X66441400Y-95803800D03*
X63901400Y-93263800D03*
X63901400Y-95803800D03*
%TD*%
D51*
%TO.C,JP1*%
X144450000Y-135255000D03*
X147650000Y-135255000D03*
%TD*%
%TO.C,JP2*%
X144450000Y-113665000D03*
X147650000Y-113665000D03*
%TD*%
%TO.C,JP3*%
X144450000Y-92075000D03*
X147650000Y-92075000D03*
%TD*%
D52*
%TO.C,JP4*%
X128905000Y-28270000D03*
X128905000Y-25070000D03*
%TD*%
%TO.C,JP5*%
X102235000Y-28270000D03*
X102235000Y-25070000D03*
%TD*%
%TO.C,JP8*%
X48895000Y-28270000D03*
X48895000Y-25070000D03*
%TD*%
M02*
